# Blender 4.4.3
# www.blender.org
mtllib lod4.mtl
o Asteroid_2d_LOD4
v 0.240546 0.818142 -0.065679
v -0.713089 -0.148575 -0.455652
v 0.192183 -0.464446 -0.787268
v 0.569778 0.619638 -0.127466
v 1.085750 -0.130966 0.033072
v 0.202167 0.788238 0.094873
v 0.644332 -0.129790 0.660632
v -0.942971 0.115417 0.481111
v 0.265990 0.791497 -0.226269
v -0.823686 0.376980 -0.356260
v -0.623941 0.297840 -0.467045
v -0.737038 0.375610 0.587482
v 0.616601 -0.325134 -0.234681
v 0.248453 -0.085054 0.901424
v 0.302930 0.585070 0.760390
v -0.864221 0.103063 0.205845
v -0.767423 0.307204 0.633806
v -1.015813 0.204435 0.374324
v -1.043347 -0.127132 -0.116856
v -0.648732 0.041276 -0.613479
v 0.301470 -0.463247 -0.771958
v 0.228968 -0.178087 -0.763962
v 0.366762 0.247543 0.884137
v 0.772879 0.145525 0.610663
v 0.294365 -0.794722 -0.383182
v -0.650239 -0.407941 0.071602
v -0.195039 -0.813118 0.096475
v -0.110133 0.607552 -0.571381
v 0.645820 0.228067 0.194073
v -0.131503 0.734584 0.391839
v -0.218016 0.670570 0.332956
v 0.154125 0.781276 0.534030
v -0.173925 0.670243 0.174877
v -0.078155 0.743816 0.525585
v -0.448677 0.065359 -0.508697
v -1.061106 0.076050 0.122966
v 0.168570 0.831790 -0.064522
v -0.774306 0.062408 -0.561084
v -0.802325 -0.077395 -0.543851
v 0.818976 -0.108588 -0.291075
v 0.123448 0.249946 0.795211
v -0.099872 0.654320 0.680885
v 0.157904 -0.486431 0.467087
v -0.165221 0.567010 0.730050
v 0.033972 0.130067 0.858704
v -0.068304 0.159137 0.864680
v 0.044692 0.834282 0.175380
v 0.135057 0.836518 0.103908
v 0.550397 0.536683 0.061525
v 0.549576 0.478132 0.105995
v 0.644439 0.531065 -0.208534
v -0.223832 -0.777470 0.116836
v -0.595766 -0.156966 -0.325887
v -0.591765 -0.199521 -0.198797
v 0.580296 -0.176985 0.576524
v 0.468411 0.192975 0.430164
v 0.535079 -0.056613 0.786021
v 0.518590 0.191453 0.851978
v 0.371383 0.043804 0.897107
v 0.616314 -0.343651 0.125199
v 0.651585 -0.343996 -0.106683
v -0.907619 0.154382 0.560730
v -0.993615 0.271270 0.381002
v -0.909608 0.325560 0.492905
v -1.108580 0.296244 0.093672
v 1.061330 0.201166 -0.154808
v 0.824318 -0.156918 0.350572
v -0.705930 0.012446 0.606833
v -0.804528 0.039736 0.602893
v -0.487525 0.062235 0.504669
v -0.563252 -0.431476 0.339754
v 0.340776 0.702479 -0.266342
v -0.402141 0.541725 0.572899
v -0.626087 0.450196 0.581708
v -0.636847 0.395963 -0.354660
v -0.894793 0.399725 -0.218238
v -0.793487 0.284755 -0.495397
v -0.255610 0.543909 0.393881
v -0.405175 0.539613 -0.351744
v -0.458295 0.381620 -0.146140
v 0.592986 -0.545097 -0.154775
v 0.547187 -0.475957 -0.253701
v 0.329592 -0.782367 -0.146423
v 0.377173 0.395389 0.852015
v 0.968797 0.216428 -0.105748
v -0.466930 -0.131298 -0.713280
v -1.056130 0.023367 -0.320511
v -0.899037 -0.064455 -0.333793
v -0.998740 0.228349 0.311381
v -0.916295 0.236665 0.560889
v -1.063067 0.154274 0.279926
v -0.945314 0.191799 0.443493
v -0.628336 0.487466 0.513577
v -0.769497 0.063090 0.283485
v -0.934551 -0.183461 -0.072063
v 0.441992 -0.516130 -0.706405
v 0.373815 -0.243118 -0.752128
v 1.018644 0.221433 -0.470053
v 0.951039 -0.314443 0.305236
v 0.993462 -0.328798 0.139584
v 0.220133 0.252447 0.795504
v 0.187142 0.188489 0.796239
v 0.777535 0.057768 0.672238
v 0.696718 0.185326 0.711958
v 0.178115 -0.838231 -0.168009
v 0.155896 -0.806640 -0.326769
v -0.591485 -0.494541 0.107610
v -0.660748 -0.390600 0.175441
v -0.099110 0.522948 -0.598053
v 0.580611 0.365130 -0.049877
v 0.256626 0.780630 -0.013714
v 0.229767 0.767115 0.050528
v 0.421723 0.696262 0.061791
v 0.397775 0.722787 0.170718
v 0.432448 0.580425 0.288815
v -0.119968 0.742010 0.296171
v -0.163307 0.666684 0.261633
v -0.216609 0.632156 0.531419
v 0.124309 0.834636 0.406035
v 0.016235 0.749870 0.395503
v -0.079800 0.772542 0.202660
v -0.052204 0.736435 0.147394
v 0.243978 0.819544 0.134957
v 0.838360 0.094677 0.109997
v 0.279223 -0.093097 -0.581615
v 0.130222 0.035445 -0.495036
v -0.971317 0.113644 -0.438653
v -0.901474 0.160345 -0.489194
v 0.807232 0.020248 0.347277
v -0.185011 0.659320 0.592150
v 0.145121 0.846204 0.274937
v 0.360615 0.787721 0.055247
v 0.001722 0.748604 -0.112609
v -0.208436 0.566901 -0.144589
v 0.522252 -0.512715 -0.307664
v 0.947416 -0.066687 -0.519530
v -1.083275 0.142180 0.228359
v -1.065964 0.037067 -0.033193
v -1.027401 0.021645 0.009455
v -0.213026 -0.767597 -0.022985
v -0.306212 -0.690455 0.085499
v -0.329739 -0.642534 0.047028
v -0.238302 -0.558201 -0.117244
v -0.111897 -0.804325 -0.127650
v -0.101608 -0.848770 -0.047146
v -0.115866 -0.833822 0.108815
v -0.008957 -0.780742 0.177318
v -0.061904 -0.707248 0.278016
v -0.107490 -0.667179 0.227716
v -0.110194 -0.547431 0.340684
v -0.239672 -0.516272 0.323773
v -0.316212 -0.467894 0.330126
v -0.334607 -0.435215 0.385862
v -0.266029 -0.430484 0.437488
v -0.361634 -0.386221 0.376861
v -0.526452 -0.361306 0.345006
v -0.374572 -0.301351 0.326155
v -0.644195 -0.175220 0.348023
v -0.735279 -0.109862 0.405094
v -0.747245 -0.078870 0.480722
v -0.975391 0.106879 0.284532
v -0.815965 0.074440 0.128638
v -0.801816 0.001632 0.435436
v -0.622900 -0.249793 0.335057
v -0.497554 -0.500844 0.319804
v -0.375710 -0.545162 0.294789
v -0.173685 -0.631225 0.216965
v -0.155575 -0.732998 0.139205
v -0.098117 -0.767422 0.165066
v -0.340029 -0.450536 -0.100746
v -0.173378 -0.519957 -0.285501
v 0.044195 -0.854681 -0.153985
v -0.002432 -0.848480 -0.016632
v -0.152484 -0.487441 0.510314
v -0.267633 -0.361860 0.440070
v -0.254440 -0.224083 0.398479
v -0.385617 -0.185373 0.307097
v -0.467903 -0.191093 0.290924
v -0.648462 -0.158806 0.360288
v -0.811919 -0.026339 0.547683
v -0.903637 0.062730 0.462316
v -0.902010 0.085102 0.085907
v -0.694353 -0.015683 0.263326
v -0.640305 -0.355095 0.296857
v -0.592904 -0.476237 0.268315
v -0.258612 -0.675327 0.186877
v -0.311755 -0.681113 0.143002
v -0.472021 -0.562014 0.093713
v -0.494813 -0.444229 -0.016566
v -0.107725 -0.723972 -0.226587
v 0.205039 -0.730192 0.076747
v -0.043020 -0.649151 0.341875
v -0.201780 -0.336426 0.523331
v -0.277089 -0.124015 0.410387
v -0.490179 -0.112516 0.317849
v -0.698362 -0.057092 0.499276
v -0.852726 -0.011092 -0.016338
v -0.772310 -0.062979 -0.013764
v -0.644467 -0.093643 0.198613
v -0.657646 -0.139893 0.286815
v -0.650191 -0.252260 0.294238
v -0.658523 -0.133856 0.094736
v -1.019490 -0.059353 -0.047077
v -1.180851 0.185116 0.066995
v -1.174042 0.186667 -0.020276
v -0.900233 -0.279667 -0.125224
v -0.817166 -0.258409 -0.053168
v -0.713638 -0.344195 0.013603
v -0.723962 -0.196011 0.018012
v -0.488179 -0.543083 0.235589
v -0.456031 -0.584149 0.163319
v -0.331886 -0.317915 -0.232080
v -0.025981 -0.737715 -0.314434
v 0.179954 -0.830490 -0.535138
v 0.395999 -0.762234 -0.242586
v 0.528943 -0.629700 -0.038595
v 0.467759 -0.584444 0.032101
v 0.347223 -0.608907 0.108125
v 0.213789 -0.575556 0.198951
v 0.084665 -0.716421 0.150224
v 0.050162 -0.651822 0.281531
v 0.031694 -0.601769 0.383459
v -0.058918 -0.610928 0.411437
v -0.001021 -0.532505 0.608475
v -0.027397 -0.416940 0.685412
v -0.112209 -0.422964 0.596867
v -0.064528 -0.163676 0.822913
v -0.170454 -0.212494 0.657426
v -0.229583 -0.078232 0.529226
v -0.342118 0.049201 0.529650
v -0.417875 0.032739 0.453847
v -0.560877 -0.043808 0.387419
v -0.567369 0.074016 0.617786
v -0.724188 0.171978 0.690216
v -0.850289 0.197218 0.629761
v -1.145512 0.118533 0.087989
v -1.087138 0.121496 -0.223432
v -1.008203 -0.175716 -0.207064
v -0.680003 -0.305498 0.110250
v -0.598189 -0.449643 0.028730
v -0.445810 -0.292298 -0.142888
v -0.292593 -0.272587 -0.406260
v -0.198828 -0.397435 -0.415725
v -0.115408 -0.573874 -0.536589
v -0.072683 -0.686491 -0.369704
v 0.075600 -0.820868 -0.460705
v 0.052893 -0.787972 -0.551844
v 0.156553 -0.829302 -0.527169
v 0.137514 -0.536042 0.384609
v 0.046182 -0.555612 0.577810
v 0.064369 -0.458685 0.667051
v 0.031879 -0.308379 0.805246
v -0.147671 -0.108535 0.768923
v -0.245697 -0.009875 0.678303
v -0.537908 0.121182 0.670014
v -0.519384 0.265422 0.743749
v -0.974937 0.305377 0.314775
v -1.031302 0.226913 0.173311
v -1.086920 0.184150 0.202373
v -1.157034 0.261252 0.102529
v -1.175048 0.246546 -0.012207
v -1.151331 0.247370 -0.063883
v -1.119784 0.234300 -0.184062
v -1.068966 0.257764 -0.292287
v -0.904616 0.292007 -0.451886
v -0.890598 0.049043 -0.573089
v -0.683214 -0.047830 -0.622847
v -0.639522 -0.096528 -0.641426
v -0.341533 -0.231667 -0.715391
v -0.436412 -0.224083 -0.613532
v -0.238650 -0.357175 -0.648762
v -0.257829 -0.330189 -0.557304
v 0.072895 -0.735249 -0.633680
v 0.429044 -0.639091 -0.524609
v 0.485842 -0.619100 -0.391694
v 0.474140 -0.681950 -0.224820
v 0.644297 -0.520360 -0.029033
v 0.693586 -0.445529 0.020705
v 0.645877 -0.459862 0.056991
v 0.482327 -0.425702 0.104877
v 0.325964 -0.439868 0.184316
v 0.245004 -0.381889 0.363770
v 0.187932 -0.412360 0.525614
v 0.105741 -0.334152 0.799401
v 0.136719 -0.058899 0.930197
v 0.035404 -0.090032 0.901116
v -0.192508 0.165711 0.838710
v -0.157528 0.056909 0.808764
v -0.291082 0.217352 0.838808
v -0.319163 0.067154 0.693027
v -0.421948 0.097911 0.670268
v -0.578278 0.348119 0.707459
v -0.524717 0.428979 0.659445
v -0.867811 0.341207 0.323599
v -0.990930 0.285433 0.217789
v -0.676065 0.185623 -0.533503
v -0.663007 0.277279 -0.514900
v -0.554965 0.351418 -0.433632
v -0.412213 0.472176 -0.458905
v -0.385130 0.546508 -0.443914
v -0.193237 0.608475 -0.592945
v -0.199748 0.639758 -0.513784
v -0.185968 0.682343 -0.484696
v -0.092223 0.697075 -0.494552
v 0.057229 0.680116 -0.341944
v 0.113057 0.626781 -0.335677
v 0.440692 0.563314 -0.257065
v 0.230175 0.378761 -0.265782
v 0.453741 0.403278 -0.224003
v 0.392084 0.112177 -0.289526
v 0.503263 -0.059398 -0.494147
v 0.275202 0.022664 -0.452849
v 0.346366 -0.161431 -0.693378
v 0.399157 -0.350025 -0.741624
v 0.330848 -0.650828 -0.630201
v 0.187038 -0.656181 -0.680821
v 0.561336 -0.518805 -0.431621
v 0.681270 -0.230527 -0.339767
v 0.696979 -0.295405 -0.067124
v 0.706349 -0.407969 -0.001281
v 0.151702 -0.391342 0.699740
v 0.281677 -0.239237 0.760727
v 0.714300 0.095854 0.739624
v 0.216063 0.479445 0.904880
v 0.181503 0.634307 0.783667
v 0.154167 0.582027 0.845418
v 0.027718 0.635854 0.754020
v 0.217249 0.705595 0.618041
v 0.073423 0.672850 0.632222
v 0.010399 0.763290 0.531024
v -0.014867 0.804835 0.298286
v 0.112121 0.816426 0.017111
v 0.181218 0.785916 -0.027375
v 0.076735 0.800154 0.054546
v -0.125743 0.676054 0.068250
v -0.196280 0.566272 -0.047313
v -0.356482 0.491644 -0.008344
v -0.356993 0.514787 -0.167666
v -0.258360 0.652734 -0.280163
v -0.099265 0.691975 -0.154134
v -0.150538 0.684040 -0.302346
v 0.006415 0.758135 -0.244684
v 0.073714 0.811415 -0.192779
v 0.152805 0.796821 -0.196439
v 0.135984 0.839693 -0.118793
v 0.358076 0.807231 -0.118644
v 0.456807 0.719802 -0.169511
v 0.510078 0.626051 -0.226071
v 0.569517 0.588782 -0.233168
v 0.609888 0.491543 -0.245190
v 0.630538 0.286365 -0.255724
v 0.692766 0.166317 -0.326615
v 0.652965 0.006462 -0.433874
v 0.565075 -0.146342 -0.620730
v 0.589905 -0.190972 -0.654872
v 0.563410 -0.290522 -0.707555
v 0.621793 -0.395084 -0.639310
v 0.471375 -0.551474 -0.650685
v 0.687051 -0.312538 -0.476724
v 0.852901 -0.124065 -0.199745
v 0.793200 -0.244354 -0.055247
v 0.834180 -0.392308 0.072841
v 0.706692 -0.413435 0.083372
v 0.301797 -0.286093 0.630007
v 0.718490 -0.206848 0.495734
v 0.749143 -0.017237 0.675717
v 0.438053 0.411097 0.754439
v 0.369742 0.595221 0.643587
v 0.227947 0.805049 0.431363
v 0.822657 0.363296 -0.296070
v 0.913618 0.345580 -0.311472
v 0.928707 0.250401 -0.441098
v 0.854335 0.173661 -0.459724
v 0.925568 -0.012182 -0.560313
v 0.811225 -0.111854 -0.588134
v 0.697505 -0.242800 -0.664649
v 0.640229 -0.408771 -0.550577
v 0.927822 -0.204022 -0.055802
v 0.773018 -0.424421 0.119523
v 0.678975 -0.282009 0.219952
v 0.832553 -0.303879 0.328539
v 0.512153 -0.200668 0.440527
v 0.320027 -0.286446 0.437958
v 0.456562 -0.195974 0.641012
v 0.631024 -0.212732 0.382980
v 0.789093 -0.229104 0.422593
v 0.752336 -0.175321 0.470297
v 0.701281 -0.125722 0.614146
v 0.765810 0.165144 0.462723
v 0.833450 0.152249 0.365963
v 0.751195 0.185434 0.423167
v 0.810555 0.179040 0.323930
v 0.882094 0.097443 0.220699
v 0.734231 0.170254 0.219078
v 0.950168 0.062710 0.147664
v 0.872734 0.088832 0.013936
v 0.967603 0.066237 0.047328
v 1.002625 0.083045 -0.019716
v 1.061641 0.018982 -0.039531
v 1.115407 0.112871 -0.192478
v 1.118489 0.016852 -0.206381
v 1.097916 0.074372 -0.416424
v 1.049728 0.113357 -0.491715
v 0.829962 -0.152213 -0.561718
v 0.820590 -0.169064 -0.472550
v 1.010184 -0.125316 -0.162453
v 1.064526 -0.211526 -0.014329
v 1.065286 -0.212975 0.091351
v 1.001026 -0.256038 0.264358
v 0.723077 -0.073721 0.556973
v 0.760625 0.172318 0.527052
v 0.868981 0.078277 0.288315
v 1.053514 -0.044774 -0.331099
v 0.941881 -0.078732 -0.423702
v 0.960966 -0.235141 0.359965
v 0.798993 -0.197439 0.415229
v 0.737494 0.030898 0.482291
v 1.034171 -0.087214 0.142271
v 1.086741 -0.088151 -0.100458
v 0.747612 -0.040036 0.383407
v 0.915880 0.009790 0.233488
v 0.959824 -0.119473 0.262817
v 0.889269 -0.304775 0.359802
v 0.888402 -0.389201 0.187982
v 1.085096 0.217477 -0.381953
v 1.047665 0.251809 -0.389040
v 0.941029 0.149581 -0.510092
v 0.937143 0.341124 -0.250219
v 0.743457 0.176533 0.054856
v 0.689490 0.198898 0.594436
v 0.550253 0.289880 0.775911
v 0.366605 0.646613 0.460881
v 0.382543 0.663179 0.390307
v 0.515335 0.414127 0.232757
v 0.505143 0.579419 0.168944
v 0.592163 0.534791 -0.066777
v 0.687621 0.467807 -0.175308
v 0.843168 0.373854 -0.218730
v 0.818919 0.185505 -0.043564
v 0.576663 0.329340 0.033057
v 0.582388 0.353657 0.189569
v 0.652461 0.259315 -0.044630
v 0.684896 0.302595 -0.120749
v 0.601089 0.290321 0.190192
v 0.636522 0.200739 0.266074
v 0.592293 0.177252 0.343441
v 0.626052 0.171601 0.501338
v 0.598351 0.254429 0.701239
v 0.452247 0.339438 0.674772
v 0.372803 0.307970 0.530418
v 0.388872 0.502311 0.416946
v 0.403413 0.357618 0.335543
v 0.532092 0.234500 0.270850
v 0.538974 0.215284 0.598239
v 0.418653 0.271938 0.587794
v 0.369619 0.352299 0.410947
v 0.457098 0.292980 0.289578
v 0.424790 0.223030 0.395234
v 0.696783 -0.172391 -0.649872
v 0.764965 -0.042610 -0.568557
v 0.829401 0.274960 -0.364141
v 0.734939 0.382938 -0.292235
v 0.311011 0.802952 0.018055
v 0.060247 0.721342 -0.265124
v -0.027378 0.701717 -0.371808
v -0.197820 0.700141 -0.399315
v -0.613989 0.419895 -0.296347
v -0.577230 0.411859 -0.242718
v -0.289101 0.573034 0.129692
v -0.244274 0.630403 0.219178
v -0.353379 0.569166 0.249133
v -0.503476 0.446123 0.229154
v -0.461549 0.307906 0.027541
v -0.502497 0.308559 0.102735
v -0.634979 0.290461 0.104052
v -0.548841 0.299350 -0.039084
v -0.690378 0.301191 0.031390
v -0.637246 0.338961 -0.157713
v -0.706173 0.395238 -0.221423
v -0.946223 0.381084 -0.043645
v -1.059375 0.344592 -0.058141
v -1.120650 0.324380 0.028387
v -1.125367 0.313795 -0.118563
v -1.036809 0.362895 -0.197566
v -1.048003 0.335949 -0.266030
v -0.886980 0.354765 -0.421029
v -0.945391 0.365053 -0.334103
v -0.955463 0.314404 0.035047
v -0.273810 0.600960 0.653103
v -0.391073 0.524527 0.639563
v -1.029280 0.280839 0.132679
v -0.884425 0.347809 0.046765
v -0.914992 0.322035 0.142226
v -0.741360 0.328243 0.181083
v -0.444038 0.489300 0.346455
v -0.309552 0.514759 0.457844
v -0.638304 0.443722 0.321408
v -0.766043 0.380980 0.341378
v -0.401580 0.425582 0.688460
v -0.339975 0.354796 0.790269
v -0.419271 0.221805 0.765547
v -0.038943 0.427204 0.844327
v -0.157639 0.469754 0.811227
v -0.247394 0.512448 0.682131
v -0.258264 0.473086 0.742087
v 0.062947 0.578977 0.844812
v 0.092346 0.527893 0.905912
v 0.105487 0.443443 0.901727
v 0.289601 0.345387 0.864501
v 0.279809 0.120311 0.872324
v -0.011970 0.279187 0.854897
v 0.127699 0.329926 0.823752
v 0.021511 0.414453 0.871034
v 0.085394 -0.514485 -0.751641
v 0.104536 -0.280804 -0.800159
v 0.044383 -0.214061 -0.770002
v 0.211384 0.192271 -0.342079
v 0.204767 0.521043 -0.283117
v 0.010805 0.622466 -0.413240
v -0.268229 0.542778 -0.559654
v -0.429215 0.267017 -0.421827
v -0.502338 0.152107 -0.464816
v -0.477606 -0.045460 -0.669982
v -0.342285 -0.076671 -0.727969
v -0.168718 0.039312 -0.759909
v -0.126423 0.150155 -0.612696
v -0.140740 0.208626 -0.562908
v -0.068011 0.180483 -0.573571
v -0.076965 0.260878 -0.546169
v -0.030654 0.293360 -0.512625
v -0.046875 0.577482 -0.534449
v 0.090883 0.281017 -0.351660
v 0.131683 -0.067341 -0.696602
v 0.024078 0.167127 -0.474261
v -0.081961 0.115350 -0.705260
v -0.239002 -0.096027 -0.763297
v -0.679594 0.007959 -0.630605
v -0.556945 -0.144820 -0.665282
v -0.181387 -0.409891 -0.645088
v -0.034224 -0.681793 -0.590289
v 0.012521 -0.351861 -0.778492
v -0.090847 -0.236015 -0.763756
v 0.105519 -0.102185 -0.739966
v -0.019556 0.101512 -0.682420
v -0.121522 0.005968 -0.781059
v -0.199124 -0.314310 -0.698357
v -0.069522 0.037261 -0.772241
v 0.027589 0.468060 -0.371066
v -0.272016 0.337820 -0.480035
v -0.311332 0.181719 -0.479343
v -0.147415 0.278327 -0.570569
v -0.143140 0.388618 -0.604446
v -0.078599 0.405871 -0.596727
v -0.246203 0.078407 -0.576744
v -0.355547 0.021129 -0.571272
v -0.526291 -0.181480 -0.532923
v -0.957406 0.040326 -0.408755
v -0.867346 -0.013654 -0.562277
v -0.843379 -0.114126 -0.402800
v -0.851456 -0.176541 -0.315680
v -0.710772 -0.258596 -0.211043
v -0.643962 -0.325525 -0.057921
v -0.535770 -0.286507 -0.099734
v -0.730453 -0.327107 -0.033277
v -0.826262 -0.272791 -0.228389
v -0.950599 -0.246579 -0.214110
v -0.939400 -0.105171 -0.266264
v -0.821575 -0.311330 -0.105475
v -1.064842 -0.103939 -0.236668
v -1.049220 -0.043903 -0.295362
v -0.453719 -0.198673 -0.255990
v -0.446521 -0.182858 -0.347474
v -0.687814 -0.175757 -0.294917
v -0.559411 -0.242621 -0.173405
v -0.066113 -0.567680 0.528265
vn -0.0221 0.9981 0.0578
vn 0.4355 0.8892 -0.1399
vn 0.0469 0.9428 0.3302
vn 0.6334 0.7204 0.2826
vn 0.8651 0.3189 0.3870
vn 0.9832 0.0474 0.1762
vn -0.2235 0.4855 0.8452
vn -0.4072 0.5468 0.7316
vn -0.4141 0.6452 0.6420
vn 0.7414 0.6676 0.0675
vn 0.6532 0.6628 -0.3661
vn 0.4351 0.5752 -0.6927
vn 0.4115 -0.4934 0.7663
vn 0.6460 0.0489 0.7618
vn 0.2171 -0.0743 0.9733
vn 0.4669 0.1531 0.8709
vn 0.4972 0.8479 0.1839
vn 0.6964 0.5793 0.4237
vn 0.8579 0.4720 -0.2031
vn -0.4518 -0.4635 0.7623
vn -0.5061 -0.7707 0.3872
vn 0.0444 -0.6888 0.7236
vn 0.2505 -0.7807 0.5725
vn -0.1964 -0.7651 0.6132
vn -0.4636 -0.8085 0.3626
vn 0.1470 -0.9045 0.4004
vn -0.3433 0.9392 -0.0041
vn -0.6328 0.7703 -0.0789
vn -0.3708 0.9028 -0.2178
vn -0.0866 0.9779 -0.1902
vn -0.1092 0.9926 -0.0534
vn 0.0355 0.9786 0.2026
vn -0.3005 0.8561 -0.4206
vn 0.9752 0.0885 0.2027
vn 0.9806 -0.0041 0.1957
vn 0.9277 0.3400 -0.1543
vn -0.6223 0.7330 0.2747
vn -0.5770 0.8081 0.1184
vn -0.5387 0.7602 0.3632
vn -0.3541 0.9335 0.0570
vn 0.0681 0.9678 0.2423
vn 0.8518 -0.4991 -0.1591
vn 0.8365 -0.3951 -0.3796
vn 0.8634 -0.3578 -0.3556
vn 0.8563 -0.3431 -0.3861
vn 0.5610 -0.8266 -0.0455
vn 0.6400 -0.7123 -0.2883
vn 0.7854 -0.6013 -0.1469
vn 0.2758 -0.3865 0.8801
vn -0.0223 -0.0849 0.9961
vn 0.1485 -0.6253 0.7661
vn -0.7977 -0.2570 -0.5456
vn -0.8498 0.2344 -0.4722
vn -0.7803 -0.0049 -0.6254
vn -0.4745 0.4706 0.7439
vn -0.4989 0.7366 0.4566
vn -0.7947 0.1839 0.5784
vn -0.9129 -0.1462 0.3811
vn -0.8477 -0.2958 0.4403
vn -0.8902 0.2174 0.4002
vn -0.2352 0.2950 -0.9261
vn -0.1311 0.5901 -0.7967
vn 0.0064 0.5695 -0.8220
vn 0.3751 -0.8203 -0.4317
vn 0.3486 -0.6809 -0.6441
vn 0.1755 -0.7438 -0.6450
vn -0.0564 0.1141 0.9919
vn 0.2010 -0.9713 0.1271
vn -0.0528 -0.9896 -0.1338
vn 0.4051 -0.9034 -0.1403
vn -0.5044 -0.8199 0.2707
vn -0.7434 -0.5704 -0.3494
vn -0.3270 -0.9322 -0.1552
vn 0.8362 0.4552 0.3060
vn 0.7762 0.6180 0.1249
vn 0.7629 0.6221 0.1762
vn 0.8801 0.2460 0.4062
vn -0.6871 0.7265 0.0063
vn -0.4739 0.8731 0.1150
vn 0.4044 0.6422 -0.6512
vn 0.6435 0.4160 -0.6425
vn 0.4781 0.6704 -0.5675
vn -0.6756 0.7333 -0.0767
vn -0.5338 0.8072 -0.2518
vn -0.3838 0.9005 0.2044
vn 0.0808 0.9958 0.0429
vn 0.4409 0.8579 0.2638
vn 0.5909 0.8031 0.0765
vn -0.2470 0.9656 0.0816
vn -0.5840 0.7998 0.1390
vn -0.5537 0.8322 0.0295
vn 0.6495 -0.5817 -0.4896
vn 0.9147 -0.1693 -0.3669
vn 0.6441 -0.7241 -0.2465
vn -0.7815 -0.4105 0.4698
vn -0.7727 -0.6005 0.2057
vn -0.2884 -0.9016 0.3225
vn -0.8290 -0.5306 0.1766
vn -0.4998 -0.6461 -0.5768
vn -0.7425 -0.4417 -0.5036
vn -0.6974 -0.6811 -0.2231
vn -0.7401 -0.5060 -0.4430
vn -0.5363 -0.7190 -0.4421
vn -0.1146 -0.8865 0.4484
vn -0.5922 -0.4768 0.6495
vn -0.2037 -0.7141 0.6698
vn -0.6350 -0.6680 0.3879
vn -0.3198 -0.4873 0.8126
vn -0.0370 -0.7346 0.6775
vn -0.3819 0.1857 0.9054
vn -0.0724 0.1348 0.9882
vn -0.4381 -0.3304 0.8360
vn -0.3332 0.3006 0.8937
vn 0.2495 -0.5961 0.7632
vn -0.7066 -0.7052 -0.0578
vn -0.3824 -0.5676 0.7291
vn -0.2893 -0.9562 0.0435
vn -0.5630 -0.8123 -0.1526
vn -0.6279 -0.7783 -0.0021
vn -0.6865 -0.6568 -0.3120
vn -0.1242 -0.6968 0.7064
vn -0.2849 -0.6950 0.6602
vn -0.4639 -0.6497 0.6023
vn -0.5317 -0.7791 0.3322
vn 0.2029 -0.9633 0.1756
vn 0.2276 -0.8095 0.5413
vn -0.7052 0.1199 0.6988
vn -0.7798 -0.0070 0.6259
vn -0.3771 -0.2142 0.9011
vn 0.0266 -0.0502 0.9984
vn -0.3832 -0.8365 0.3917
vn -0.0907 -0.9020 0.4222
vn -0.4976 -0.8113 0.3068
vn -0.1916 -0.9814 0.0145
vn -0.8191 -0.5542 -0.1481
vn -0.9322 -0.2801 -0.2291
vn -0.4887 -0.8273 0.2771
vn -0.1631 -0.6743 0.7202
vn -0.1909 -0.6572 0.7291
vn -0.3774 -0.5701 0.7297
vn -0.5808 -0.8096 0.0845
vn -0.5266 -0.7676 -0.3653
vn -0.3532 -0.5888 -0.7270
vn -0.5133 -0.8210 -0.2498
vn -0.6481 -0.6191 0.4435
vn -0.3808 -0.8612 0.3367
vn -0.8321 -0.1216 0.5412
vn -0.6493 -0.4182 0.6352
vn 0.0235 -0.4896 0.8716
vn -0.2377 -0.5621 0.7922
vn -0.5450 -0.3909 0.7418
vn -0.9428 -0.3264 0.0681
vn -0.9513 -0.0730 0.2997
vn -0.9151 -0.3862 0.1159
vn -0.8426 -0.2269 0.4884
vn -0.8031 -0.4880 0.3418
vn -0.6695 -0.6246 -0.4020
vn -0.5072 -0.8267 0.2434
vn -0.8103 -0.5243 0.2618
vn -0.7235 -0.0151 0.6901
vn -0.5081 -0.3174 0.8007
vn -0.9618 -0.0885 0.2589
vn -0.8964 -0.1918 0.3996
vn -0.2958 -0.3521 0.8880
vn -0.6614 -0.7498 -0.0172
vn -0.7864 -0.5880 -0.1893
vn -0.8329 -0.4435 -0.3309
vn 0.3904 -0.8905 0.2337
vn 0.4012 -0.5185 0.7551
vn 0.4876 -0.5121 0.7071
vn 0.3760 -0.7542 0.5384
vn 0.5506 -0.5695 0.6103
vn 0.5062 -0.5348 0.6766
vn 0.3432 -0.8197 0.4585
vn 0.3576 -0.8628 0.3573
vn -0.6554 -0.4235 0.6254
vn -0.4544 -0.5356 0.7118
vn -0.3198 -0.5124 0.7970
vn -0.5559 -0.3364 0.7602
vn -0.7206 -0.2976 0.6262
vn -0.8614 -0.3048 0.4063
vn 0.3222 -0.6716 0.6672
vn -0.2795 -0.1542 0.9477
vn -0.5719 0.0279 0.8198
vn -0.7996 -0.2389 0.5510
vn -0.8519 0.0607 0.5201
vn -0.9468 -0.2464 -0.2068
vn -0.9611 -0.1502 -0.2316
vn -0.7833 -0.4884 -0.3847
vn -0.5954 -0.7065 -0.3824
vn -0.4094 -0.9008 -0.1450
vn -0.8180 -0.5752 -0.0055
vn -0.4840 -0.7066 -0.5162
vn -0.3790 -0.9253 0.0103
vn -0.1119 -0.9874 -0.1116
vn -0.4910 -0.7930 -0.3606
vn -0.1225 -0.9714 -0.2033
vn 0.8316 -0.5547 0.0268
vn 0.5625 -0.7408 0.3672
vn 0.5178 -0.5753 0.6332
vn 0.6653 -0.6822 0.3031
vn 0.4677 -0.7295 0.4991
vn 0.2598 -0.7269 0.6356
vn -0.3229 -0.2110 0.9226
vn -0.7568 -0.5136 0.4043
vn -0.0803 -0.5872 0.8054
vn 0.2467 -0.8481 0.4689
vn -0.8883 0.3967 0.2315
vn -0.5860 0.7353 0.3405
vn -0.7177 0.6884 0.1053
vn -0.5891 0.6163 0.5226
vn -0.8860 0.4619 0.0405
vn -0.7490 0.4669 0.4702
vn -0.9718 -0.1465 0.1846
vn -0.5152 0.5781 0.6327
vn -0.9017 0.3620 -0.2366
vn -0.9133 0.1234 -0.3882
vn -0.3117 0.7623 -0.5672
vn -0.5197 0.3668 -0.7716
vn -0.4720 0.3234 -0.8201
vn -0.5723 0.1129 -0.8123
vn -0.3624 -0.0280 -0.9316
vn -0.6283 -0.4849 -0.6084
vn -0.4554 -0.5067 -0.7321
vn -0.4597 -0.7603 -0.4590
vn -0.4867 -0.8654 -0.1196
vn -0.5904 -0.6858 -0.4256
vn -0.6737 -0.7329 0.0946
vn -0.8446 -0.5207 -0.1249
vn -0.8617 -0.4886 -0.1372
vn -0.6897 -0.5627 -0.4556
vn -0.2456 -0.6239 -0.7419
vn 0.1736 -0.9265 -0.3338
vn 0.8091 -0.5788 -0.1019
vn 0.9112 -0.4096 0.0441
vn 0.3445 -0.6350 0.6915
vn 0.6896 -0.6438 0.3317
vn 0.7649 -0.5956 0.2453
vn 0.7139 -0.6598 0.2347
vn 0.4840 -0.6694 0.5636
vn 0.1607 0.3380 0.9273
vn -0.1678 0.0481 0.9846
vn -0.1375 -0.1695 0.9759
vn -0.5043 -0.2997 0.8099
vn -0.3359 -0.1688 0.9266
vn -0.5030 -0.7116 0.4905
vn -0.2006 -0.8174 0.5401
vn -0.3477 -0.3080 0.8856
vn -0.2871 -0.0807 0.9545
vn -0.3459 0.4491 0.8238
vn -0.3076 0.6406 0.7036
vn -0.4144 0.7285 0.5454
vn -0.3932 0.6961 0.6007
vn -0.3489 0.8284 0.4381
vn -0.1369 0.4806 -0.8662
vn 0.0638 0.3231 -0.9442
vn -0.6193 0.6687 -0.4114
vn -0.3845 0.7229 -0.5741
vn -0.2102 0.5696 -0.7946
vn -0.3715 0.7993 -0.4722
vn 0.3185 0.5338 -0.7833
vn 0.2607 0.8254 -0.5007
vn 0.3261 0.6374 -0.6981
vn 0.3213 0.3983 -0.8591
vn 0.4153 0.0521 -0.9082
vn 0.1510 0.0120 -0.9885
vn 0.3092 -0.0760 -0.9479
vn -0.3017 0.6818 -0.6664
vn 0.0183 0.7957 -0.6054
vn 0.1392 0.5325 -0.8349
vn 0.2093 0.4054 -0.8899
vn 0.4771 0.6832 -0.5528
vn 0.2477 0.7538 -0.6086
vn 0.1895 0.2500 -0.9495
vn 0.1668 0.0549 -0.9845
vn 0.1340 -0.5534 -0.8221
vn 0.0394 -0.2397 -0.9701
vn 0.1981 -0.2136 -0.9566
vn 0.3996 -0.6728 -0.6226
vn 0.6191 -0.5589 -0.5516
vn 0.6642 -0.7416 -0.0942
vn 0.3584 -0.7261 0.5867
vn 0.7854 -0.4191 0.4556
vn -0.3890 0.8906 0.2354
vn -0.3255 0.9017 0.2844
vn -0.2115 0.9132 0.3484
vn 0.0791 0.9581 -0.2755
vn -0.3515 0.9197 -0.1750
vn -0.0186 0.9989 0.0442
vn -0.4884 0.8626 -0.1316
vn -0.3167 0.8627 0.3943
vn 0.3052 0.8542 0.4210
vn 0.1914 0.9287 0.3177
vn -0.7060 0.7061 0.0557
vn -0.6164 0.7835 -0.0786
vn -0.5430 0.7732 0.3277
vn -0.5071 0.8205 0.2638
vn 0.1926 0.7893 -0.5831
vn 0.5763 0.7397 -0.3474
vn 0.4277 0.5565 -0.7123
vn 0.0745 0.2143 -0.9739
vn -0.1578 0.5374 -0.8285
vn 0.0102 0.7336 -0.6795
vn 0.6551 -0.5079 -0.5593
vn 0.5829 -0.6688 -0.4614
vn 0.3859 -0.4654 -0.7966
vn 0.8142 -0.5771 0.0628
vn 0.7438 -0.6590 0.1113
vn 0.3478 -0.8643 -0.3634
vn 0.5242 -0.5132 -0.6796
vn 0.0607 -0.7251 0.6860
vn -0.0069 -0.8702 0.4926
vn 0.3213 -0.5596 0.7639
vn 0.2144 -0.9363 0.2781
vn 0.5484 -0.7976 0.2512
vn 0.5831 -0.7823 0.2190
vn 0.3890 -0.8664 0.3131
vn 0.9473 -0.0653 0.3135
vn -0.1154 0.9669 0.2275
vn 0.0836 0.8452 0.5279
vn 0.1853 0.8054 -0.5630
vn 0.2726 0.9022 -0.3344
vn -0.1123 0.7012 -0.7041
vn -0.0311 0.4179 -0.9080
vn 0.3536 -0.0091 -0.9353
vn 0.7131 -0.5394 -0.4478
vn 0.5218 -0.1486 -0.8400
vn 0.3998 0.0476 -0.9154
vn 0.7909 -0.6061 -0.0842
vn 0.7938 -0.5502 0.2589
vn 0.4612 -0.8816 -0.1006
vn -0.0569 -0.9925 0.1080
vn 0.1273 -0.9565 0.2625
vn 0.3181 -0.8175 0.4802
vn -0.0916 -0.9528 0.2893
vn -0.2717 -0.8470 0.4569
vn 0.8560 -0.0251 0.5163
vn 0.7267 -0.5247 0.4435
vn 0.9876 -0.1276 0.0919
vn 0.8437 0.3371 0.4179
vn 0.5136 0.8578 -0.0216
vn 0.2242 0.9688 0.1057
vn 0.3591 0.8354 0.4160
vn 0.4445 0.8958 0.0023
vn 0.3816 0.9034 0.1955
vn 0.8651 0.3016 0.4008
vn 0.5110 0.5910 0.6241
vn 0.9562 0.2212 0.1917
vn 0.6396 0.0828 -0.7642
vn 0.6430 -0.7579 0.1100
vn 0.3397 -0.8306 -0.4412
vn 0.7187 -0.5934 -0.3624
vn 0.6839 -0.7289 -0.0315
vn 0.9800 -0.1989 -0.0097
vn 0.5081 -0.3323 0.7946
vn 0.6327 0.2743 0.7242
vn 0.6918 0.7199 0.0567
vn 0.8828 0.1686 0.4384
vn 0.7323 0.2907 0.6158
vn 0.9490 -0.2923 -0.1185
vn 0.8647 -0.0472 0.5001
vn 0.7581 -0.2572 0.5993
vn 0.9695 -0.1602 0.1853
vn 0.5890 0.4519 0.6700
vn 0.6491 0.0459 0.7594
vn 0.5520 0.4728 0.6869
vn 0.2814 -0.9372 0.2059
vn 0.1302 -0.7106 0.6914
vn 0.5817 -0.6819 0.4433
vn 0.3373 0.6053 -0.7210
vn 0.5433 0.7910 -0.2812
vn -0.1627 0.8616 -0.4809
vn 0.4804 0.8572 -0.1853
vn 0.8676 0.4969 0.0184
vn 0.6560 0.6343 0.4091
vn 0.6685 0.5772 0.4690
vn 0.8586 0.4315 0.2768
vn 0.8801 0.2761 0.3863
vn 0.9102 0.3217 0.2609
vn 0.6493 0.4451 0.6167
vn 0.4222 0.8345 0.3540
vn 0.3288 0.6443 0.6905
vn 0.5557 0.7960 0.2398
vn 0.5937 0.7049 0.3880
vn 0.6668 0.7172 0.2024
vn 0.9038 0.4167 0.0972
vn 0.7983 0.4846 0.3577
vn 0.8629 0.2527 0.4377
vn 0.9670 0.1995 0.1586
vn 0.3270 0.6923 0.6432
vn 0.4527 0.5143 0.7284
vn 0.2736 0.9072 0.3196
vn 0.4216 0.8989 -0.1197
vn 0.6027 0.6458 -0.4688
vn 0.8187 0.5640 0.1082
vn 0.8436 0.4913 0.2165
vn 0.8859 0.4223 0.1918
vn 0.6779 0.1983 0.7079
vn 0.8891 0.2703 0.3693
vn 0.4462 0.6263 0.6393
vn 0.1171 0.9653 0.2336
vn 0.3005 0.8614 -0.4094
vn 0.8373 0.1067 0.5362
vn 0.6356 0.3116 0.7063
vn 0.7025 0.6693 0.2418
vn 0.0214 0.9896 -0.1422
vn 0.4059 0.9139 -0.0081
vn 0.6502 0.6079 -0.4557
vn -0.1825 -0.8496 0.4948
vn 0.3302 0.0272 -0.9435
vn 0.1589 0.3832 -0.9099
vn -0.4096 0.5420 -0.7338
vn 0.1410 0.9681 -0.2073
vn -0.1169 0.9875 -0.1053
vn -0.0711 0.9815 -0.1779
vn 0.2355 0.8314 -0.5034
vn -0.6217 0.7603 -0.1882
vn -0.2623 0.8846 -0.3857
vn -0.0307 0.8055 -0.5918
vn -0.3925 0.4593 -0.7969
vn 0.5133 -0.7485 0.4198
vn 0.0643 0.5452 -0.8358
vn -0.2537 0.2152 -0.9430
vn 0.0484 0.0023 -0.9988
vn 0.2698 0.8276 -0.4922
vn 0.0552 0.8892 0.4541
vn -0.6429 0.7517 -0.1472
vn -0.5909 0.7623 -0.2642
vn -0.5086 0.8428 -0.1763
vn -0.6534 0.7422 -0.1490
vn -0.5643 0.8243 -0.0460
vn -0.4463 0.7806 -0.4375
vn -0.4399 0.7991 -0.4098
vn -0.1273 0.9600 0.2493
vn 0.0186 0.9707 -0.2394
vn 0.1685 0.9787 0.1172
vn -0.0251 0.9462 0.3227
vn -0.1097 0.9573 0.2675
vn -0.5338 0.8326 -0.1480
vn -0.8030 0.5899 -0.0846
vn -0.7840 0.5549 -0.2783
vn -0.4499 0.1033 -0.8871
vn -0.1280 0.3855 -0.9138
vn -0.3443 0.9382 -0.0337
vn 0.2415 0.8906 -0.3853
vn 0.0831 0.8029 -0.5903
vn -0.4555 0.8899 0.0222
vn -0.3377 0.8897 -0.3071
vn 0.1132 0.5567 -0.8229
vn -0.3775 0.8864 -0.2681
vn -0.7001 0.6912 0.1794
vn -0.4504 0.8648 0.2221
vn -0.4670 0.6674 0.5800
vn -0.4237 0.8998 0.1038
vn -0.2006 0.9790 0.0358
vn -0.2473 0.7964 0.5519
vn -0.1908 0.8818 0.4314
vn -0.1204 0.9412 -0.3157
vn -0.3183 0.9472 -0.0402
vn -0.5793 0.8121 -0.0701
vn -0.4203 0.8921 -0.1657
vn -0.3383 0.8948 -0.2915
vn -0.2820 0.9563 -0.0774
vn -0.3905 0.5297 0.7530
vn -0.3473 0.3443 0.8723
vn -0.3426 0.2427 0.9076
vn -0.4338 0.5596 0.7062
vn -0.1910 0.3882 0.9016
vn 0.2571 0.2226 0.9404
vn 0.1523 0.8195 0.5524
vn -0.0891 -0.2078 0.9741
vn 0.4608 0.3692 0.8070
vn -0.1942 0.3032 0.9329
vn 0.2165 -0.0599 0.9745
vn 0.0406 -0.4353 0.8994
vn 0.1352 -0.0549 0.9893
vn -0.2712 0.6751 0.6861
vn -0.1279 0.8777 0.4618
vn -0.2493 0.8096 0.5314
vn -0.0099 0.6088 -0.7933
vn -0.1307 -0.2893 0.9483
vn -0.2000 -0.1396 0.9698
vn -0.1011 0.3913 0.9147
vn -0.2894 -0.1150 0.9503
vn -0.0059 0.1100 -0.9939
vn -0.0055 0.2298 -0.9732
vn 0.2694 0.4024 -0.8749
vn 0.3065 0.0856 -0.9480
vn 0.7291 0.2741 -0.6271
vn -0.0906 0.1125 -0.9895
vn 0.2230 0.4208 -0.8793
vn 0.0345 0.6303 -0.7756
vn -0.0343 0.6481 -0.7608
vn -0.3092 0.5141 -0.8000
vn -0.3072 -0.0477 -0.9504
vn 0.7224 0.0194 -0.6912
vn 0.5620 0.2826 -0.7774
vn 0.7598 0.0105 -0.6500
vn 0.3920 0.4543 -0.8000
vn 0.4641 -0.0196 -0.8855
vn -0.2064 -0.0368 -0.9778
vn -0.5559 -0.5365 -0.6349
vn -0.2486 -0.3904 -0.8864
vn -0.2691 -0.1942 -0.9433
vn -0.1888 -0.1423 -0.9716
vn -0.0659 0.1636 -0.9843
vn -0.3545 0.5555 -0.7521
vn -0.3274 -0.4242 -0.8443
vn 0.2108 0.4090 -0.8879
vn 0.0259 0.8008 -0.5983
vn 0.5272 0.6974 -0.4854
vn -0.3521 -0.5155 -0.7812
vn -0.4860 -0.1040 -0.8678
vn -0.3577 0.3196 -0.8774
vn -0.1944 -0.1967 -0.9610
vn -0.1805 -0.1706 -0.9687
vn -0.5730 0.0813 -0.8155
vn 0.3820 0.1490 -0.9121
vn 0.5404 -0.0787 -0.8377
vn -0.4569 0.6563 -0.6004
vn -0.2554 0.7375 -0.6252
vn -0.1933 0.2681 -0.9438
vn -0.6608 -0.7467 -0.0759
vn -0.3696 -0.9280 -0.0464
vn -0.2176 -0.9441 -0.2478
vn 0.1438 -0.8550 -0.4982
vn -0.0559 -0.8434 -0.5344
vn -0.3836 -0.6542 -0.6518
vn 0.2243 -0.8642 -0.4504
vn -0.0487 -0.7537 -0.6554
vn -0.0657 -0.7621 -0.6441
vn -0.1764 -0.7223 -0.6687
vn -0.4328 -0.5071 -0.7453
vn -0.6389 -0.5695 -0.5172
vn -0.6358 -0.6644 -0.3929
vn -0.2618 -0.9651 -0.0040
vn -0.5531 -0.5100 -0.6588
vn -0.4226 -0.6489 -0.6327
vn -0.6675 -0.5997 -0.4414
vn -0.3730 -0.8408 -0.3923
vn -0.0642 -0.9865 -0.1507
vn 0.0733 -0.7283 -0.6813
vn -0.3612 -0.9310 -0.0523
vn -0.6899 0.7237 0.0135
vn -0.8538 -0.4186 0.3094
vn -0.2206 -0.6956 0.6837
vn -0.4310 -0.7818 0.4507
vn 0.3741 -0.7617 0.5289
vn -0.3934 -0.4131 0.8213
vn -0.4330 -0.4631 0.7733
vn 0.9129 0.3923 0.1126
vn -0.3797 0.8081 -0.4504
vn 0.9099 -0.2367 0.3407
vn -0.3164 -0.7571 0.5716
vn -0.3567 -0.0956 0.9293
vn -0.6809 -0.7016 0.2102
vn -0.6567 -0.5082 0.5572
vn -0.3614 -0.7186 0.5942
vn -0.5487 -0.5299 -0.6467
vn -0.9197 0.3417 -0.1932
vn 0.2028 0.8449 0.4949
vn -0.0498 0.8597 0.5083
vn -0.5094 -0.6558 -0.5572
vn -0.5358 0.8379 0.1044
vn 0.5331 0.6511 0.5403
vn -0.2039 0.9198 -0.3352
vn -0.1362 0.3797 -0.9150
vn -0.4291 0.4769 -0.7671
vn 0.8544 0.4460 0.2665
vn 0.4264 -0.9043 -0.0196
vn 0.9501 -0.2506 0.1858
vn 0.2564 0.7028 -0.6635
vn -0.3217 0.7497 -0.5783
vn 0.7745 0.2374 -0.5864
vn -0.6806 -0.4896 -0.5450
vt 0.045578 0.162027
vt 0.035911 0.129530
vt 0.060096 0.142946
vt 0.888889 0.542116
vt 0.863353 0.544290
vt 0.841559 0.524583
vt 0.374024 0.378520
vt 0.358554 0.403095
vt 0.344290 0.378351
vt 0.748122 0.384717
vt 0.728905 0.352483
vt 0.751915 0.359454
vt 0.319612 0.478915
vt 0.266395 0.481754
vt 0.338227 0.430098
vt 0.305958 0.421971
vt 0.646573 0.302124
vt 0.597569 0.308204
vt 0.614282 0.264350
vt 0.051120 0.780142
vt 0.032505 0.785673
vt 0.042765 0.761133
vt 0.020095 0.756999
vt 0.943027 0.454018
vt 0.944085 0.430224
vt 0.970062 0.459076
vt 0.261031 0.692251
vt 0.301847 0.724534
vt 0.265629 0.724959
vt 0.653854 0.717142
vt 0.655803 0.695109
vt 0.677012 0.693223
vt 0.701711 0.705644
vt 0.953488 0.665716
vt 0.951655 0.703957
vt 0.927274 0.654626
vt 0.222801 0.114367
vt 0.231782 0.060732
vt 0.268175 0.114025
vt 0.260523 0.059998
vt 0.285978 0.084993
vt 0.307077 0.852540
vt 0.274789 0.902651
vt 0.271587 0.873820
vt 0.324488 0.880256
vt 0.106754 0.457074
vt 0.057469 0.496430
vt 0.078722 0.441227
vt 0.386821 0.447260
vt 0.412663 0.437126
vt 0.440374 0.498453
vt 0.556779 0.694400
vt 0.537028 0.718834
vt 0.520735 0.672519
vt 0.238685 0.302817
vt 0.234391 0.322881
vt 0.197873 0.283701
vt 0.141743 0.264511
vt 0.179025 0.252021
vt 0.148624 0.274526
vt 0.700741 0.829203
vt 0.675601 0.810364
vt 0.711793 0.815880
vt 0.379007 0.904898
vt 0.364083 0.870010
vt 0.393603 0.865462
vt 0.312982 0.401782
vt 0.159033 0.471751
vt 0.185074 0.478993
vt 0.109829 0.500133
vt 0.428941 0.110610
vt 0.450635 0.110873
vt 0.454990 0.142845
vt 0.722907 0.457382
vt 0.762604 0.442691
vt 0.753348 0.475857
vt 0.722857 0.491934
vt 0.290682 0.769345
vt 0.322819 0.767284
vt 0.528316 0.988596
vt 0.524093 0.964408
vt 0.541180 0.951763
vt 0.154634 0.230607
vt 0.145574 0.245182
vt 0.138078 0.208641
vt 0.120341 0.235393
vt 0.080596 0.222265
vt 0.060871 0.254017
vt 0.027378 0.176294
vt 0.154229 0.071322
vt 0.152575 0.117284
vt 0.122868 0.127727
vt 0.800276 0.394454
vt 0.839329 0.406958
vt 0.815907 0.431365
vt 0.141362 0.543226
vt 0.177959 0.531156
vt 0.170742 0.550024
vt 0.211888 0.554418
vt 0.446127 0.066768
vt 0.492284 0.070490
vt 0.430976 0.074282
vt 0.503029 0.123843
vt 0.476428 0.137960
vt 0.267452 0.462618
vt 0.233641 0.477935
vt 0.254424 0.449626
vt 0.564795 0.802508
vt 0.534222 0.781420
vt 0.552801 0.753874
vt 0.539936 0.815591
vt 0.531575 0.801382
vt 0.544291 0.832720
vt 0.515659 0.858441
vt 0.496313 0.853420
vt 0.549852 0.855529
vt 0.314347 0.028782
vt 0.287967 0.017686
vt 0.323836 0.024751
vt 0.907449 0.966381
vt 0.932043 0.928166
vt 0.944546 0.961414
vt 0.966957 0.934863
vt 0.506820 0.801306
vt 0.496542 0.830091
vt 0.420208 0.107177
vt 0.416207 0.070490
vt 0.498732 0.184249
vt 0.214916 0.461706
vt 0.238990 0.418814
vt 0.572678 0.822211
vt 0.878842 0.448545
vt 0.891547 0.484019
vt 0.871755 0.491289
vt 0.898931 0.500062
vt 0.269234 0.024529
vt 0.275894 0.042176
vt 0.878889 0.928396
vt 0.898675 0.920136
vt 0.903537 0.942034
vt 0.940731 0.904603
vt 0.319829 0.011271
vt 0.479829 0.814232
vt 0.489024 0.756278
vt 0.516656 0.746938
vt 0.950562 0.133657
vt 0.931040 0.116609
vt 0.945895 0.114851
vt 0.935616 0.110695
vt 0.414438 0.026067
vt 0.433345 0.020091
vt 0.461818 0.013379
vt 0.529432 0.155047
vt 0.948588 0.243896
vt 0.946858 0.202552
vt 0.962275 0.207923
vt 0.599945 0.813883
vt 0.586196 0.851969
vt 0.900477 0.446766
vt 0.926336 0.497627
vt 0.871004 0.894463
vt 0.883086 0.877591
vt 0.959836 0.880211
vt 0.935352 0.879183
vt 0.343890 0.016096
vt 0.360167 0.003624
vt 0.370641 0.012652
vt 0.962564 0.847082
vt 0.615655 0.694587
vt 0.607249 0.673357
vt 0.641612 0.653970
vt 0.902981 0.823626
vt 0.895168 0.850809
vt 0.867729 0.840011
vt 0.928198 0.825174
vt 0.914592 0.864043
vt 0.478960 0.758190
vt 0.493575 0.722079
vt 0.476650 0.726608
vt 0.934259 0.129320
vt 0.740157 0.591047
vt 0.743129 0.569521
vt 0.754354 0.578511
vt 0.545887 0.136737
vt 0.537005 0.079815
vt 0.136976 0.446932
vt 0.122722 0.373693
vt 0.155992 0.376680
vt 0.181873 0.414690
vt 0.190656 0.364392
vt 0.218935 0.404586
vt 0.473875 0.567153
vt 0.498600 0.599069
vt 0.479434 0.611921
vt 0.955784 0.273182
vt 0.976340 0.282712
vt 0.993272 0.324946
vt 0.971140 0.350848
vt 0.945524 0.340679
vt 0.929992 0.320155
vt 0.949727 0.496221
vt 0.941793 0.507427
vt 0.299167 0.050397
vt 0.073937 0.760255
vt 0.221836 0.273848
vt 0.197651 0.264956
vt 0.218246 0.254210
vt 0.171078 0.271464
vt 0.202939 0.513151
vt 0.249902 0.526767
vt 0.554092 0.719393
vt 0.594739 0.687343
vt 0.619783 0.655691
vt 0.666745 0.652557
vt 0.678227 0.624999
vt 0.698840 0.624710
vt 0.744098 0.620923
vt 0.766636 0.590052
vt 0.721284 0.608913
vt 0.718470 0.585004
vt 0.710469 0.560243
vt 0.563295 0.185209
vt 0.528567 0.199106
vt 0.579546 0.180306
vt 0.580353 0.202785
vt 0.073249 0.376781
vt 0.101963 0.392658
vt 0.167468 0.336404
vt 0.448464 0.608049
vt 0.462931 0.639784
vt 0.430473 0.641554
vt 0.477560 0.534445
vt 0.460901 0.538736
vt 0.453680 0.486737
vt 0.987252 0.373950
vt 0.037818 0.636529
vt 0.009728 0.613042
vt 0.028513 0.597327
vt 0.989278 0.497436
vt 0.069615 0.715007
vt 0.047209 0.723429
vt 0.153280 0.285468
vt 0.183871 0.297901
vt 0.931030 0.101778
vt 0.922743 0.086746
vt 0.945862 0.097349
vt 0.937973 0.061957
vt 0.893787 0.064866
vt 0.896453 0.046680
vt 0.929035 0.069554
vt 0.951868 0.072890
vt 0.132697 0.283054
vt 0.919608 0.047159
vt 0.859774 0.047876
vt 0.827403 0.037255
vt 0.876440 0.036652
vt 0.763796 0.060318
vt 0.759324 0.043346
vt 0.802299 0.031374
vt 0.640167 0.750435
vt 0.643251 0.784629
vt 0.622651 0.782400
vt 0.648507 0.813003
vt 0.515953 0.576689
vt 0.522965 0.621498
vt 0.508796 0.632311
vt 0.522401 0.558303
vt 0.532423 0.606202
vt 0.644049 0.005629
vt 0.638412 0.063024
vt 0.615584 0.042369
vt 0.577341 0.066653
vt 0.592140 0.115695
vt 0.595866 0.152132
vt 0.604187 0.177481
vt 0.600250 0.207414
vt 0.101574 0.537220
vt 0.054045 0.465024
vt 0.062532 0.442900
vt 0.066328 0.399399
vt 0.077133 0.339558
vt 0.393915 0.644317
vt 0.405375 0.604342
vt 0.440006 0.587095
vt 0.426958 0.565407
vt 0.394615 0.502711
vt 0.482251 0.263842
vt 0.449393 0.308658
vt 0.418010 0.307281
vt 0.457881 0.250160
vt 0.088896 0.616960
vt 0.068248 0.608386
vt 0.084467 0.596232
vt 0.100191 0.645269
vt 0.054501 0.655629
vt 0.060141 0.686382
vt 0.096494 0.681008
vt 0.090709 0.715663
vt 0.252318 0.274907
vt 0.274001 0.322508
vt 0.278543 0.348108
vt 0.254006 0.351486
vt 0.302963 0.376999
vt 0.923470 0.095744
vt 0.668132 0.754179
vt 0.699862 0.779646
vt 0.775580 0.675982
vt 0.822765 0.658272
vt 0.831786 0.672931
vt 0.166802 0.020042
vt 0.162852 0.031151
vt 0.144911 0.008552
vt 0.143758 0.031102
vt 0.099387 0.063658
vt 0.031314 0.087989
vt 0.083204 0.058304
vt 0.430209 0.856462
vt 0.440268 0.893484
vt 0.415174 0.882609
vt 0.785411 0.258747
vt 0.802884 0.215137
vt 0.854293 0.254957
vt 0.816548 0.123104
vt 0.854696 0.132334
vt 0.801322 0.155477
vt 0.784564 0.140180
vt 0.741409 0.187142
vt 0.711428 0.205104
vt 0.727905 0.148287
vt 0.633783 0.195092
vt 0.677679 0.172207
vt 0.685299 0.197550
vt 0.651111 0.220344
vt 0.248921 0.866396
vt 0.339354 0.876913
vt 0.327251 0.907096
vt 0.302914 0.908784
vt 0.294957 0.519973
vt 0.264127 0.500453
vt 0.120423 0.256623
vt 0.358647 0.776145
vt 0.340961 0.741763
vt 0.367528 0.747737
vt 0.082540 0.185501
vt 0.105842 0.201419
vt 0.087534 0.162591
vt 0.100865 0.171567
vt 0.056146 0.156720
vt 0.071213 0.154642
vt 0.075341 0.143426
vt 0.233371 0.146850
vt 0.190063 0.144531
vt 0.189935 0.116478
vt 0.186807 0.078066
vt 0.053328 0.105628
vt 0.010523 0.110814
vt 0.785086 0.391269
vt 0.769635 0.368352
vt 0.796430 0.378107
vt 0.736603 0.338308
vt 0.782480 0.348422
vt 0.746004 0.255451
vt 0.767160 0.199940
vt 0.134921 0.852215
vt 0.167601 0.830890
vt 0.178724 0.841361
vt 0.019585 0.465513
vt 0.020293 0.515270
vt 0.259695 0.827335
vt 0.314307 0.817442
vt 0.373987 0.825074
vt 0.052656 0.337502
vt 0.031577 0.310804
vt 0.060705 0.341397
vt 0.092813 0.305429
vt 0.064385 0.317692
vt 0.121715 0.331542
vt 0.328478 0.572701
vt 0.379142 0.579095
vt 0.386691 0.535162
vt 0.342017 0.527223
vt 0.255914 0.494331
vt 0.415250 0.782758
vt 0.388197 0.782748
vt 0.398188 0.754056
vt 0.084326 0.259142
vt 0.013808 0.199154
vt 0.781581 0.405778
vt 0.678242 0.301669
vt 0.656291 0.291567
vt 0.653844 0.260722
vt 0.834020 0.356976
vt 0.803035 0.373815
vt 0.803465 0.358847
vt 0.054713 0.869576
vt 0.102503 0.873044
vt 0.054817 0.882684
vt 0.123547 0.830256
vt 0.136746 0.799206
vt 0.090982 0.821285
vt 0.357852 0.807721
vt 0.048845 0.300002
vt 0.313588 0.540268
vt 0.279109 0.563748
vt 0.304106 0.586635
vt 0.260595 0.617133
vt 0.272320 0.560435
vt 0.275771 0.529055
vt 0.709960 0.947496
vt 0.737441 0.950184
vt 0.712677 0.963950
vt 0.560451 0.449632
vt 0.573030 0.444118
vt 0.570206 0.474926
vt 0.592721 0.371901
vt 0.583942 0.393759
vt 0.567653 0.363763
vt 0.552124 0.332991
vt 0.572203 0.345242
vt 0.866504 0.392196
vt 0.869014 0.443149
vt 0.836606 0.383333
vt 0.049182 0.846659
vt 0.392428 0.809173
vt 0.817582 0.522797
vt 0.802323 0.563548
vt 0.783597 0.553875
vt 0.849254 0.453198
vt 0.812450 0.479734
vt 0.787378 0.441480
vt 0.680729 0.960285
vt 0.656037 0.965050
vt 0.656018 0.957174
vt 0.564334 0.412141
vt 0.557279 0.430291
vt 0.551696 0.406756
vt 0.835226 0.488237
vt 0.677755 0.922790
vt 0.673883 0.901703
vt 0.703557 0.918081
vt 0.786462 0.898454
vt 0.805412 0.913714
vt 0.778446 0.915985
vt 0.873926 0.579039
vt 0.853883 0.579854
vt 0.886934 0.555550
vt 0.646908 0.938268
vt 0.649967 0.909830
vt 0.624809 0.921384
vt 0.554342 0.385332
vt 0.541905 0.355987
vt 0.240810 0.652119
vt 0.237445 0.609668
vt 0.226305 0.626208
vt 0.857127 0.367456
vt 0.648879 0.246929
vt 0.629707 0.260226
vt 0.904563 0.578280
vt 0.881468 0.607488
vt 0.899723 0.564834
vt 0.649462 0.890049
vt 0.622039 0.894865
vt 0.671318 0.878624
vt 0.012215 0.245275
vt 0.751501 0.501133
vt 0.719113 0.394347
vt 0.718376 0.430239
vt 0.701854 0.356527
vt 0.666079 0.323909
vt 0.609095 0.326973
vt 0.621357 0.395490
vt 0.652033 0.391239
vt 0.628856 0.439822
vt 0.668618 0.414384
vt 0.648719 0.447525
vt 0.684048 0.394392
vt 0.696451 0.437025
vt 0.619828 0.366639
vt 0.664399 0.370878
vt 0.614713 0.460114
vt 0.597740 0.434277
vt 0.892338 0.649487
vt 0.872765 0.671420
vt 0.901924 0.713103
vt 0.938892 0.738177
vt 0.683041 0.470599
vt 0.663734 0.448547
vt 0.636325 0.476837
vt 0.609695 0.483655
vt 0.913281 0.614811
vt 0.973010 0.664649
vt 0.652960 0.491666
vt 0.668005 0.500185
vt 0.633174 0.500406
vt 0.929520 0.589084
vt 0.955511 0.605434
vt 0.950303 0.622802
vt 0.958287 0.635499
vt 0.916096 0.641510
vt 0.309071 0.648083
vt 0.295927 0.631070
vt 0.029991 0.276524
vt 0.134184 0.880007
vt 0.090808 0.886102
vt 0.756741 0.308434
vt 0.741887 0.312316
vt 0.059661 0.188312
vt 0.083505 0.131521
vt 0.061249 0.167970
vt 0.067585 0.179000
vt 0.157406 0.172078
vt 0.096640 0.114196
vt 0.079334 0.110970
vt 0.800783 0.299372
vt 0.435482 0.524195
vt 0.173189 0.912547
vt 0.120706 0.893554
vt 0.834446 0.318278
vt 0.885127 0.318664
vt 0.832408 0.172700
vt 0.306992 0.106488
vt 0.172444 0.198633
vt 0.216663 0.178596
vt 0.194929 0.209003
vt 0.172949 0.221268
vt 0.292592 0.791122
vt 0.264340 0.788589
vt 0.280598 0.148564
vt 0.287834 0.165473
vt 0.280063 0.192077
vt 0.295437 0.135292
vt 0.315653 0.162801
vt 0.327957 0.145566
vt 0.375254 0.142274
vt 0.320817 0.083867
vt 0.389719 0.116270
vt 0.813590 0.065821
vt 0.841189 0.055760
vt 0.803446 0.053943
vt 0.644720 0.732010
vt 0.770980 0.696360
vt 0.730537 0.724165
vt 0.182990 0.025112
vt 0.165171 0.051211
vt 0.125073 0.062211
vt 0.099856 0.086620
vt 0.227372 0.047258
vt 0.703208 0.689009
vt 0.368999 0.078615
vt 0.847058 0.075218
vt 0.774459 0.065637
vt 0.637131 0.724611
vt 0.787424 0.090713
vt 0.760266 0.080128
vt 0.699079 0.755124
vt 0.709970 0.741617
vt 0.270755 0.744291
vt 0.319522 0.713271
vt 0.302579 0.688244
vt 0.266970 0.678180
vt 0.213720 0.665791
vt 0.201934 0.679933
vt 0.173377 0.650824
vt 0.386943 0.169536
vt 0.422653 0.165508
vt 0.413309 0.187579
vt 0.894241 0.074206
vt 0.909285 0.082909
vt 0.398052 0.139389
vt 0.340668 0.180955
vt 0.227118 0.738067
vt 0.247148 0.768935
vt 0.195508 0.759769
vt 0.436981 0.146757
vt 0.151368 0.701374
vt 0.176267 0.718934
vt 0.156752 0.739637
vt 0.380227 0.213510
vt 0.340622 0.206675
vt 0.127190 0.687230
vt 0.129717 0.654241
vt 0.311793 0.357430
vt 0.335697 0.340029
vt 0.301582 0.303625
vt 0.331825 0.306840
vt 0.361609 0.315738
vt 0.385632 0.306356
vt 0.398062 0.375333
vt 0.337929 0.390717
vt 0.333464 0.409326
vt 0.414852 0.649847
vt 0.444320 0.651580
vt 0.417359 0.685986
vt 0.494729 0.374857
vt 0.504994 0.384630
vt 0.477791 0.399086
vt 0.518793 0.355807
vt 0.505125 0.320717
vt 0.524998 0.311691
vt 0.461838 0.342624
vt 0.457943 0.360029
vt 0.428698 0.339890
vt 0.395986 0.662055
vt 0.382467 0.688941
vt 0.345165 0.694588
vt 0.413831 0.663204
vt 0.446750 0.389183
vt 0.427802 0.375487
vt 0.438106 0.407781
vt 0.477947 0.332608
vt 0.481791 0.347835
vt 0.367054 0.423643
vt 0.705458 0.135456
vt 0.716985 0.113369
vt 0.851582 0.113633
vt 0.910056 0.292509
vt 0.475528 0.890808
vt 0.107206 0.043463
vt 0.760608 0.745463
vt 0.743458 0.777632
vt 0.756960 0.796044
vt 0.753805 0.842247
vt 0.788106 0.854113
vt 0.766308 0.859801
vt 0.450105 0.944879
vt 0.497751 0.932732
vt 0.494983 0.980163
vt 0.522884 0.910069
vt 0.513336 0.987909
vt 0.809922 0.858674
vt 0.699537 0.838708
vt 0.633012 0.085977
vt 0.653840 0.156125
vt 0.679766 0.124619
vt 0.692392 0.089046
vt 0.744400 0.055227
vt 0.706941 0.045538
vt 0.723221 0.036238
vt 0.660569 0.074403
vt 0.751203 0.068354
vt 0.740906 0.116530
vt 0.904284 0.098909
vt 0.914853 0.115009
vt 0.911551 0.126741
vt 0.844743 0.845077
vt 0.836232 0.836540
vt 0.857653 0.833299
vt 0.667713 0.026946
vt 0.855986 0.816527
vt 0.798838 0.732658
vt 0.788043 0.767938
vt 0.843652 0.715554
vt 0.836860 0.748170
vt 0.816093 0.686164
vt 0.851200 0.688891
vt 0.856934 0.718055
vt 0.803632 0.800462
vt 0.778075 0.811878
vt 0.856628 0.755224
vt 0.837971 0.768932
vt 0.950335 0.402832
vt 0.974728 0.425162
vt 0.036913 0.562830
vt 0.048778 0.550214
vt 0.443182 0.438983
vt 0.584155 0.023029
vt 0.561443 0.536873
vt 0.567022 0.589493
vt 0.605427 0.593453
vt 0.624863 0.632526
vt 0.594061 0.629219
vt 0.632032 0.605716
vt 0.646136 0.569833
vt 0.678163 0.600505
vt 0.667989 0.569160
vt 0.587124 0.660180
vt 0.567994 0.650014
vt 0.565966 0.626359
vt 0.651582 0.638325
vt 0.573991 0.685163
vt 0.665869 0.547247
vt 0.652393 0.513481
vt 0.629525 0.543298
vt 0.615012 0.511770
vt 0.603855 0.569284
vt 0.632966 0.574804
vt 0.610522 0.534535
vt 0.133585 0.296957
vt 0.086478 0.579939
vt 0.089238 0.568751
vt 0.112230 0.555018
vt 0.639765 0.825787
vt 0.626799 0.843075
vt 0.982849 0.253015
vt 0.969079 0.233630
vt 0.498712 0.621799
vt 0.236824 0.379235
vt 0.643380 0.679082
vt 0.847004 0.853630
vt 0.837311 0.892104
vt 0.700631 0.881190
vt 0.710364 0.894201
vt 0.137562 0.191780
vt 0.010719 0.277613
vt 0.244373 0.896667
vt 0.680942 0.009569
vt 0.569813 0.960295
vt 0.594783 0.943858
vt 0.598572 0.960244
vt 0.615789 0.862746
vt 0.575776 0.902326
vt 0.586463 0.871461
vt 0.147281 0.508716
vt 0.311075 0.785049
vt 0.199787 0.567754
vt 0.961210 0.131219
vt 0.373454 0.039149
vt 0.351522 0.062109
vt 0.347979 0.028494
vt 0.270304 0.007379
vt 0.479019 0.844617
vt 0.522142 0.726125
vt 0.507303 0.715922
vt 0.516627 0.716867
vt 0.494942 0.032698
vt 0.256280 0.405604
vt 0.253162 0.420032
vt 0.950142 0.160734
vt 0.961681 0.158623
vt 0.583877 0.779648
vt 0.875383 0.507118
vt 0.328314 0.057985
vt 0.010041 0.795796
vt 0.014963 0.777970
vt 0.027856 0.816544
vt 0.873987 0.957123
vt 0.848804 0.922230
vt 0.967709 0.921236
vt 0.501270 0.863077
vt 0.382555 0.022711
vt 0.481094 0.862654
vt 0.264720 0.382728
vt 0.962487 0.177826
vt 0.594546 0.795397
vt 0.129029 0.565073
vt 0.183877 0.516414
vt 0.247569 0.559693
vt 0.244399 0.581398
vt 0.408867 0.044595
vt 0.500958 0.015305
vt 0.542169 0.021583
vt 0.114675 0.545505
vt 0.482803 0.556879
vt 0.496184 0.578301
vt 0.909240 0.416033
vt 0.055536 0.806601
vt 0.047415 0.814779
vt 0.954593 0.812926
vt 0.763064 0.608089
vt 0.761080 0.627140
vt 0.725659 0.626994
vt 0.672676 0.522003
vt 0.933261 0.392577
vt 0.899036 0.377647
vt 0.991358 0.450678
vt 0.819093 0.017574
vt 0.406495 0.213789
vt 0.414560 0.228921
vt 0.409274 0.239969
vt 0.121525 0.297152
vt 0.962422 0.085175
vt 0.872393 0.049485
vt 0.417844 0.729492
vt 0.384135 0.716656
vt 0.767552 0.006066
vt 0.526152 0.534074
vt 0.528466 0.498911
vt 0.550567 0.506574
vt 0.429091 0.277703
vt 0.395365 0.235405
vt 0.870584 0.073516
vt 0.910190 0.346722
vt 0.047087 0.537581
vt 0.030368 0.452177
vt 0.338618 0.904625
vt 0.479521 0.655531
vt 0.450535 0.687868
vt 0.676861 0.854489
vt 0.699292 0.857611
vt 0.113516 0.095439
vt 0.828089 0.338254
vt 0.863529 0.337580
vt 0.091930 0.900932
vt 0.178274 0.884618
vt 0.188943 0.857370
vt 0.492049 0.679235
vt 0.465183 0.718993
vt 0.596339 0.916815
vt 0.662876 0.243282
vt 0.671620 0.252912
vt 0.005202 0.174398
vt 0.683229 0.272251
vt 0.289668 0.803288
vt 0.329114 0.783553
vt 0.798301 0.522612
vt 0.082821 0.286964
vt 0.263667 0.647203
vt 0.261843 0.582408
vt 0.560538 0.482365
vt 0.580578 0.293325
vt 0.362561 0.784327
vt 0.409807 0.859816
vt 0.827427 0.545623
vt 0.828516 0.576965
vt 0.617317 0.950063
vt 0.621428 0.964677
vt 0.742635 0.941503
vt 0.723623 0.913479
vt 0.861617 0.490534
vt 0.787715 0.414049
vt 0.706896 0.902117
vt 0.730117 0.907063
vt 0.754951 0.919621
vt 0.010000 0.850775
vt 0.015259 0.872571
vt 0.754349 0.901274
vt 0.017887 0.891511
vt 0.225409 0.654817
vt 0.868623 0.377265
vt 0.868939 0.627700
vt 0.455176 0.769096
vt 0.460180 0.793517
vt 0.561450 0.500824
vt 0.551685 0.500018
vt 0.582368 0.500159
vt 0.965222 0.744584
vt 0.979441 0.710723
vt 0.783540 0.327819
vt 0.976685 0.641731
vt 0.035996 0.326269
vt 0.054505 0.903432
vt 0.704312 0.307111
vt 0.014838 0.532024
vt 0.799626 0.363672
vt 0.751099 0.193794
vt 0.292846 0.065987
vt 0.842909 0.090058
vt 0.425415 0.128870
vt 0.422307 0.417486
vt 0.857205 0.207152
vt 0.883353 0.177478
vt 0.414724 0.921690
vt 0.847233 0.669264
vt 0.842481 0.792436
vt 0.858762 0.778488
vt 0.427361 0.985204
vt 0.895903 0.235237
vt 0.926020 0.143456
vt 0.510167 0.560417
vt 0.514287 0.511805
vt 0.866880 0.810914
vt 0.498185 0.884108
vt 0.415631 0.953230
vt 0.129359 0.008584
vt 0.864096 0.747050
vt 0.466088 0.994506
vt 0.864110 0.678465
vt 0.852587 0.673986
vt 0.538352 0.665000
vt 0.672880 0.227719
vt 0.224316 0.584928
vt 0.936671 0.273921
vt 0.241262 0.373431
vt 0.632079 0.704473
s 1
usemtl Asteroid2d
f 463/1/1 346/2/2 1/3/3
f 395/4/4 418/5/5 5/6/6
f 503/7/7 44/8/8 505/9/9
f 4/10/10 51/11/11 349/12/12
f 57/13/13 323/14/14 59/15/15
f 323/14/14 58/16/16 59/15/15
f 428/17/17 66/18/18 425/19/19
f 69/20/20 180/21/21 68/22/22
f 180/21/21 196/23/23 68/22/22
f 231/24/24 230/25/25 70/26/26
f 73/27/27 118/28/28 496/29/29
f 10/30/30 76/31/31 479/32/32
f 479/32/32 75/33/33 10/30/30
f 456/34/34 451/35/35 450/36/36
f 338/37/37 79/38/38 80/39/39
f 79/38/38 467/40/40 80/39/39
f 467/40/40 468/41/41 80/39/39
f 13/42/42 81/43/43 82/44/44
f 61/45/45 81/43/43 13/42/42
f 215/46/46 274/47/47 276/48/48
f 14/49/49 285/50/50 284/51/51
f 87/52/52 264/53/53 127/54/54
f 17/55/55 12/56/56 90/57/57
f 91/58/58 8/59/59 18/60/60
f 537/61/61 38/62/62 20/63/63
f 362/64/64 361/65/65 378/66/66
f 59/15/15 58/16/16 23/67/67
f 105/68/68 172/69/69 25/70/70
f 27/71/71 140/72/72 145/73/73
f 435/74/74 113/75/75 114/76/76
f 115/77/77 435/74/74 114/76/76
f 31/78/78 118/28/28 30/79/79
f 528/80/80 534/81/81 126/82/82
f 116/83/83 30/84/79 121/85/84
f 30/84/79 331/86/85 121/85/84
f 131/87/86 369/88/87 132/89/88
f 341/90/89 340/91/90 133/92/91
f 136/93/92 402/94/93 413/95/94
f 137/96/95 236/97/96 36/98/97
f 236/97/96 138/99/98 36/98/97
f 142/100/99 143/101/100 141/102/101
f 190/103/102 144/104/103 140/72/72
f 144/104/103 145/73/73 140/72/72
f 27/105/71 145/106/73 146/107/104
f 154/108/105 151/109/106 150/110/107
f 153/111/108 152/112/109 151/109/106
f 155/113/110 156/114/111 71/115/112
f 71/115/112 153/111/108 155/113/110
f 155/113/110 157/116/113 156/114/111
f 179/117/114 159/118/115 158/119/116
f 161/120/117 94/121/118 181/122/119
f 163/123/120 181/122/119 94/121/118
f 166/124/121 153/111/108 165/125/122
f 166/124/121 152/112/109 153/111/108
f 166/124/121 151/109/106 152/112/109
f 52/126/123 187/127/124 27/71/71
f 187/127/124 141/102/101 27/71/71
f 172/128/69 145/73/73 144/104/103
f 173/129/125 147/130/126 146/107/104
f 154/108/105 155/113/110 153/111/108
f 154/108/105 175/131/127 155/113/110
f 176/132/128 177/133/129 157/134/113
f 177/133/129 178/135/130 157/134/113
f 160/136/131 179/117/114 196/137/23
f 182/138/132 162/139/133 16/140/134
f 183/141/135 94/121/118 162/139/133
f 158/119/116 159/118/115 200/142/136
f 165/125/122 210/143/137 166/124/121
f 186/144/138 151/109/106 166/124/121
f 186/144/138 167/145/139 151/109/106
f 169/146/140 52/147/123 146/148/104
f 52/147/123 27/149/71 146/148/104
f 211/150/141 141/102/101 187/127/124
f 141/102/101 211/150/141 188/151/142
f 189/152/143 142/100/99 188/151/142
f 213/153/144 172/128/69 144/104/103
f 174/154/145 150/155/107 223/156/146
f 193/157/147 175/131/127 154/108/105
f 193/157/147 176/158/128 175/131/127
f 194/159/148 195/160/149 177/133/129
f 182/138/132 197/161/150 162/139/133
f 198/162/151 162/139/133 197/161/150
f 200/163/136 183/141/135 199/164/152
f 200/142/136 201/165/153 158/119/116
f 201/165/153 108/166/154 184/167/155
f 199/164/152 201/168/153 200/163/136
f 19/169/156 238/170/157 206/171/158
f 208/172/159 209/173/160 207/174/161
f 208/172/159 239/175/162 209/173/160
f 209/173/160 239/175/162 202/176/163
f 201/168/153 202/176/163 239/175/162
f 210/143/137 187/177/124 186/144/138
f 167/145/139 186/144/138 168/178/164
f 186/144/138 52/179/123 168/178/164
f 168/180/164 52/147/123 169/146/140
f 107/181/165 188/182/142 211/183/141
f 245/184/166 190/103/102 171/185/167
f 213/153/144 190/103/102 245/184/166
f 215/46/46 83/186/168 105/68/68
f 217/187/169 218/188/170 191/189/171
f 218/188/170 219/190/172 191/189/171
f 220/191/173 191/189/171 219/190/172
f 250/192/174 223/193/146 222/194/175
f 226/195/176 225/196/177 252/197/178
f 252/197/178 227/198/179 226/195/176
f 227/198/179 253/199/180 226/195/176
f 228/200/181 226/195/176 253/199/180
f 232/201/182 179/202/114 195/160/149
f 196/137/23 179/117/114 232/203/182
f 68/22/22 234/204/183 69/20/20
f 235/205/184 62/206/185 69/207/20
f 92/208/186 8/59/59 62/206/185
f 138/99/98 205/209/187 237/210/188
f 237/211/188 87/52/52 569/212/189
f 569/212/189 238/170/157 19/169/156
f 566/213/190 206/171/158 238/170/157
f 207/214/161 564/215/191 208/216/159
f 108/217/154 211/183/141 210/218/137
f 26/219/192 240/220/193 107/181/165
f 240/220/193 189/221/143 188/182/142
f 246/222/194 106/223/195 213/153/144
f 246/222/194 247/224/196 248/225/197
f 276/48/48 277/226/198 216/227/199
f 218/188/170 281/228/200 219/190/172
f 249/229/201 221/230/202 219/231/172
f 225/232/177 251/233/203 284/51/51
f 252/234/178 225/232/177 284/51/51
f 286/235/204 227/198/179 252/197/178
f 254/236/205 228/237/181 253/238/180
f 232/201/182 195/160/149 231/24/24
f 232/201/182 231/24/24 70/26/26
f 70/26/26 196/239/23 232/201/182
f 255/240/206 68/22/22 233/241/207
f 63/242/208 90/57/57 64/243/209
f 295/244/210 258/245/211 89/246/212
f 137/247/95 260/248/213 204/249/214
f 259/250/215 260/248/213 137/247/95
f 91/251/58 89/246/212 258/245/211
f 258/245/211 259/250/215 91/251/58
f 18/60/60 63/242/208 89/252/212
f 204/249/214 236/253/96 137/247/95
f 262/254/216 263/255/217 205/256/187
f 486/257/218 265/258/219 264/259/53
f 265/260/219 128/261/220 127/262/54
f 38/62/62 266/263/221 128/261/220
f 267/264/222 558/265/223 266/266/221
f 267/264/222 268/267/224 558/265/223
f 558/265/223 268/267/224 39/268/225
f 270/269/226 271/270/227 272/271/228
f 271/270/227 243/272/229 272/271/228
f 244/273/230 243/272/229 271/270/227
f 244/273/230 540/274/231 245/184/166
f 540/274/231 273/275/232 247/224/196
f 273/275/232 214/276/233 248/225/197
f 25/70/70 214/277/233 274/47/47
f 25/70/70 274/47/47 215/46/46
f 275/278/234 135/279/235 276/48/48
f 81/280/43 277/226/198 276/48/48
f 279/281/236 216/227/199 277/226/198
f 279/281/236 217/187/169 216/227/199
f 281/228/200 218/188/170 217/187/169
f 219/231/172 281/282/200 282/283/237
f 43/284/238 250/192/174 249/229/201
f 283/285/239 251/233/203 250/192/174
f 284/51/51 322/286/240 14/49/49
f 57/13/13 14/49/49 322/286/240
f 14/49/49 57/13/13 59/15/15
f 14/49/49 59/15/15 285/50/50
f 285/287/50 45/288/241 46/289/242
f 46/289/242 286/290/204 285/287/50
f 287/291/243 288/292/244 46/293/242
f 289/294/245 290/295/246 288/292/244
f 291/296/247 255/240/206 233/241/207
f 501/297/248 256/298/249 255/240/206
f 234/299/183 17/55/55 235/205/184
f 292/300/250 17/55/55 234/299/183
f 293/301/251 74/302/252 292/300/250
f 293/301/251 490/303/253 74/302/252
f 258/245/211 295/244/210 491/304/254
f 77/305/255 128/261/220 265/260/219
f 296/306/256 38/62/62 128/261/220
f 38/62/62 296/306/256 20/63/63
f 300/307/257 302/308/258 301/309/259
f 302/310/258 303/311/260 28/312/261
f 303/311/260 304/313/262 28/312/261
f 305/314/263 72/315/264 306/316/265
f 307/317/266 518/318/267 72/319/264
f 353/320/268 311/321/269 310/322/270
f 22/323/271 533/324/272 313/325/273
f 22/323/271 313/325/273 97/326/274
f 97/327/274 314/328/275 22/329/271
f 316/330/276 3/331/277 21/332/278
f 315/333/279 316/330/276 21/332/278
f 315/333/279 214/276/233 316/330/276
f 135/334/235 13/42/42 82/44/44
f 61/45/45 13/42/42 319/335/280
f 61/45/45 278/336/281 277/337/198
f 7/338/282 366/339/283 57/13/13
f 30/84/79 120/340/284 331/86/85
f 120/341/284 34/342/285 330/343/286
f 131/87/86 48/344/287 47/345/288
f 332/346/289 334/347/290 48/344/287
f 111/348/291 1/3/3 333/349/292
f 1/3/3 37/350/293 333/349/292
f 337/351/294 336/352/295 134/353/296
f 134/353/296 338/37/37 337/351/294
f 338/37/37 134/353/296 339/354/297
f 340/91/90 341/90/89 339/354/297
f 346/2/2 72/315/264 9/355/298
f 346/2/2 347/356/299 72/315/264
f 347/357/299 348/358/300 72/359/264
f 350/360/301 307/361/266 349/12/12
f 460/362/302 354/363/303 353/320/268
f 357/364/304 358/365/305 96/366/306
f 317/367/307 274/47/47 358/368/305
f 317/369/307 318/370/308 135/334/235
f 360/371/309 319/335/280 318/370/308
f 320/372/310 362/373/64 278/374/281
f 60/375/311 279/281/236 363/376/312
f 280/377/313 279/281/236 60/375/311
f 281/282/200 382/378/314 383/379/315
f 383/379/315 364/380/316 282/283/237
f 364/380/316 384/381/317 322/286/240
f 366/339/283 103/382/318 323/14/14
f 369/383/87 119/384/319 32/385/320
f 369/88/87 131/87/86 119/386/319
f 114/387/76 132/89/88 369/88/87
f 4/10/10 346/388/2 113/75/75
f 370/389/321 371/390/322 372/391/323
f 427/392/324 374/393/325 460/394/302
f 404/395/326 376/396/327 375/397/328
f 377/398/329 317/399/307 358/365/305
f 377/398/329 359/400/330 317/399/307
f 40/401/331 360/371/309 318/370/308
f 362/373/64 379/402/332 363/376/312
f 363/376/312 278/374/281 362/373/64
f 383/379/315 382/378/314 384/381/317
f 382/378/314 55/403/333 384/381/317
f 55/403/333 7/338/282 384/381/317
f 55/403/333 365/404/334 7/338/282
f 365/404/334 385/405/335 381/406/336
f 387/407/337 388/408/338 365/404/334
f 410/409/339 366/410/283 388/411/338
f 390/412/340 392/413/341 391/414/342
f 396/415/343 124/416/344 397/417/345
f 397/417/345 399/418/346 398/419/347
f 399/418/346 66/18/18 398/419/347
f 402/94/93 425/420/19 400/421/348
f 403/422/349 136/93/92 374/393/325
f 405/423/350 359/400/330 404/395/326
f 406/424/351 378/66/66 360/371/309
f 407/425/352 100/426/353 362/427/64
f 402/94/93 401/428/354 413/95/94
f 413/95/94 406/429/351 360/430/309
f 387/431/337 386/432/355 416/433/356
f 393/434/357 412/435/358 421/436/359
f 419/437/360 406/429/351 413/95/94
f 419/437/360 407/425/352 406/429/351
f 420/438/361 129/439/362 417/440/363
f 129/441/362 421/442/359 412/443/358
f 422/444/364 415/445/365 418/5/5
f 418/5/5 421/446/359 422/444/364
f 420/438/361 67/447/366 421/448/359
f 421/448/359 129/439/362 420/438/361
f 67/447/366 422/449/364 421/448/359
f 399/418/346 395/450/4 5/451/6
f 424/452/367 423/453/368 381/406/336
f 99/454/369 423/453/368 424/452/367
f 376/396/327 404/395/326 357/364/304
f 403/422/349 427/392/324 98/455/370
f 374/393/325 427/392/324 403/422/349
f 98/456/370 372/391/323 426/457/371
f 371/390/322 428/17/17 426/457/371
f 398/419/347 396/415/343 397/417/345
f 430/458/372 448/459/373 411/460/374
f 448/461/373 431/462/375 104/463/376
f 433/464/377 114/387/76 369/88/87
f 433/465/377 115/77/77 114/76/76
f 436/466/378 4/10/10 49/467/379
f 4/10/10 436/466/378 437/468/380
f 426/457/371 372/391/323 371/390/322
f 438/469/381 66/18/18 428/17/17
f 438/469/381 85/470/382 66/18/18
f 429/471/383 442/472/384 29/473/385
f 29/473/385 440/474/386 444/475/387
f 110/476/388 50/477/389 440/474/386
f 438/469/381 439/478/390 85/470/382
f 439/478/390 443/479/391 442/472/384
f 442/472/384 429/471/383 439/478/390
f 110/476/388 440/474/386 442/472/384
f 437/468/380 110/476/388 443/479/391
f 29/473/385 444/475/387 445/480/392
f 394/481/393 29/473/385 445/480/392
f 392/413/341 394/481/393 445/480/392
f 391/414/342 392/413/341 445/480/392
f 449/482/394 450/36/36 367/483/395
f 367/483/395 450/36/36 368/484/396
f 450/36/36 451/35/35 368/484/396
f 451/35/35 432/485/397 368/484/396
f 435/74/74 434/486/398 441/487/399
f 441/487/399 50/477/389 435/74/74
f 453/488/400 445/480/392 444/475/387
f 446/489/401 445/480/392 453/488/400
f 454/490/402 448/459/373 430/458/372
f 454/490/402 449/482/394 448/459/373
f 451/35/35 456/34/34 452/491/403
f 457/492/404 434/486/398 452/493/403
f 453/488/400 434/486/398 457/492/404
f 457/492/404 458/494/405 453/488/400
f 447/495/406 446/496/401 56/497/407
f 56/497/407 454/490/402 447/495/406
f 458/498/405 455/499/408 56/497/407
f 458/498/405 456/34/34 450/36/36
f 113/75/75 435/74/74 49/467/379
f 382/378/314 60/500/311 380/501/409
f 379/402/332 362/373/64 424/502/367
f 356/503/410 376/396/327 357/364/304
f 459/504/411 375/397/328 376/396/327
f 460/362/302 373/505/412 427/506/324
f 347/357/299 4/10/10 348/358/300
f 346/388/2 4/10/10 347/357/299
f 132/89/88 123/507/413 131/87/86
f 345/508/414 37/350/293 1/3/3
f 1/3/3 346/2/2 345/508/414
f 463/1/1 112/509/415 123/507/413
f 333/349/292 332/346/289 112/509/415
f 332/346/289 48/344/287 6/510/416
f 133/92/91 335/511/417 334/347/290
f 334/347/290 343/512/418 133/92/91
f 345/508/414 344/513/419 343/512/418
f 133/92/91 340/91/90 335/511/417
f 336/352/295 335/511/417 340/91/90
f 336/352/295 340/91/90 134/353/296
f 373/505/412 353/320/268 352/514/420
f 356/503/410 459/504/411 376/396/327
f 321/515/421 283/285/239 364/380/316
f 356/503/410 97/516/274 355/517/422
f 311/321/269 353/320/268 354/363/303
f 348/358/300 349/12/12 307/361/266
f 351/518/423 310/322/270 309/519/424
f 354/363/303 125/520/425 311/321/269
f 79/38/38 338/37/37 339/354/297
f 468/41/41 478/521/426 80/39/39
f 33/522/427 469/523/428 470/524/429
f 33/522/427 470/524/429 117/525/430
f 117/525/430 116/83/83 33/522/427
f 117/526/430 470/527/429 31/78/78
f 473/528/431 474/529/432 472/530/433
f 473/528/431 476/531/434 475/532/435
f 477/533/436 475/532/435 476/531/434
f 476/531/434 478/521/426 477/533/436
f 492/534/437 478/521/426 479/535/32
f 480/536/438 492/534/437 479/535/32
f 484/537/439 263/255/217 483/538/440
f 485/539/441 264/259/53 484/537/439
f 77/305/255 265/260/219 486/540/218
f 75/33/33 299/541/442 298/542/443
f 302/310/258 300/543/257 303/311/260
f 466/544/444 465/545/445 304/313/262
f 305/314/263 464/546/446 9/355/298
f 79/38/38 339/354/297 466/544/444
f 303/311/260 300/547/257 79/38/38
f 75/33/33 479/32/32 467/548/40
f 478/521/426 468/41/41 479/535/32
f 476/531/434 80/39/39 478/521/426
f 480/536/438 479/535/32 76/549/31
f 481/550/447 484/537/439 483/538/440
f 484/537/439 487/551/448 485/539/441
f 10/30/30 486/540/218 487/552/448
f 75/33/33 77/305/255 486/540/218
f 486/540/218 10/30/30 75/33/33
f 76/553/31 10/554/30 487/551/448
f 297/555/449 77/305/255 11/556/450
f 467/548/40 300/307/257 75/33/33
f 31/78/78 78/557/451 118/28/28
f 130/558/452 73/27/27 489/559/453
f 73/27/27 490/560/253 489/559/453
f 74/561/252 490/560/253 93/562/454
f 12/563/56 74/561/252 93/562/454
f 493/564/455 491/565/254 295/566/210
f 65/567/456 258/245/211 491/568/254
f 488/569/457 492/534/437 480/536/438
f 493/564/455 494/570/458 477/533/436
f 474/529/432 475/532/435 494/570/458
f 494/570/458 472/530/433 474/529/432
f 495/571/459 471/572/460 472/573/433
f 491/565/254 493/564/455 488/569/457
f 488/569/457 65/574/456 491/565/254
f 498/575/461 497/576/462 494/577/458
f 294/578/463 498/579/461 494/570/458
f 498/575/461 294/580/463 64/581/209
f 118/28/28 78/557/451 496/29/29
f 490/303/253 293/301/251 499/582/464
f 499/582/464 500/583/465 490/303/253
f 256/584/249 501/585/248 500/583/465
f 289/586/245 500/583/465 501/585/248
f 287/587/243 502/588/466 289/586/245
f 504/589/467 489/590/453 490/303/253
f 507/591/468 324/592/469 325/593/470
f 509/594/471 84/595/472 324/596/469
f 23/597/67 84/595/472 509/594/471
f 510/598/473 59/599/15 23/597/67
f 41/600/474 512/601/475 511/602/476
f 506/603/477 327/604/478 42/605/479
f 506/603/477 326/606/480 327/604/478
f 508/607/481 509/594/471 324/596/469
f 502/588/466 513/608/482 507/609/468
f 502/588/466 287/587/243 513/608/482
f 287/587/243 46/289/242 511/602/476
f 102/610/483 101/611/484 41/600/474
f 325/593/470 327/604/478 326/606/480
f 42/612/479 489/590/453 44/8/8
f 234/299/183 256/584/249 292/300/250
f 344/513/419 9/355/298 464/546/446
f 33/522/427 335/511/417 336/352/295
f 515/613/485 22/329/271 3/331/277
f 515/613/485 516/614/486 22/329/271
f 543/615/487 533/324/272 22/323/271
f 308/616/488 309/519/424 310/322/270
f 518/318/267 307/317/266 308/617/488
f 519/618/489 305/314/263 306/316/265
f 519/618/489 304/313/262 465/545/445
f 521/619/490 298/542/443 299/541/442
f 297/555/449 298/542/443 522/620/491
f 296/306/256 35/621/492 20/63/63
f 523/622/493 537/61/61 20/63/63
f 523/622/493 524/623/494 86/624/495
f 548/625/496 532/626/497 530/627/498
f 532/626/497 517/628/499 126/82/82
f 529/629/500 530/627/498 534/81/81
f 534/81/81 528/80/80 529/629/500
f 536/630/501 86/624/495 524/623/494
f 267/631/222 266/263/221 537/61/61
f 271/270/227 539/632/502 244/273/230
f 244/273/230 539/632/502 540/274/231
f 514/633/503 316/330/276 273/275/232
f 541/634/504 3/331/277 514/633/503
f 541/634/504 542/635/505 515/613/485
f 542/635/505 516/614/486 515/613/485
f 545/636/506 536/637/501 525/638/507
f 539/632/502 273/275/232 540/274/231
f 546/639/508 514/633/503 273/275/232
f 545/636/506 547/640/509 543/641/487
f 547/642/509 533/324/272 543/615/487
f 547/642/509 535/643/510 544/644/511
f 545/645/506 525/646/507 547/647/509
f 271/270/227 269/648/512 546/639/508
f 535/649/510 547/647/509 525/646/507
f 549/650/513 521/619/490 299/541/442
f 35/621/492 296/306/256 522/620/491
f 550/651/514 521/619/490 549/650/513
f 552/652/515 551/653/516 549/650/513
f 520/654/517 301/309/259 552/652/515
f 109/655/518 552/652/515 301/309/259
f 553/656/519 552/652/515 109/655/518
f 551/653/516 550/651/514 549/650/513
f 554/657/520 525/646/507 555/658/521
f 529/659/500 527/660/522 551/653/516
f 308/617/488 517/628/499 532/626/497
f 214/276/233 273/275/232 316/330/276
f 305/314/263 9/355/298 72/315/264
f 290/661/246 291/662/247 230/25/25
f 288/292/244 290/295/246 254/236/205
f 227/663/179 286/664/204 288/292/244
f 286/665/204 252/234/178 285/50/50
f 242/666/523 270/269/226 272/271/228
f 268/267/224 556/667/524 2/668/525
f 573/669/526 565/670/527 560/671/528
f 565/670/527 561/672/529 574/673/530
f 562/674/531 565/670/527 574/673/530
f 574/673/530 563/675/532 562/674/531
f 240/220/193 208/216/159 564/215/191
f 560/671/528 565/670/527 566/213/190
f 566/213/190 567/676/533 560/671/528
f 567/676/533 88/677/534 560/671/528
f 560/671/528 88/677/534 559/678/535
f 206/171/158 566/213/190 565/670/527
f 565/670/527 568/679/536 206/171/158
f 565/670/527 562/674/531 568/679/536
f 569/212/189 570/680/537 567/676/533
f 567/676/533 238/170/157 569/212/189
f 562/674/531 189/221/143 240/220/193
f 563/675/532 574/673/530 241/681/538
f 212/682/539 571/683/540 242/684/523
f 53/685/541 560/671/528 2/668/525
f 561/672/529 54/686/542 574/673/530
f 53/685/541 556/667/524 572/687/543
f 2/668/525 556/667/524 53/685/541
f 54/686/542 561/672/529 573/669/526
f 573/669/526 53/685/541 54/686/542
f 89/252/212 63/242/208 257/688/544
f 64/243/209 90/57/57 12/56/56
f 181/689/119 8/690/59 91/691/58
f 195/160/149 194/159/148 231/24/24
f 176/158/128 228/692/181 229/693/545
f 226/195/176 224/694/546 225/196/177
f 226/195/176 575/695/547 224/694/546
f 192/696/548 222/194/175 223/193/146
f 172/69/69 105/68/68 191/189/171
f 147/130/126 220/191/173 221/697/202
f 174/154/145 575/695/547 226/195/176
f 19/169/156 206/171/158 95/698/549
f 95/699/549 198/162/151 197/161/150
f 197/161/150 203/700/550 95/699/549
f 292/300/250 74/302/252 12/56/56
f 236/97/96 205/209/187 138/99/98
f 39/268/225 268/267/224 2/668/525
f 41/600/474 101/611/484 512/601/475
f 283/285/239 43/284/238 282/283/237
f 448/461/373 104/463/376 24/701/551 411/702/374
f 505/9/9 44/8/8 504/589/467
f 46/289/242 45/288/241 511/602/476
f 119/386/319 331/86/85 120/340/284
f 334/347/290 122/703/552 47/345/288
f 121/85/84 331/86/85 47/345/288
f 330/343/286 119/384/319 120/341/284
f 6/510/416 48/344/287 123/507/413
f 4/10/10 349/12/12 348/358/300
f 7/338/282 388/408/338 366/339/283
f 424/502/367 362/373/64 100/704/353
f 12/56/56 17/55/55 292/300/250
f 82/44/44 81/43/43 276/705/48
f 269/648/512 86/706/495 536/637/501
f 22/329/271 516/614/486 543/641/487
f 100/707/353 409/708/553 99/709/369
f 58/710/16 84/711/472 23/712/67
f 157/116/113 155/113/110 175/131/127 176/158/128
f 25/70/70 172/69/69 106/713/195
f 116/714/83 117/526/430 31/78/78
f 30/79/79 116/714/83 31/78/78
f 32/385/320 119/384/319 330/343/286
f 33/522/427 116/83/83 121/85/84
f 35/621/492 523/622/493 20/63/63
f 36/98/97 138/99/98 139/715/554
f 143/101/100 140/72/72 141/102/101
f 140/72/72 27/71/71 141/102/101
f 147/716/126 169/146/140 146/148/104
f 154/108/105 153/111/108 151/109/106
f 156/717/111 178/718/130 164/719/555
f 164/719/555 178/718/130 158/119/116
f 159/118/115 160/136/131 163/720/120
f 161/120/117 16/140/134 94/121/118
f 16/140/134 162/139/133 94/121/118
f 71/115/112 185/721/556 165/125/122
f 165/125/122 153/111/108 71/115/112
f 150/110/107 151/109/106 167/145/139
f 167/145/139 149/722/557 150/110/107
f 149/722/557 167/145/139 168/178/164
f 168/178/164 169/723/140 149/722/557
f 169/723/140 148/724/558 149/722/557
f 141/102/101 188/151/142 142/100/99
f 170/725/559 143/101/100 142/100/99
f 143/101/100 171/185/167 190/103/102
f 190/103/102 140/72/72 143/101/100
f 145/106/73 173/129/125 146/107/104
f 147/130/126 148/726/558 169/727/140
f 149/728/557 148/729/558 223/156/146
f 223/156/146 150/155/107 149/728/557
f 150/110/107 174/730/145 154/108/105
f 68/22/22 255/240/206 256/298/249 234/204/183
f 176/132/128 194/159/148 177/133/129
f 178/135/130 156/731/111 157/134/113
f 158/119/116 178/718/130 195/732/149
f 158/119/116 195/732/149 179/117/114
f 179/117/114 160/136/131 159/118/115
f 180/21/21 163/733/120 160/734/131
f 180/21/21 181/735/119 163/733/120
f 36/736/97 182/138/132 161/120/117
f 182/138/132 36/736/97 139/737/554
f 182/138/132 16/140/134 161/120/117
f 183/141/135 163/123/120 94/121/118
f 159/738/115 163/123/120 183/141/135
f 164/719/555 158/119/116 201/165/153
f 164/739/555 71/115/112 156/114/111
f 164/719/555 184/167/155 71/740/112
f 71/115/112 184/741/155 185/721/556
f 165/125/122 185/721/556 210/143/137
f 189/152/143 170/725/559 142/100/99
f 190/103/102 213/153/144 144/104/103
f 213/153/144 106/223/195 172/128/69
f 172/69/69 173/129/125 145/106/73
f 173/129/125 191/189/171 147/130/126
f 148/726/558 147/130/126 192/742/548
f 148/729/558 192/743/548 223/156/146
f 174/154/145 223/156/146 575/695/547
f 174/730/145 226/744/176 154/108/105
f 226/744/176 193/157/147 154/108/105
f 178/135/130 177/133/129 195/160/149
f 181/689/119 91/691/58 161/745/117
f 182/138/132 139/737/554 197/161/150
f 162/139/133 198/162/151 199/164/152
f 199/164/152 183/141/135 162/139/133
f 200/163/136 159/738/115 183/141/135
f 201/165/153 184/167/155 164/719/555
f 199/164/152 202/176/163 201/168/153
f 202/176/163 199/164/152 198/162/151
f 139/737/554 203/700/550 197/161/150
f 204/746/214 205/209/187 236/97/96
f 138/99/98 237/210/188 569/747/189
f 569/747/189 19/748/156 138/99/98
f 198/162/151 209/173/160 202/176/163
f 210/143/137 186/144/138 166/124/121
f 52/179/123 186/144/138 187/177/124
f 210/749/137 211/150/141 187/127/124
f 188/182/142 107/181/165 240/220/193
f 241/750/538 170/725/559 189/152/143
f 212/751/539 143/101/100 170/725/559
f 143/101/100 212/751/539 171/185/167
f 212/751/539 243/272/229 171/185/167
f 171/185/167 243/272/229 245/184/166
f 106/713/195 248/752/197 25/70/70
f 248/752/197 214/277/233 25/70/70
f 25/70/70 215/46/46 105/68/68
f 215/46/46 216/227/199 83/186/168
f 216/227/199 191/189/171 83/186/168
f 216/227/199 217/187/169 191/189/171
f 219/190/172 221/697/202 220/191/173
f 222/194/175 221/230/202 249/229/201
f 224/753/546 575/754/547 250/192/174
f 224/753/546 251/233/203 225/232/177
f 194/159/148 229/755/545 230/25/25
f 196/23/23 233/241/207 68/22/22
f 69/20/20 62/756/185 8/757/59
f 69/20/20 8/757/59 180/21/21
f 180/21/21 160/734/131 196/23/23
f 235/205/184 90/57/57 62/206/185
f 92/208/186 18/60/60 8/59/59
f 206/171/158 568/679/536 564/215/191
f 564/215/191 207/214/161 206/171/158
f 108/758/154 201/168/153 239/175/162
f 108/217/154 185/759/556 184/760/155
f 108/217/154 210/218/137 185/759/556
f 108/217/154 107/181/165 211/183/141
f 108/217/154 26/219/192 107/181/165
f 239/761/162 26/219/192 108/217/154
f 239/761/162 208/216/159 26/219/192
f 189/221/143 563/675/532 241/681/538
f 241/681/538 212/682/539 170/762/559
f 242/666/523 243/272/229 212/751/539
f 244/273/230 245/184/166 243/272/229
f 213/153/144 247/224/196 246/222/194
f 246/222/194 248/225/197 106/223/195
f 215/46/46 276/48/48 216/227/199
f 251/233/203 224/753/546 250/192/174
f 254/763/205 229/755/545 228/764/181
f 254/763/205 230/25/25 229/755/545
f 230/25/25 254/763/205 290/661/246
f 230/25/25 231/24/24 194/159/148
f 70/26/26 233/765/207 196/239/23
f 63/242/208 92/208/186 62/206/185 90/57/57
f 235/205/184 69/207/20 234/299/183
f 235/205/184 17/55/55 90/57/57
f 205/256/187 263/255/217 264/259/53 237/766/188
f 63/242/208 18/60/60 92/208/186
f 257/767/544 63/768/208 64/769/209
f 257/688/544 295/770/210 89/252/212
f 91/251/58 18/771/60 89/246/212
f 259/250/215 137/247/95 91/251/58
f 204/249/214 261/772/560 205/256/187
f 261/772/560 262/254/216 205/256/187
f 327/604/478 325/593/470 328/773/561 329/774/562
f 237/211/188 264/53/53 87/52/52
f 265/258/219 127/775/54 264/259/53
f 266/263/221 127/262/54 128/261/220
f 538/776/563 556/667/524 268/267/224
f 538/776/563 269/777/512 270/778/226
f 245/184/166 540/274/231 247/224/196
f 247/224/196 213/153/144 245/184/166
f 247/224/196 273/275/232 248/225/197
f 275/278/234 276/48/48 274/47/47
f 135/334/235 82/44/44 276/705/48
f 277/226/198 278/374/281 279/281/236
f 282/283/237 249/229/201 219/231/172
f 249/229/201 250/192/174 222/194/175
f 250/192/174 43/284/238 283/285/239
f 321/515/421 284/51/51 251/233/203
f 46/289/242 288/779/244 286/290/204
f 287/291/243 289/294/245 288/292/244
f 290/295/246 289/294/245 501/297/248
f 70/26/26 230/25/25 291/662/247
f 70/26/26 291/662/247 233/765/207
f 291/296/247 501/297/248 255/240/206
f 64/780/209 294/578/463 257/767/544
f 258/245/211 65/567/456 259/250/215
f 65/567/456 260/248/213 259/250/215
f 260/248/213 482/781/564 261/772/560
f 261/772/560 204/249/214 260/248/213
f 483/538/440 263/255/217 262/254/216
f 264/259/53 485/539/441 486/257/218
f 298/542/443 297/555/449 11/556/450
f 300/307/257 520/654/517 299/541/442
f 300/307/257 301/309/259 520/654/517
f 305/314/263 519/618/489 465/545/445
f 308/616/488 307/782/266 309/519/424
f 313/325/273 125/520/425 354/363/303
f 22/329/271 314/328/275 3/331/277
f 314/328/275 21/332/278 3/331/277
f 315/783/279 274/47/47 214/277/233
f 317/367/307 275/278/234 274/47/47
f 317/367/307 135/784/235 275/278/234
f 135/334/235 318/370/308 13/42/42
f 13/42/42 318/370/308 319/335/280
f 320/785/310 61/45/45 319/335/280
f 277/337/198 81/43/43 61/45/45
f 280/377/313 217/187/169 279/281/236
f 280/377/313 281/228/200 217/187/169
f 280/377/313 60/375/311 281/228/200
f 282/283/237 43/284/238 249/229/201
f 251/233/203 283/285/239 321/515/421
f 57/13/13 366/339/283 323/14/14
f 84/786/472 15/787/565 324/592/469
f 15/787/565 325/593/470 324/592/469
f 32/385/320 330/343/286 329/774/562 328/773/561
f 104/463/376 323/788/14 103/789/318 24/701/551
f 331/86/85 119/386/319 47/345/288
f 47/345/288 119/386/319 131/87/86
f 334/347/290 47/345/288 48/344/287
f 333/349/292 37/350/293 332/346/289
f 47/345/288 122/703/552 121/85/84
f 122/703/552 335/511/417 121/85/84
f 343/512/418 344/513/419 342/790/566
f 9/355/298 344/513/419 345/508/414
f 462/791/567 351/518/423 350/792/301
f 355/517/422 354/793/303 459/504/411
f 356/503/410 314/794/275 97/516/274
f 314/794/275 356/503/410 21/795/278
f 356/503/410 96/366/306 21/795/278
f 356/503/410 357/364/304 96/366/306
f 361/65/65 319/335/280 360/371/309
f 361/65/65 320/785/310 319/335/280
f 320/785/310 278/336/281 61/45/45
f 278/374/281 363/376/312 279/281/236
f 60/500/311 382/378/314 281/282/200
f 383/379/315 282/283/237 281/282/200
f 282/283/237 364/380/316 283/285/239
f 384/381/317 57/13/13 322/286/240
f 57/13/13 384/381/317 7/338/282
f 365/404/334 388/408/338 7/338/282
f 84/711/472 323/788/14 104/463/376 431/462/375
f 84/786/472 367/796/395 368/797/396 15/787/565
f 323/788/14 84/711/472 58/710/16
f 431/462/375 367/798/395 84/711/472
f 427/799/324 373/800/412 372/391/323 98/456/370
f 369/383/87 15/787/565 368/797/396
f 369/383/87 32/385/320 328/773/561
f 114/387/76 113/801/75 132/89/88
f 113/801/75 346/2/2 132/89/88
f 4/10/10 437/468/380 51/11/11
f 438/469/381 370/389/321 51/11/11
f 372/391/323 461/802/568 370/389/321
f 393/434/357 392/413/341 390/412/340 412/435/358
f 358/365/305 357/364/304 377/398/329
f 359/803/330 318/370/308 317/369/307
f 359/803/330 405/804/350 318/370/308
f 360/371/309 378/66/66 361/65/65
f 362/427/64 378/805/66 407/425/352
f 363/376/312 379/402/332 60/375/311
f 380/806/409 60/375/311 379/402/332
f 379/807/332 381/406/336 380/501/409
f 385/405/335 382/378/314 380/501/409
f 381/406/336 386/808/355 365/404/334
f 365/404/334 386/808/355 387/407/337
f 103/789/318 411/702/374 24/701/551
f 391/414/342 389/809/569 390/412/340
f 393/434/357 394/481/393 392/413/341
f 395/450/4 124/416/344 393/434/357
f 124/416/344 395/450/4 397/417/345
f 399/418/346 400/810/348 66/18/18
f 401/428/354 402/94/93 400/421/348
f 402/94/93 403/422/349 425/420/19
f 403/422/349 402/94/93 136/93/92
f 404/395/326 377/398/329 357/364/304
f 404/395/326 359/400/330 377/398/329
f 405/804/350 414/811/570 40/401/331
f 40/401/331 318/370/308 405/804/350
f 414/811/570 360/371/309 40/401/331
f 406/424/351 407/812/352 378/66/66
f 408/813/571 409/814/553 100/426/353
f 409/708/553 415/815/365 99/709/369
f 99/709/369 415/815/365 423/816/368
f 423/816/368 415/815/365 386/432/355
f 410/409/339 103/817/318 366/410/283
f 410/409/339 411/818/374 103/817/318
f 409/814/553 408/813/571 418/5/5 415/445/365
f 399/418/346 397/417/345 395/450/4
f 400/421/348 399/819/346 419/437/360
f 419/437/360 401/428/354 400/421/348
f 413/95/94 414/820/570 136/93/92
f 414/820/570 413/95/94 360/430/309
f 407/425/352 408/813/571 100/426/353
f 408/813/571 407/425/352 5/6/6
f 386/432/355 415/815/365 416/433/356
f 410/409/339 388/411/338 387/431/337
f 417/440/363 411/818/374 410/409/339
f 417/440/363 389/821/569 411/818/374
f 389/822/569 412/443/358 390/823/340
f 393/434/357 421/436/359 395/450/4
f 395/4/4 421/446/359 418/5/5
f 418/5/5 408/813/571 5/6/6
f 419/437/360 5/6/6 407/425/352
f 419/437/360 413/95/94 401/428/354
f 5/6/6 419/437/360 399/819/346
f 67/447/366 420/438/361 387/431/337 416/433/356
f 415/815/365 67/447/366 416/433/356
f 417/440/363 410/409/339 420/438/361
f 422/449/364 67/447/366 415/815/365
f 414/824/570 405/423/350 404/395/326 136/825/92
f 387/431/337 420/438/361 410/409/339
f 412/443/358 389/822/569 129/826/362
f 389/821/569 417/440/363 129/439/362
f 374/827/325 136/825/92 404/395/326 375/397/328
f 386/808/355 381/406/336 423/453/368
f 365/404/334 382/378/314 385/405/335
f 382/378/314 365/404/334 55/403/333
f 380/501/409 381/406/336 385/405/335
f 381/406/336 379/807/332 424/452/367
f 99/454/369 424/452/367 100/828/353
f 29/473/385 124/416/344 396/415/343 429/471/383
f 425/420/19 98/455/370 426/829/371
f 98/455/370 425/420/19 403/422/349
f 428/17/17 425/19/19 426/457/371
f 400/810/348 425/19/19 66/18/18
f 110/476/388 436/466/378 49/467/379 50/477/389
f 124/416/344 394/481/393 393/434/357
f 124/416/344 29/473/385 394/481/393
f 367/483/395 431/830/375 449/482/394
f 432/831/397 369/383/87 368/797/396
f 432/831/397 433/832/377 369/383/87
f 115/77/77 434/486/398 435/74/74
f 438/469/381 51/11/11 437/468/380
f 438/469/381 428/17/17 371/390/322
f 371/390/322 370/389/321 438/469/381
f 85/470/382 398/419/347 66/18/18
f 396/415/343 398/419/347 439/478/390
f 439/478/390 429/471/383 396/415/343
f 440/474/386 441/487/399 444/475/387
f 29/473/385 442/472/384 440/474/386
f 439/478/390 398/419/347 85/470/382
f 442/472/384 443/479/391 110/476/388
f 443/479/391 439/478/390 438/469/381
f 443/479/391 438/469/381 437/468/380
f 437/468/380 436/466/378 110/476/388
f 389/809/569 391/414/342 430/833/372 411/834/374
f 441/487/399 440/474/386 50/477/389
f 445/480/392 446/489/401 391/414/342
f 391/414/342 446/489/401 447/835/406
f 447/835/406 430/833/372 391/414/342
f 453/488/400 444/475/387 441/487/399 434/486/398
f 448/459/373 449/482/394 431/830/375
f 433/836/377 432/485/397 451/35/35
f 451/35/35 115/837/77 433/836/377
f 451/35/35 452/491/403 115/837/77
f 452/493/403 434/486/398 115/77/77
f 435/74/74 50/477/389 49/467/379
f 351/518/423 462/791/567 461/838/568 352/514/420
f 454/490/402 430/458/372 447/495/406
f 454/490/402 455/499/408 449/482/394
f 455/499/408 450/36/36 449/482/394
f 453/488/400 458/494/405 446/489/401
f 458/498/405 457/839/404 452/491/403
f 450/36/36 455/499/408 458/498/405
f 454/490/402 56/497/407 455/499/408
f 458/498/405 452/491/403 456/34/34
f 56/497/407 446/496/401 458/498/405
f 49/467/379 4/10/10 113/75/75
f 384/381/317 364/380/316 383/379/315
f 361/840/65 362/373/64 320/372/310
f 459/504/411 460/841/302 375/397/328
f 460/841/302 374/827/325 375/397/328
f 461/802/568 372/391/323 373/800/412
f 461/802/568 462/842/567 370/389/321
f 131/87/86 123/507/413 48/344/287
f 123/507/413 132/89/88 463/1/1
f 132/89/88 346/2/2 463/1/1
f 123/507/413 112/509/415 6/510/416
f 112/509/415 332/346/289 6/510/416
f 111/348/291 112/509/415 463/1/1
f 463/1/1 1/3/3 111/348/291
f 112/509/415 111/348/291 333/349/292
f 37/350/293 345/508/414 332/346/289
f 332/346/289 345/508/414 334/347/290
f 334/347/290 345/508/414 343/512/418
f 133/92/91 343/512/418 342/790/566
f 134/353/296 340/91/90 339/354/297
f 334/347/290 335/511/417 122/703/552
f 345/508/414 346/2/2 9/355/298
f 51/11/11 350/360/301 349/12/12
f 370/389/321 462/842/567 350/360/301 51/11/11
f 373/505/412 460/362/302 353/320/268
f 460/841/302 459/504/411 354/793/303
f 459/504/411 356/503/410 355/517/422
f 352/514/420 461/838/568 373/505/412
f 338/37/37 80/39/39 473/528/431 337/351/294
f 328/773/561 15/787/565 369/383/87
f 15/787/565 328/773/561 325/593/470
f 364/380/316 322/286/240 321/515/421
f 358/368/305 274/47/47 315/783/279
f 315/783/279 96/843/306 358/368/305
f 352/514/420 353/320/268 310/322/270
f 350/792/301 351/518/423 309/519/424
f 307/782/266 350/792/301 309/519/424
f 348/358/300 307/361/266 72/844/264
f 351/518/423 352/514/420 310/322/270
f 355/845/422 313/325/273 354/363/303
f 355/845/422 97/326/274 313/325/273
f 464/546/446 342/790/566 344/513/419
f 465/545/445 341/90/89 342/790/566
f 341/90/89 466/544/444 339/354/297
f 79/38/38 300/547/257 467/40/40
f 262/254/216 261/772/560 482/781/564 481/550/447
f 337/351/294 469/523/428 336/352/295
f 469/523/428 33/522/427 336/352/295
f 31/78/78 470/527/429 471/572/460
f 470/527/429 472/573/433 471/572/460
f 469/523/428 473/528/431 472/530/433
f 342/790/566 464/546/446 305/314/263 465/545/445
f 262/254/216 481/550/447 483/538/440
f 484/537/439 264/259/53 263/255/217
f 485/539/441 487/551/448 486/257/218
f 77/305/255 296/306/256 128/261/220
f 77/305/255 297/555/449 296/306/256
f 75/33/33 300/307/257 299/541/442
f 303/311/260 466/544/444 304/313/262
f 30/79/79 118/28/28 130/558/452 34/342/285
f 466/544/444 341/90/89 465/545/445
f 466/544/444 303/311/260 79/38/38
f 479/535/32 468/41/41 467/846/40
f 476/531/434 473/528/431 80/39/39
f 473/528/431 469/523/428 337/351/294
f 472/530/433 470/524/429 469/523/428
f 484/537/439 480/847/438 76/553/31
f 481/550/447 480/847/438 484/537/439
f 11/556/450 75/33/33 298/542/443
f 487/551/448 484/537/439 76/553/31
f 11/556/450 77/305/255 75/33/33
f 482/781/564 260/248/213 65/567/456
f 480/847/438 481/550/447 482/781/564
f 477/533/436 478/521/426 492/534/437
f 477/533/436 494/570/458 475/532/435
f 474/529/432 473/528/431 475/532/435
f 471/572/460 78/557/451 31/78/78
f 497/576/462 93/562/454 495/571/459 472/573/433
f 12/563/56 498/575/461 64/581/209
f 257/767/544 493/564/455 295/566/210
f 65/574/456 480/536/438 482/848/564
f 488/569/457 480/536/438 65/574/456
f 492/534/437 493/564/455 477/533/436
f 471/572/460 495/571/459 78/557/451
f 496/29/29 78/557/451 495/571/459
f 495/571/459 73/27/27 496/29/29
f 495/571/459 93/562/454 73/27/27
f 500/583/465 499/582/464 293/301/251 292/300/250
f 497/576/462 498/575/461 93/562/454
f 294/578/463 494/570/458 493/564/455
f 294/578/463 493/564/455 257/767/544
f 493/564/455 492/534/437 488/569/457
f 494/577/458 497/576/462 472/573/433
f 93/562/454 498/575/461 12/563/56
f 93/562/454 490/560/253 73/27/27
f 73/27/27 130/558/452 118/28/28
f 285/287/50 59/599/15 510/598/473 45/288/241
f 292/300/250 256/584/249 500/583/465
f 503/7/7 500/583/465 289/586/245 502/588/466
f 501/297/248 291/296/247 290/295/246
f 503/7/7 502/588/466 44/8/8
f 489/590/453 504/589/467 44/8/8
f 505/9/9 504/589/467 490/303/253
f 490/303/253 500/583/465 505/9/9
f 505/9/9 500/583/465 503/7/7
f 489/559/453 42/605/479 130/558/452
f 130/558/452 42/605/479 330/343/286
f 330/343/286 34/342/285 130/558/452
f 330/343/286 42/605/479 329/774/562
f 42/605/479 327/604/478 329/774/562
f 326/606/480 507/591/468 325/593/470
f 507/609/468 508/607/481 324/596/469
f 102/610/483 41/600/474 45/288/241
f 41/600/474 511/602/476 45/288/241
f 513/608/482 287/587/243 511/602/476
f 511/602/476 512/601/475 513/608/482
f 513/608/482 508/607/481 507/609/468
f 507/609/468 506/849/477 502/588/466
f 506/849/477 42/612/479 44/8/8
f 506/603/477 507/591/468 326/606/480
f 509/594/471 512/601/475 101/611/484
f 101/611/484 23/597/67 509/594/471
f 512/601/475 509/594/471 508/607/481
f 508/607/481 513/608/482 512/601/475
f 44/8/8 502/588/466 506/849/477
f 45/288/241 510/598/473 102/610/483
f 101/611/484 102/610/483 510/598/473 23/597/67
f 546/639/508 269/648/512 536/637/501 542/635/505
f 342/790/566 341/90/89 133/92/91
f 335/511/417 33/522/427 121/85/84
f 120/341/284 30/79/79 34/342/285
f 514/633/503 3/331/277 316/330/276
f 125/520/425 312/850/572 311/321/269
f 312/850/572 125/520/425 126/851/82
f 312/850/572 310/322/270 311/321/269
f 518/318/267 306/852/265 72/319/264
f 301/309/259 302/308/258 28/853/261
f 521/619/490 522/620/491 298/542/443
f 522/620/491 296/306/256 297/555/449
f 86/624/495 537/61/61 523/622/493
f 525/646/507 524/623/494 555/658/521
f 526/854/573 525/646/507 554/657/520
f 527/660/522 528/855/80 526/854/573
f 528/855/80 527/660/522 529/659/500
f 531/856/574 548/625/496 530/627/498
f 126/82/82 534/81/81 532/626/497
f 517/857/499 312/850/572 126/851/82
f 533/324/272 126/851/82 125/520/425
f 125/520/425 313/325/273 533/324/272
f 544/644/511 126/851/82 533/324/272
f 544/644/511 528/858/80 126/851/82
f 530/627/498 532/626/497 534/81/81
f 525/646/507 526/854/573 535/649/510
f 537/61/61 266/263/221 38/62/62
f 267/264/222 537/859/61 268/267/224
f 537/859/61 86/860/495 268/267/224
f 268/267/224 86/860/495 538/776/563
f 538/776/563 86/860/495 269/777/512
f 271/270/227 270/269/226 269/648/512
f 541/634/504 515/613/485 3/331/277
f 542/635/505 545/636/506 516/614/486
f 516/614/486 545/636/506 543/641/487
f 544/861/511 535/649/510 528/855/80
f 528/855/80 535/649/510 526/854/573
f 525/646/507 536/630/501 524/623/494
f 551/653/516 552/652/515 553/656/519 529/659/500
f 539/632/502 271/270/227 546/639/508
f 539/632/502 546/639/508 273/275/232
f 546/639/508 541/634/504 514/633/503
f 541/634/504 546/639/508 542/635/505
f 542/635/505 536/637/501 545/636/506
f 547/642/509 544/644/511 533/324/272
f 312/850/572 517/857/499 310/322/270
f 517/628/499 308/617/488 310/862/270
f 518/318/267 308/617/488 548/625/496
f 548/625/496 306/852/265 518/318/267
f 548/625/496 519/863/489 306/852/265
f 519/618/489 531/864/574 304/313/262
f 304/313/262 531/864/574 28/312/261
f 520/654/517 549/650/513 299/541/442
f 522/620/491 521/619/490 35/621/492
f 35/621/492 521/619/490 550/651/514
f 549/650/513 520/654/517 552/652/515
f 109/655/518 301/309/259 28/853/261
f 554/657/520 555/658/521 550/651/514
f 555/658/521 35/621/492 550/651/514
f 555/658/521 523/622/493 35/621/492
f 523/622/493 555/658/521 524/623/494
f 554/657/520 527/660/522 526/854/573
f 527/660/522 554/657/520 550/651/514
f 553/656/519 530/865/498 529/659/500
f 531/856/574 530/627/498 553/866/519
f 531/856/574 519/863/489 548/625/496
f 532/626/497 548/625/496 308/617/488
f 531/867/574 109/655/518 28/868/261
f 531/867/574 553/656/519 109/655/518
f 87/52/52 557/869/575 88/677/534 570/680/537
f 527/660/522 550/651/514 551/653/516
f 315/333/279 21/332/278 96/870/306
f 288/292/244 254/236/205 253/238/180
f 288/292/244 253/238/180 227/663/179
f 285/50/50 252/234/178 284/51/51
f 322/286/240 284/51/51 321/515/421
f 556/667/524 538/776/563 270/778/226
f 127/54/54 557/869/575 87/52/52
f 557/869/575 127/54/54 558/265/223
f 559/678/535 88/677/534 558/265/223
f 558/265/223 39/268/225 559/678/535
f 559/678/535 2/668/525 560/671/528
f 565/670/527 573/669/526 561/672/529
f 562/674/531 240/220/193 564/215/191
f 240/220/193 26/219/192 208/216/159
f 567/676/533 570/680/537 88/677/534
f 567/676/533 566/213/190 238/170/157
f 568/679/536 562/674/531 564/215/191
f 242/684/523 572/687/543 556/667/524 270/778/226
f 557/869/575 558/265/223 88/677/534
f 570/680/537 569/212/189 87/52/52
f 562/674/531 563/675/532 189/221/143
f 574/673/530 571/683/540 241/681/538
f 571/683/540 212/682/539 241/681/538
f 203/871/550 139/715/554 138/99/98 19/748/156
f 54/686/542 571/683/540 574/673/530
f 572/687/543 242/684/523 571/683/540
f 53/685/541 573/669/526 560/671/528
f 571/683/540 54/686/542 53/685/541
f 53/685/541 572/687/543 571/683/540
f 2/668/525 559/678/535 39/268/225
f 127/54/54 266/266/221 558/265/223
f 272/271/228 243/272/229 242/666/523
f 8/757/59 181/735/119 180/21/21
f 91/691/58 137/96/95 161/745/117
f 161/745/117 137/96/95 36/98/97
f 194/159/148 176/132/128 229/755/545
f 228/200/181 193/872/147 226/195/176
f 575/754/547 223/193/146 250/192/174
f 222/873/175 192/742/548 221/697/202
f 191/189/171 105/68/68 83/186/168
f 172/69/69 191/189/171 173/129/125
f 147/130/126 191/189/171 220/191/173
f 221/697/202 192/742/548 147/130/126
f 193/157/147 228/692/181 176/158/128
f 198/162/151 207/174/161 209/173/160
f 95/698/549 206/171/158 207/214/161
f 95/698/549 203/874/550 19/169/156
f 207/174/161 198/162/151 95/699/549
