# Blender 4.4.3
# www.blender.org
mtllib lod5.mtl
o Asteroid_2d_LOD5
v -0.830113 -0.148780 -0.357518
v 0.236561 -0.475207 -0.783851
v 0.616744 0.569553 -0.130293
v 1.086201 -0.168480 0.055453
v 0.221030 0.769269 0.068293
v 0.643808 -0.156628 0.627023
v 0.265990 0.791497 -0.226269
v -0.632964 0.275370 -0.500390
v -0.749091 0.355203 0.615555
v 0.576733 -0.388879 -0.263240
v 0.367206 0.588516 0.693423
v -1.035031 -0.110144 -0.078551
v -0.629762 -0.010075 -0.647498
v 0.356470 0.361516 0.880429
v 0.294365 -0.794722 -0.383182
v -0.641762 -0.421189 0.030685
v -0.209622 -0.799706 0.108141
v -0.193883 0.652195 0.177321
v -1.066044 0.035931 -0.013163
v 0.208063 0.827168 -0.076953
v -0.874773 0.112479 -0.515955
v 0.834105 -0.103815 -0.269972
v -0.090448 0.645036 0.689852
v 0.194800 -0.417023 0.505398
v -0.193622 0.617130 0.681968
v -0.017773 0.115648 0.873772
v -0.020195 0.814883 0.216863
v 0.106722 0.818248 0.036684
v 0.541973 0.528765 0.129484
v -0.635901 -0.157710 -0.304173
v 0.535079 -0.056613 0.786021
v 0.620816 0.133254 0.803039
v 0.290285 -0.008497 0.917967
v 0.692750 -0.301888 -0.059643
v -0.997521 0.233239 0.380669
v -0.909608 0.325560 0.492905
v -1.144570 0.278967 0.107795
v -0.801416 -0.031957 0.559756
v -0.572115 -0.471674 0.323541
v 0.496071 0.631503 -0.237314
v -0.407096 0.546386 0.607958
v -0.619584 0.488767 0.546605
v -0.636847 0.395963 -0.354660
v -0.894793 0.399725 -0.218238
v -0.267200 0.519695 0.421265
v -0.424568 0.530221 -0.414427
v -0.458295 0.381620 -0.146140
v 0.592986 -0.545097 -0.154775
v 0.273121 -0.813617 -0.157655
v 1.040800 0.206273 -0.130561
v -0.441325 -0.157462 -0.722575
v -0.909150 -0.081749 -0.297232
v -0.907731 0.207688 0.579743
v 0.397077 -0.250683 -0.746118
v 0.987740 0.212294 -0.483547
v 0.993462 -0.328798 0.139584
v 0.179732 0.236905 0.775199
v 0.613081 0.251814 0.741913
v 0.155896 -0.806640 -0.326769
v -0.672655 -0.361202 0.128957
v 0.215166 0.768757 -0.021646
v -0.188396 0.688984 0.350178
v 0.016235 0.749870 0.395503
v -0.112513 0.695637 0.122348
v 0.243978 0.819544 0.134957
v 0.252727 -0.063615 -0.550138
v 0.130222 0.035445 -0.495036
v -0.968902 0.090852 -0.441629
v 0.885866 0.036269 0.258020
v -0.205856 0.652681 0.568663
v 0.131584 0.841779 0.392000
v 0.356249 0.785089 0.104080
v -0.196710 0.557582 -0.107773
v -1.081305 0.150620 0.237028
v -1.027401 0.021645 0.009455
v -0.154860 -0.825690 -0.056219
v -0.318276 -0.688093 0.115289
v -0.388183 -0.561257 0.022914
v -0.238302 -0.558201 -0.117244
v -0.115866 -0.833822 0.108815
v -0.057649 -0.634900 0.366370
v -0.095346 -0.751803 0.176095
v -0.110194 -0.547431 0.340684
v -0.325896 -0.431027 0.385331
v -0.342603 -0.386055 0.377132
v -0.735279 -0.109862 0.405094
v -0.975391 0.106879 0.284532
v -0.849664 0.097523 0.116913
v -0.780762 0.059760 0.302518
v -0.596828 -0.317629 0.336591
v -0.336404 -0.576606 0.271394
v -0.156839 -0.716921 0.146323
v -0.337935 -0.344509 -0.189165
v 0.032169 -0.858152 -0.137242
v -0.254440 -0.224083 0.398479
v -0.439552 -0.187188 0.287298
v -0.652608 -0.174039 0.348674
v -0.938459 0.085553 0.462515
v -0.649634 -0.070907 0.232675
v -0.554305 -0.518331 0.108559
v -0.065794 -0.716163 -0.313992
v 0.205039 -0.730192 0.076747
v -0.173183 -0.378004 0.555267
v -0.527987 -0.068551 0.343729
v -0.698362 -0.057092 0.499276
v -0.802224 -0.036358 -0.022151
v -0.651269 -0.312457 0.292338
v -0.674398 -0.142662 0.060619
v -1.174963 0.206363 -0.041348
v -0.745179 -0.307678 -0.020592
v -0.458161 -0.575640 0.191805
v 0.528943 -0.629700 -0.038595
v 0.461209 -0.577376 0.044910
v 0.213789 -0.575556 0.198951
v -0.010375 -0.791427 0.158757
v 0.040994 -0.610023 0.351220
v -0.066836 -0.559564 0.542215
v 0.055198 -0.338263 0.799948
v -0.170454 -0.212494 0.657426
v -0.243048 -0.092701 0.459110
v -0.342118 0.049201 0.529650
v -0.450675 0.047240 0.456117
v -0.788085 0.171171 0.667652
v -1.174822 0.155270 0.075931
v -1.087138 0.121496 -0.223432
v -0.964643 -0.230185 -0.209107
v -0.498120 -0.272689 -0.121930
v -0.177516 -0.439471 -0.381221
v 0.075229 -0.822175 -0.500165
v 0.181988 -0.829410 -0.531996
v 0.137514 -0.536042 0.384609
v 0.046182 -0.555612 0.577810
v -0.105686 -0.151054 0.797112
v -0.487868 0.251251 0.748807
v -0.971105 0.307125 0.291417
v -1.026970 0.272939 0.128032
v -1.134569 0.298974 -0.116356
v -1.068966 0.257764 -0.292287
v -0.871298 0.304227 -0.473324
v -0.890598 0.049043 -0.573089
v -0.632948 -0.100875 -0.644345
v -0.508979 -0.185133 -0.570900
v -0.239343 -0.359533 -0.643042
v 0.033207 -0.751166 -0.606592
v 0.465153 -0.550113 -0.666805
v 0.438861 -0.731398 -0.244445
v 0.691087 -0.450892 0.019366
v 0.685119 -0.420661 0.069676
v 0.606619 -0.357286 0.108893
v 0.325964 -0.439868 0.184316
v 0.104518 -0.065571 0.929141
v -0.284780 0.208115 0.830783
v -0.157528 0.056909 0.808764
v -0.266258 0.026050 0.682461
v -0.506435 0.111556 0.654620
v -0.552315 0.351246 0.714746
v -0.676065 0.185623 -0.533503
v -0.554965 0.351418 -0.433632
v -0.412213 0.472176 -0.458905
v -0.208387 0.682823 -0.458310
v -0.092223 0.697075 -0.494552
v 0.035222 0.655630 -0.369236
v 0.560243 0.523023 -0.238752
v 0.291621 0.384460 -0.242951
v 0.392084 0.112177 -0.289526
v 0.280918 -0.177527 -0.752658
v 0.216503 -0.714804 -0.632488
v 0.523335 -0.566872 -0.407320
v 0.681270 -0.230527 -0.339767
v 0.077736 -0.454927 0.668322
v 0.308614 -0.263555 0.702604
v 0.182759 0.619796 0.799718
v 0.194766 0.753371 0.558883
v -0.028543 0.752431 0.537774
v -0.113757 0.752545 0.327768
v -0.333230 0.517222 0.081181
v -0.356993 0.514787 -0.167666
v -0.238958 0.657556 -0.268971
v -0.076437 0.700675 -0.131340
v 0.113445 0.836853 -0.142171
v 0.366301 0.803876 -0.130319
v 0.680058 0.205926 -0.295070
v 0.605095 -0.017539 -0.438713
v 0.573948 -0.163297 -0.640206
v 0.621793 -0.395084 -0.639310
v 0.676594 -0.361081 -0.542697
v 0.834180 -0.392308 0.072841
v 0.746865 -0.209337 0.485424
v 0.775710 0.038279 0.681556
v 0.227947 0.805049 0.431363
v 0.912438 0.253011 -0.440142
v 0.830903 -0.141001 -0.577952
v 0.662978 -0.254775 -0.680736
v 1.062173 -0.210003 -0.017850
v 0.802338 -0.419369 0.134786
v 0.512153 -0.200668 0.440527
v 0.268094 -0.336845 0.391517
v 0.456562 -0.195974 0.641012
v 0.656373 -0.261127 0.250419
v 0.713264 -0.120689 0.594255
v 0.761359 0.175530 0.469433
v 0.832910 0.170933 0.355380
v 0.909197 0.075587 0.197848
v 1.026961 0.053739 -0.004858
v 1.127691 0.066388 -0.215142
v 1.097916 0.074372 -0.416424
v 1.034861 0.096868 -0.512866
v 0.820590 -0.169064 -0.472550
v 1.010184 -0.125316 -0.162453
v 0.767737 0.175086 0.575903
v 1.053514 -0.044774 -0.331099
v 0.969389 -0.068282 -0.487085
v 0.964468 -0.257739 0.369149
v 0.796136 -0.221185 0.420530
v 1.086741 -0.088151 -0.100458
v 0.734835 -0.047470 0.405945
v 0.998703 -0.095325 0.219676
v 0.876200 -0.308976 0.348805
v 1.074284 0.233068 -0.399962
v 0.921717 0.353505 -0.281281
v 0.367835 0.654984 0.442751
v 0.695584 0.491328 -0.195882
v 0.843168 0.373854 -0.218730
v 0.847841 0.110318 0.019795
v 0.573617 0.345062 -0.030155
v 0.586097 0.327063 0.188756
v 0.656493 0.274085 -0.086210
v 0.660563 0.203572 0.237584
v 0.592293 0.177252 0.343441
v 0.578185 0.180977 0.553499
v 0.449811 0.392470 0.741209
v 0.400391 0.571447 0.365891
v 0.379651 0.290644 0.550615
v 0.378437 0.350941 0.370833
v 0.491751 0.253252 0.280337
v 0.432902 0.204307 0.411909
v 0.764965 -0.042610 -0.568557
v 0.822576 0.332567 -0.329183
v 0.311011 0.802952 0.018055
v 0.050037 0.782077 -0.213193
v -0.027378 0.701717 -0.371808
v -0.650791 0.398462 -0.262745
v -0.353379 0.569166 0.249133
v -0.512159 0.453843 0.243171
v -0.485124 0.287596 0.062169
v -0.619591 0.302435 -0.080630
v -1.004200 0.376406 -0.039006
v -1.120650 0.324380 0.028387
v -1.037440 0.357399 -0.241181
v -0.896716 0.361953 -0.405013
v -0.894058 0.328432 0.113422
v -0.741360 0.328243 0.181083
v -0.444038 0.489300 0.346455
v -0.805525 0.361554 0.337912
v -0.357705 0.353843 0.780286
v -0.009480 0.392059 0.862056
v -0.182677 0.466788 0.802667
v -0.247394 0.512448 0.682131
v 0.096150 0.538923 0.902242
v 0.176236 0.481188 0.919806
v 0.088486 -0.448536 -0.780272
v 0.033206 -0.276840 -0.794570
v -0.207477 0.587887 -0.602438
v -0.382457 0.242577 -0.427884
v -0.478325 0.110747 -0.474187
v -0.313650 -0.088067 -0.751455
v -0.168718 0.039312 -0.759909
v -0.126423 0.150155 -0.612696
v -0.067770 0.186036 -0.561272
v -0.046336 0.271855 -0.532064
v -0.070202 0.611253 -0.559827
v 0.093073 0.252528 -0.360650
v 0.118031 -0.080604 -0.729413
v -0.055284 0.126366 -0.691527
v -0.088360 0.025478 -0.781998
v -0.203705 -0.367581 -0.668200
v 0.027589 0.468060 -0.371066
v -0.272016 0.337820 -0.480035
v -0.146964 0.220082 -0.558415
v -0.104412 0.409468 -0.617725
v -0.332727 0.034646 -0.559115
v -0.849440 -0.044204 -0.549917
v -0.807679 -0.269061 -0.235923
v -0.711048 -0.336789 -0.034184
v -0.882410 -0.291568 -0.121940
v -1.066593 -0.078345 -0.258543
v -0.402609 -0.199590 -0.301808
v -0.569698 -0.227594 -0.183710
vn 0.0136 0.9970 0.0756
vn 0.4454 0.8751 -0.1892
vn 0.1166 0.9693 0.2164
vn 0.7083 0.6659 0.2341
vn 0.7896 0.3693 0.4901
vn 0.9836 -0.0734 0.1646
vn 0.8197 0.5528 0.1498
vn 0.7049 0.7050 0.0776
vn 0.4482 0.4365 -0.7802
vn 0.4049 -0.5066 0.7612
vn 0.5684 0.0949 0.8173
vn 0.1759 -0.1388 0.9746
vn 0.3666 0.9239 -0.1096
vn 0.6406 0.5933 0.4875
vn 0.7371 0.5987 -0.3135
vn -0.3657 0.8782 0.3083
vn -0.5345 0.8353 0.1291
vn -0.5751 0.8175 0.0305
vn -0.3338 0.7917 -0.5117
vn -0.1042 0.9937 -0.0405
vn -0.1305 0.9731 0.1900
vn -0.3109 0.8651 -0.3935
vn 0.9167 0.1019 0.3864
vn 0.9378 0.2289 0.2609
vn 0.8406 0.4767 -0.2572
vn -0.6385 0.7344 0.2300
vn -0.6477 0.7139 -0.2662
vn -0.5456 0.7761 0.3162
vn 0.6314 -0.5683 -0.5276
vn 0.8332 -0.4216 -0.3579
vn 0.8946 -0.4321 -0.1142
vn -0.1109 -0.1460 0.9830
vn -0.0809 -0.5935 0.8008
vn -0.8006 -0.4303 -0.4169
vn -0.8241 0.2273 -0.5189
vn -0.7825 -0.1020 -0.6142
vn -0.8463 -0.2401 0.4754
vn -0.7518 -0.6147 0.2387
vn -0.8959 0.2666 0.3555
vn 0.3634 -0.8247 -0.4333
vn 0.7032 -0.6125 -0.3611
vn 0.2727 0.2336 0.9333
vn 0.3242 -0.9306 0.1700
vn -0.0500 -0.9933 -0.1044
vn 0.4115 -0.9003 -0.1419
vn 0.8803 0.3665 0.3014
vn 0.5722 0.8052 0.1554
vn -0.7023 0.7107 0.0417
vn -0.5260 0.8487 0.0556
vn -0.4237 0.8989 -0.1117
vn -0.0504 0.9769 0.2078
vn 0.4398 0.8563 0.2708
vn 0.6475 -0.6729 -0.3577
vn 0.9188 -0.1590 -0.3612
vn 0.6531 -0.7217 -0.2295
vn -0.9232 -0.3309 0.1953
vn -0.7614 -0.5779 0.2938
vn -0.4741 -0.6350 -0.6099
vn -0.7342 -0.4637 -0.4959
vn -0.6863 -0.7267 -0.0292
vn -0.4871 -0.7779 0.3970
vn -0.5554 -0.7835 -0.2787
vn -0.1186 -0.9007 0.4179
vn -0.4481 0.1168 0.8863
vn -0.3042 -0.0614 0.9506
vn -0.5620 -0.5604 0.6084
vn -0.4276 -0.4238 0.7985
vn -0.2671 -0.9629 0.0382
vn -0.5855 -0.7940 -0.1635
vn -0.1417 -0.7083 0.6916
vn 0.2057 -0.8285 0.5209
vn -0.7368 -0.0331 0.6753
vn -0.1705 -0.1272 0.9771
vn -0.4423 -0.7501 0.4916
vn -0.5351 -0.5898 0.6048
vn 0.2829 -0.7548 0.5918
vn -0.9090 -0.4161 -0.0218
vn -0.3074 -0.9018 0.3038
vn -0.5051 -0.8148 0.2846
vn -0.2704 -0.4592 0.8462
vn -0.3855 -0.5960 0.7044
vn -0.6577 -0.7527 -0.0308
vn -0.6965 -0.6583 -0.2856
vn -0.4289 -0.7451 0.5107
vn -0.5959 -0.7045 0.3854
vn -0.3918 -0.7979 0.4581
vn -0.7410 -0.2851 0.6080
vn -0.7577 -0.4168 0.5022
vn 0.1411 -0.5937 0.7922
vn -0.8907 -0.1998 0.4082
vn -0.7048 -0.4806 0.5218
vn -0.6207 -0.7072 -0.3385
vn -0.4571 -0.8790 0.1361
vn -0.6792 -0.4679 0.5655
vn -0.9140 -0.3492 0.2065
vn -0.8621 -0.2070 0.4625
vn 0.3928 -0.5307 0.7511
vn 0.5616 -0.5732 0.5967
vn 0.3893 -0.7498 0.5351
vn 0.2687 -0.7992 0.5377
vn 0.4320 -0.8150 0.3861
vn -0.6047 -0.3267 0.7263
vn -0.8682 -0.2913 0.4016
vn -0.4009 -0.1318 0.9066
vn -0.7499 0.0593 0.6589
vn -0.9870 0.0044 -0.1604
vn -0.9615 -0.1267 -0.2437
vn -0.6435 -0.7364 -0.2091
vn -0.3747 -0.9186 -0.1253
vn -0.1292 -0.9849 -0.1154
vn 0.6602 -0.7481 -0.0665
vn 0.7244 -0.6890 -0.0240
vn 0.5819 -0.7305 0.3573
vn 0.5084 -0.5766 0.6396
vn 0.6623 -0.6851 0.3033
vn -0.6596 -0.5836 0.4737
vn -0.0322 -0.8150 0.5786
vn -0.6089 0.7214 0.3298
vn -0.6118 0.7864 0.0851
vn -0.3428 0.8418 0.4170
vn -0.6480 0.5974 0.4724
vn -0.3341 0.4901 -0.8051
vn -0.4027 0.4506 -0.7968
vn -0.1643 0.3522 -0.9214
vn -0.5798 -0.5762 -0.5761
vn -0.5908 0.1250 -0.7970
vn -0.4401 -0.4949 -0.7493
vn -0.4999 -0.5755 -0.6472
vn -0.8354 -0.5206 -0.1764
vn -0.5201 -0.8149 -0.2559
vn -0.4504 -0.6632 -0.5978
vn 0.1783 -0.9205 -0.3478
vn 0.5357 -0.5765 -0.6169
vn 0.8426 -0.5375 -0.0343
vn 0.0910 -0.7747 0.6258
vn 0.6184 -0.7239 0.3058
vn 0.7428 -0.6405 0.1951
vn 0.3266 -0.7435 0.5836
vn 0.4981 -0.7303 0.4676
vn -0.3546 -0.1981 0.9138
vn -0.5023 -0.3071 0.8084
vn -0.1040 0.0887 0.9906
vn -0.3340 0.4119 0.8478
vn -0.5047 0.6198 0.6010
vn -0.4180 0.8808 0.2225
vn 0.0662 0.3728 -0.9255
vn -0.3521 0.9010 -0.2534
vn -0.2854 0.3913 -0.8749
vn 0.1214 0.8485 -0.5151
vn 0.5214 0.4127 -0.7469
vn 0.1260 0.2093 -0.9697
vn 0.2193 0.0694 -0.9732
vn 0.3340 -0.7869 0.5189
vn 0.9094 -0.1439 0.3903
vn 0.1828 0.8597 0.4769
vn -0.2307 0.8293 0.5090
vn 0.2031 0.7730 0.6010
vn -0.2533 0.9108 0.3260
vn -0.1150 0.9916 -0.0585
vn -0.5619 0.8094 0.1708
vn -0.6309 0.7466 -0.2111
vn -0.4975 0.8393 0.2191
vn 0.2026 0.7635 -0.6133
vn -0.1011 0.4792 -0.8719
vn 0.0788 0.6672 -0.7407
vn -0.2118 0.7169 -0.6643
vn 0.7439 -0.6599 0.1053
vn 0.4356 -0.8799 -0.1898
vn 0.2264 -0.9316 0.2845
vn 0.6631 0.6967 0.2736
vn 0.7720 0.5351 0.3431
vn 0.7850 0.6139 0.0831
vn -0.1107 0.6704 -0.7337
vn -0.1407 0.7058 -0.6943
vn 0.1935 0.5944 -0.7806
vn 0.5585 0.0561 -0.8276
vn 0.7974 -0.6035 -0.0026
vn 0.0674 -0.9788 0.1935
vn 0.3980 -0.8632 0.3107
vn 0.5630 -0.6019 0.5664
vn -0.0888 -0.8782 0.4699
vn 0.0970 -0.8289 0.5508
vn 0.3889 0.8416 0.3748
vn 0.7403 0.4788 0.4719
vn 0.9955 0.0274 0.0910
vn 0.6561 -0.7472 0.1058
vn 0.6215 -0.2996 -0.7239
vn 0.3948 -0.8015 -0.4492
vn 0.6672 -0.7441 0.0330
vn 0.9642 -0.2525 -0.0814
vn 0.6313 -0.1969 0.7501
vn 0.6814 0.2611 0.6838
vn 0.8822 0.0231 0.4704
vn 0.7739 0.1734 0.6091
vn 0.4340 0.0094 -0.9008
vn 0.6723 -0.5515 -0.4939
vn 0.4299 0.8789 0.2066
vn 0.8579 0.4932 0.1439
vn 0.4172 0.8613 0.2899
vn 0.5515 0.6096 0.5694
vn 0.8849 0.3348 0.3237
vn 0.8386 0.3798 0.3906
vn 0.6678 0.7223 0.1796
vn 0.7262 0.6503 0.2230
vn 0.5653 0.4976 0.6579
vn 0.1456 0.9632 0.2258
vn 0.2469 0.9349 -0.2548
vn 0.7985 0.5999 0.0502
vn 0.6161 0.7754 0.1383
vn 0.0899 -0.6876 0.7205
vn 0.1493 0.9780 -0.1455
vn -0.2230 0.9578 -0.1814
vn 0.0265 0.9323 -0.3607
vn 0.0355 0.8989 0.4367
vn -0.5869 0.8003 0.1229
vn -0.6006 0.7612 -0.2446
vn -0.3211 0.3685 -0.8724
vn 0.2348 0.2056 -0.9500
vn 0.1186 0.5113 -0.8512
vn 0.2834 0.7896 -0.5442
vn 0.0426 0.9539 0.2972
vn -0.1064 0.9872 0.1186
vn -0.2584 0.9479 0.1864
vn -0.4752 0.1337 -0.8696
vn -0.1270 0.4030 -0.9063
vn 0.1881 0.9290 -0.3187
vn 0.5508 0.4021 -0.7314
vn -0.2863 0.8904 -0.3538
vn -0.5652 0.7723 -0.2900
vn -0.8559 0.5148 -0.0485
vn -0.4078 0.7017 0.5842
vn -0.0830 0.9615 -0.2618
vn -0.4516 0.8184 -0.3555
vn -0.4359 0.8809 -0.1846
vn -0.3149 0.9491 -0.0083
vn -0.5691 0.8223 0.0005
vn -0.3227 0.9422 -0.0906
vn -0.3297 0.3399 0.8808
vn -0.2982 -0.1739 0.9385
vn -0.3541 0.6592 0.6634
vn -0.1718 0.4519 0.8754
vn 0.1574 0.1098 0.9814
vn -0.1573 0.0278 0.9872
vn -0.5831 0.7799 -0.2275
vn -0.0763 -0.0355 -0.9965
vn 0.2077 0.5006 -0.8404
vn 0.1113 -0.2842 -0.9523
vn -0.1927 0.1641 -0.9674
vn 0.1617 0.4742 -0.8655
vn 0.1206 0.5193 -0.8461
vn -0.3000 0.2094 -0.9307
vn -0.4228 -0.3997 -0.8133
vn 0.7005 0.0473 -0.7121
vn 0.5488 0.3239 -0.7706
vn 0.6734 -0.0051 -0.7393
vn -0.2115 -0.3022 -0.9295
vn 0.1622 -0.6131 -0.7732
vn 0.0870 0.3767 -0.9223
vn -0.3539 0.5636 -0.7464
vn 0.2376 0.7969 -0.5555
vn -0.4633 -0.1269 -0.8771
vn 0.2123 -0.1107 -0.9709
vn -0.2056 0.2370 -0.9495
vn -0.0748 -0.7307 0.6786
vn -0.4565 -0.8210 0.3428
vn -0.4729 -0.8533 -0.2196
vn -0.4037 -0.8989 -0.1702
vn -0.4154 -0.7583 -0.5024
vn 0.0069 -0.9523 -0.3050
vn -0.0306 -0.8470 -0.5307
vn -0.3666 -0.8648 -0.3431
vn 0.0105 -0.8641 -0.5031
vn -0.2730 -0.7027 -0.6571
vn -0.5503 -0.5061 -0.6641
vn -0.3881 -0.3637 0.8468
vn -0.2439 0.4911 0.8362
vn -0.3978 0.8746 0.2770
vn 0.8282 -0.3844 0.4078
vn 0.4059 0.5395 -0.7377
vn -0.7394 -0.6615 -0.1252
vn -0.6467 -0.5681 -0.5090
vn -0.4340 -0.4676 0.7700
vn -0.5763 0.8172 0.0057
vn -0.0918 0.0321 0.9953
vn -0.2761 0.6944 -0.6645
vn -0.2815 0.7472 -0.6021
vn 0.4237 0.5841 -0.6923
vn 0.3985 0.6480 -0.6491
vt 0.045578 0.162027
vt 0.033752 0.127939
vt 0.067048 0.143165
vt 0.888889 0.542116
vt 0.869481 0.564431
vt 0.835698 0.533309
vt 0.735051 0.389056
vt 0.708947 0.355466
vt 0.769737 0.364358
vt 0.319612 0.478915
vt 0.285494 0.452894
vt 0.366795 0.440188
vt 0.651787 0.296460
vt 0.600828 0.313511
vt 0.620544 0.262676
vt 0.263721 0.685878
vt 0.312141 0.717974
vt 0.268742 0.736700
vt 0.644040 0.729226
vt 0.655803 0.695109
vt 0.692246 0.690772
vt 0.701711 0.705644
vt 0.962929 0.665200
vt 0.965815 0.707405
vt 0.923771 0.650516
vt 0.222801 0.114367
vt 0.229157 0.052712
vt 0.268175 0.114025
vt 0.290194 0.074347
vt 0.338809 0.876856
vt 0.274789 0.902651
vt 0.287647 0.859461
vt 0.421508 0.437664
vt 0.449573 0.495780
vt 0.586482 0.687269
vt 0.537028 0.718834
vt 0.525139 0.670639
vt 0.141743 0.264511
vt 0.179518 0.250817
vt 0.150793 0.279208
vt 0.379007 0.904898
vt 0.409427 0.859948
vt 0.312982 0.401782
vt 0.145740 0.456794
vt 0.189093 0.476665
vt 0.109829 0.500133
vt 0.722857 0.491934
vt 0.713513 0.439608
vt 0.755705 0.467411
vt 0.292157 0.773512
vt 0.322819 0.767284
vt 0.167801 0.223893
vt 0.136952 0.241837
vt 0.122571 0.205167
vt 0.083890 0.254834
vt 0.060871 0.254017
vt 0.022906 0.180991
vt 0.796241 0.400749
vt 0.839329 0.406958
vt 0.815907 0.431365
vt 0.138834 0.544250
vt 0.181569 0.522163
vt 0.206995 0.553896
vt 0.452193 0.046130
vt 0.492284 0.070490
vt 0.423205 0.072287
vt 0.267452 0.462618
vt 0.233641 0.477935
vt 0.254424 0.449626
vt 0.553097 0.832004
vt 0.507922 0.860934
vt 0.489998 0.844169
vt 0.543721 0.811668
vt 0.907449 0.966381
vt 0.936372 0.928996
vt 0.944546 0.961414
vt 0.502100 0.789362
vt 0.239457 0.419145
vt 0.878842 0.448545
vt 0.896531 0.494847
vt 0.871755 0.491289
vt 0.269234 0.024529
vt 0.321469 0.025593
vt 0.275894 0.042176
vt 0.937138 0.887623
vt 0.890922 0.928647
vt 0.479829 0.814232
vt 0.496627 0.725366
vt 0.950562 0.133657
vt 0.933550 0.113366
vt 0.945895 0.114851
vt 0.412701 0.031844
vt 0.433345 0.020091
vt 0.533144 0.144795
vt 0.498732 0.184249
vt 0.460185 0.131447
vt 0.968694 0.238863
vt 0.946858 0.202552
vt 0.962250 0.190907
vt 0.597749 0.806365
vt 0.586196 0.851969
vt 0.904670 0.432060
vt 0.938376 0.496904
vt 0.962564 0.847082
vt 0.959836 0.880211
vt 0.625462 0.693247
vt 0.616786 0.659915
vt 0.644037 0.650164
vt 0.889401 0.829938
vt 0.941774 0.818874
vt 0.908772 0.860079
vt 0.478960 0.758190
vt 0.476650 0.726608
vt 0.934259 0.129320
vt 0.125253 0.373921
vt 0.190656 0.364392
vt 0.181873 0.414690
vt 0.473875 0.567153
vt 0.498641 0.607472
vt 0.474607 0.620070
vt 0.990840 0.318879
vt 0.960170 0.346493
vt 0.944445 0.273620
vt 0.929992 0.320155
vt 0.299167 0.050397
vt 0.238127 0.274414
vt 0.197793 0.276977
vt 0.218246 0.254210
vt 0.202939 0.513151
vt 0.249902 0.526767
vt 0.720054 0.598461
vt 0.710469 0.560243
vt 0.741100 0.584218
vt 0.569139 0.183446
vt 0.528567 0.199106
vt 0.094136 0.449941
vt 0.061037 0.343185
vt 0.101963 0.392658
vt 0.167468 0.336404
vt 0.448464 0.608049
vt 0.430473 0.641554
vt 0.987252 0.373950
vt 0.044087 0.643706
vt 0.009728 0.613042
vt 0.033315 0.577604
vt 0.952232 0.455741
vt 0.989278 0.497436
vt 0.183871 0.297901
vt 0.931030 0.101778
vt 0.911124 0.083433
vt 0.962687 0.084980
vt 0.938536 0.063451
vt 0.893934 0.067878
vt 0.905483 0.046867
vt 0.765582 0.063133
vt 0.759324 0.043346
vt 0.802299 0.031374
vt 0.649062 0.751626
vt 0.653717 0.792955
vt 0.622651 0.782400
vt 0.510874 0.562405
vt 0.526625 0.615579
vt 0.508796 0.632311
vt 0.522719 0.556253
vt 0.646008 0.080868
vt 0.564745 0.070763
vt 0.637271 0.061992
vt 0.601839 0.170328
vt 0.101119 0.536933
vt 0.021059 0.519191
vt 0.036783 0.465269
vt 0.062532 0.442900
vt 0.066328 0.399399
vt 0.068295 0.324398
vt 0.393915 0.644317
vt 0.394891 0.594252
vt 0.428716 0.568329
vt 0.458092 0.537129
vt 0.390880 0.518006
vt 0.099188 0.642757
vt 0.068248 0.608386
vt 0.084467 0.596232
vt 0.274503 0.325336
vt 0.236088 0.314950
vt 0.302963 0.376999
vt 0.254006 0.351486
vt 0.699862 0.779646
vt 0.715135 0.829052
vt 0.775580 0.675982
vt 0.822765 0.658272
vt 0.828797 0.675452
vt 0.165210 0.035205
vt 0.143758 0.031102
vt 0.137863 0.008567
vt 0.430209 0.856462
vt 0.469008 0.891303
vt 0.415174 0.882609
vt 0.300694 0.526222
vt 0.257884 0.495800
vt 0.406118 0.744147
vt 0.356491 0.692405
vt 0.416530 0.680627
vt 0.355861 0.745113
vt 0.090600 0.166157
vt 0.189985 0.127365
vt 0.224521 0.163665
vt 0.181845 0.077039
vt 0.031314 0.087989
vt 0.053328 0.105628
vt 0.746004 0.255451
vt 0.760172 0.197266
vt 0.790609 0.245773
vt 0.259695 0.827335
vt 0.314307 0.817442
vt 0.361776 0.811941
vt 0.328478 0.572701
vt 0.651509 0.887738
vt 0.582237 0.883666
vt 0.647379 0.858475
vt 0.460310 0.708638
vt 0.479521 0.655531
vt 0.492049 0.679235
vt 0.415250 0.782758
vt 0.388197 0.782748
vt 0.781879 0.404544
vt 0.684674 0.290280
vt 0.655342 0.260063
vt 0.850631 0.364510
vt 0.831585 0.381910
vt 0.803465 0.358847
vt 0.110307 0.826609
vt 0.136746 0.799206
vt 0.171269 0.834343
vt 0.031577 0.310804
vt 0.044332 0.294382
vt 0.342017 0.527223
vt 0.276321 0.562388
vt 0.297748 0.621177
vt 0.243412 0.611592
vt 0.597488 0.373944
vt 0.569299 0.406043
vt 0.565165 0.344423
vt 0.867364 0.386135
vt 0.858914 0.448285
vt 0.049182 0.846659
vt 0.054747 0.873804
vt 0.392428 0.809173
vt 0.817130 0.522792
vt 0.802323 0.563548
vt 0.783597 0.553875
vt 0.812450 0.479734
vt 0.787378 0.441480
vt 0.835226 0.488237
vt 0.850207 0.579435
vt 0.680729 0.960285
vt 0.655854 0.961804
vt 0.680922 0.922212
vt 0.659338 0.906645
vt 0.624809 0.921384
vt 0.013570 0.865569
vt 0.541905 0.355987
vt 0.226305 0.626208
vt 0.258195 0.648380
vt 0.110225 0.877366
vt 0.134921 0.852215
vt 0.017887 0.891511
vt 0.652814 0.245904
vt 0.613397 0.451436
vt 0.012215 0.245275
vt 0.751501 0.501133
vt 0.666079 0.323909
vt 0.657614 0.382050
vt 0.679553 0.400216
vt 0.657433 0.450772
vt 0.560584 0.482330
vt 0.564455 0.447877
vt 0.877047 0.666622
vt 0.901924 0.713103
vt 0.945764 0.739849
vt 0.643938 0.483623
vt 0.609695 0.483655
vt 0.921236 0.602209
vt 0.876612 0.615322
vt 0.899769 0.564960
vt 0.668005 0.500185
vt 0.955511 0.605434
vt 0.955314 0.630772
vt 0.309071 0.648083
vt 0.756741 0.308434
vt 0.741887 0.312316
vt 0.059661 0.188312
vt 0.087663 0.126036
vt 0.063393 0.171703
vt 0.064245 0.155603
vt 0.145222 0.119869
vt 0.149067 0.180358
vt 0.812021 0.305684
vt 0.173799 0.909197
vt 0.104450 0.897722
vt 0.854293 0.254957
vt 0.902062 0.300897
vt 0.838668 0.181397
vt 0.307061 0.124042
vt 0.383064 0.160490
vt 0.389719 0.116270
vt 0.770980 0.696360
vt 0.730537 0.724165
vt 0.125073 0.062211
vt 0.100296 0.054579
vt 0.102792 0.100179
vt 0.368999 0.078615
vt 0.844837 0.083164
vt 0.807837 0.059085
vt 0.839916 0.054051
vt 0.302579 0.688244
vt 0.422324 0.165158
vt 0.407964 0.208137
vt 0.340668 0.180955
vt 0.280063 0.192077
vt 0.286165 0.157420
vt 0.227118 0.738067
vt 0.247148 0.768935
vt 0.193746 0.756029
vt 0.206272 0.674728
vt 0.141794 0.695773
vt 0.156752 0.739637
vt 0.333152 0.341882
vt 0.363741 0.314905
vt 0.311053 0.304632
vt 0.337929 0.390717
vt 0.347269 0.405898
vt 0.413083 0.650992
vt 0.444320 0.651580
vt 0.435659 0.308056
vt 0.414701 0.371183
vt 0.178347 0.201356
vt 0.705320 0.116780
vt 0.727905 0.148287
vt 0.680738 0.182381
vt 0.769512 0.752757
vt 0.703778 0.749297
vt 0.749248 0.785528
vt 0.795221 0.855600
vt 0.766308 0.859801
vt 0.450105 0.944879
vt 0.500775 0.930005
vt 0.503796 0.983883
vt 0.662835 0.145194
vt 0.638526 0.202004
vt 0.748609 0.063348
vt 0.706941 0.045538
vt 0.723221 0.036238
vt 0.677940 0.013513
vt 0.860303 0.814303
vt 0.852729 0.837791
vt 0.836232 0.836540
vt 0.798838 0.732658
vt 0.849390 0.711639
vt 0.837790 0.765560
vt 0.600941 0.207575
vt 0.939676 0.396430
vt 0.985588 0.441824
vt 0.944085 0.430224
vt 0.048778 0.550214
vt 0.584155 0.023029
vt 0.644049 0.005629
vt 0.558276 0.528050
vt 0.586475 0.621648
vt 0.604559 0.580105
vt 0.625934 0.628519
vt 0.678214 0.619896
vt 0.641527 0.571573
vt 0.667084 0.559804
vt 0.686476 0.635437
vt 0.576724 0.654654
vt 0.620530 0.533646
vt 0.639765 0.825787
vt 0.626799 0.843075
vt 0.235516 0.582959
vt 0.199787 0.567754
vt 0.035787 0.781699
vt 0.059953 0.707470
vt 0.092521 0.704810
vt 0.073937 0.760255
vt 0.367842 0.378485
vt 0.120423 0.256623
vt 0.358647 0.776145
vt 0.275771 0.529055
vt 0.010719 0.277613
vt 0.244373 0.896667
vt 0.740906 0.116530
vt 0.147281 0.508716
vt 0.424997 0.109060
vt 0.961210 0.131219
vt 0.359756 0.033419
vt 0.351522 0.062109
vt 0.287967 0.017686
vt 0.270304 0.007379
vt 0.552801 0.753874
vt 0.509658 0.717541
vt 0.529704 0.024517
vt 0.263418 0.386257
vt 0.253162 0.420032
vt 0.950142 0.160734
vt 0.583877 0.779648
vt 0.875383 0.507118
vt 0.328314 0.057985
vt 0.039349 0.815507
vt 0.010041 0.795796
vt 0.873987 0.957123
vt 0.848804 0.922230
vt 0.967709 0.921236
vt 0.359356 0.014105
vt 0.382555 0.022711
vt 0.088099 0.573365
vt 0.129029 0.565073
vt 0.878066 0.884601
vt 0.842241 0.872535
vt 0.247569 0.559693
vt 0.500958 0.015305
vt 0.239964 0.375129
vt 0.493174 0.573482
vt 0.020095 0.756999
vt 0.055536 0.806601
vt 0.735143 0.623872
vt 0.763064 0.608089
vt 0.761080 0.627140
vt 0.758184 0.582109
vt 0.899036 0.377647
vt 0.870624 0.042003
vt 0.819093 0.017574
vt 0.414560 0.228921
vt 0.409274 0.239969
vt 0.699292 0.857611
vt 0.705325 0.887465
vt 0.554092 0.719393
vt 0.767552 0.006066
vt 0.648507 0.813003
vt 0.517505 0.508878
vt 0.429091 0.277703
vt 0.475189 0.259877
vt 0.395365 0.235405
vt 0.356304 0.209381
vt 0.870584 0.073516
vt 0.811026 0.134845
vt 0.737813 0.189297
vt 0.047087 0.537581
vt 0.326415 0.907078
vt 0.095979 0.308289
vt 0.796246 0.330795
vt 0.878087 0.340432
vt 0.188943 0.857370
vt 0.596339 0.916815
vt 0.289668 0.803288
vt 0.329114 0.783553
vt 0.082821 0.286964
vt 0.261843 0.582408
vt 0.580578 0.293325
vt 0.362561 0.784327
vt 0.621428 0.964677
vt 0.614427 0.950789
vt 0.711977 0.959713
vt 0.723623 0.913479
vt 0.741389 0.943585
vt 0.553883 0.415978
vt 0.861617 0.490534
vt 0.706896 0.902117
vt 0.730117 0.907063
vt 0.780298 0.911935
vt 0.754951 0.919621
vt 0.886934 0.555550
vt 0.225409 0.654817
vt 0.456482 0.775469
vt 0.582368 0.500159
vt 0.551777 0.500026
vt 0.633174 0.500406
vt 0.976685 0.641731
vt 0.035996 0.326269
vt 0.054505 0.903432
vt 0.750916 0.341463
vt 0.784564 0.140180
vt 0.264340 0.788589
vt 0.787424 0.090713
vt 0.173377 0.650824
vt 0.129717 0.654241
vt 0.436981 0.146757
vt 0.425415 0.128870
vt 0.473904 0.341764
vt 0.467942 0.395944
vt 0.436624 0.408691
vt 0.367054 0.423643
vt 0.502502 0.375781
vt 0.522202 0.312961
vt 0.415098 0.934675
vt 0.847233 0.669264
vt 0.783436 0.809483
vt 0.842481 0.792436
vt 0.858762 0.778488
vt 0.860510 0.750975
vt 0.427361 0.985204
vt 0.541180 0.951763
vt 0.528049 0.987068
vt 0.895903 0.235237
vt 0.883353 0.177478
vt 0.852848 0.121238
vt 0.913544 0.119659
vt 0.926020 0.143456
vt 0.904284 0.098909
vt 0.498185 0.884108
vt 0.466088 0.994506
vt 0.672880 0.227719
vt 0.657747 0.515730
s 1
usemtl Asteroid2d
f 239/1/1 181/2/2 20/3/3
f 203/4/4 217/5/5 4/6/6
f 3/7/7 222/8/8 40/9/9
f 31/10/10 32/11/11 33/12/12
f 220/13/13 50/14/14 219/15/15
f 41/16/16 70/17/17 45/18/18
f 250/19/19 44/20/20 242/21/21
f 242/21/21 43/22/22 250/19/19
f 234/23/23 232/24/24 233/25/25
f 177/26/26 46/27/27 47/28/28
f 46/27/27 242/29/21 47/28/28
f 34/30/29 48/31/30 10/32/31
f 33/12/12 151/33/32 118/34/33
f 286/35/34 138/36/35 68/37/36
f 74/38/37 98/39/38 35/40/39
f 187/41/40 34/30/29 194/42/41
f 33/12/12 32/11/11 14/43/42
f 49/44/43 94/45/44 15/46/45
f 232/47/24 29/48/46 72/49/47
f 62/50/48 70/17/17 175/51/49
f 62/52/48 175/53/49 27/54/50
f 71/55/51 190/56/52 72/57/47
f 212/58/53 206/59/54 211/60/55
f 74/61/37 124/62/56 19/63/57
f 78/64/58 79/65/59 77/66/60
f 17/67/61 76/68/62 80/69/63
f 85/70/64 90/71/65 39/72/66
f 39/72/66 84/73/67 85/70/64
f 87/74/68 89/75/69 98/76/38
f 91/77/70 84/73/67 39/72/66
f 94/45/44 115/78/71 80/69/63
f 95/79/72 96/80/73 85/81/64
f 38/82/74 97/83/75 105/84/76
f 99/85/77 89/75/69 88/86/78
f 39/72/66 111/87/79 91/77/70
f 91/77/70 92/88/80 84/73/67
f 82/89/81 17/90/61 80/91/63
f 77/66/60 111/92/79 100/93/82
f 101/94/83 94/95/44 76/96/62
f 117/97/84 83/98/85 81/99/86
f 103/100/87 85/70/64 84/73/67
f 103/100/87 95/101/72 85/70/64
f 120/102/88 104/103/89 96/80/73
f 99/85/77 107/104/90 97/105/75
f 12/106/91 126/107/92 285/108/93
f 110/109/94 60/110/95 108/111/96
f 107/104/90 108/111/96 60/110/95
f 111/87/79 77/112/60 91/77/70
f 91/77/70 17/113/61 92/88/80
f 92/114/80 17/90/61 82/89/81
f 113/115/97 114/116/98 102/117/99
f 115/78/71 102/117/99 114/116/98
f 132/118/100 81/119/86 116/120/101
f 118/121/33 133/122/102 103/123/87
f 119/124/103 103/123/87 133/122/102
f 105/84/76 97/83/75 104/125/89
f 123/126/104 53/127/105 38/128/74
f 19/63/57 109/129/106 125/130/107
f 286/35/34 126/107/92 12/106/91
f 16/131/108 78/132/58 100/133/82
f 129/134/109 59/135/110 101/94/83
f 146/136/111 147/137/112 112/138/113
f 113/115/97 150/139/114 114/116/98
f 131/140/115 116/120/101 114/141/98
f 151/142/32 133/122/102 118/121/33
f 154/143/116 119/144/103 133/145/102
f 122/146/117 105/147/76 104/103/89
f 53/127/105 35/40/39 98/39/38
f 35/40/39 53/127/105 36/148/118
f 135/149/119 136/150/120 35/151/39
f 74/152/37 37/153/121 124/154/56
f 74/152/37 35/151/39 136/150/120
f 250/155/19 139/156/122 138/157/35
f 139/158/122 21/159/123 68/160/36
f 13/161/124 282/162/125 140/163/126
f 13/161/124 141/164/127 282/162/125
f 276/165/128 128/166/129 143/167/130
f 276/165/128 144/168/131 101/94/83
f 15/46/45 130/169/132 145/170/133
f 15/46/45 145/170/133 146/136/111
f 168/171/134 10/172/31 146/136/111
f 48/173/30 147/137/112 146/136/111
f 148/174/135 112/138/113 147/137/112
f 148/174/135 113/115/97 112/138/113
f 114/141/98 150/175/114 197/176/136
f 24/177/137 132/118/100 131/140/115
f 24/177/137 170/178/138 132/118/100
f 118/34/33 171/179/139 33/12/12
f 31/10/10 33/12/12 171/179/139
f 152/180/140 153/181/141 26/182/142
f 152/180/140 154/143/116 153/181/141
f 156/183/143 9/184/144 123/126/104
f 156/183/143 41/185/16 42/186/145
f 21/159/123 157/187/146 13/188/124
f 46/189/27 160/190/147 263/191/148
f 160/192/147 161/193/149 271/194/150
f 163/195/151 164/196/152 40/197/9
f 6/198/153 189/199/154 31/10/10
f 173/200/155 23/201/156 172/202/157
f 23/201/156 173/200/155 174/203/158
f 71/55/51 28/204/159 27/54/50
f 73/205/160 177/26/26 176/206/161
f 177/26/26 73/205/160 178/207/162
f 181/2/2 40/208/9 7/209/163
f 237/210/164 184/211/165 183/212/166
f 168/213/134 169/214/167 10/32/31
f 22/215/168 34/30/29 169/214/167
f 150/175/114 196/216/169 197/176/136
f 58/217/170 14/218/42 32/219/11
f 11/220/171 14/221/42 231/222/172
f 190/223/52 71/224/51 173/200/155
f 3/7/7 181/225/2 72/49/47
f 238/226/173 220/13/13 191/227/174
f 55/228/175 207/229/176 237/230/164
f 186/231/177 168/232/134 145/233/133
f 187/234/40 195/235/178 148/174/135
f 148/174/135 147/137/112 187/234/40
f 197/176/136 196/216/169 198/236/179
f 196/216/169 6/198/153 198/236/179
f 188/237/180 199/238/181 218/239/182
f 224/240/183 203/241/4 204/242/184
f 206/59/54 219/243/15 205/244/185
f 208/245/186 186/231/177 192/246/187
f 209/247/188 194/42/41 22/215/168
f 194/248/41 56/249/189 187/250/40
f 206/59/54 205/244/185 211/60/55
f 211/60/55 209/251/188 22/252/168
f 215/253/190 209/251/188 211/60/55
f 215/253/190 194/248/41 209/251/188
f 217/5/5 213/254/191 4/6/6
f 188/255/180 214/256/192 216/257/193
f 216/257/193 214/256/192 69/258/194
f 214/256/192 217/259/5 69/258/194
f 192/246/187 212/260/53 208/245/186
f 204/242/184 203/241/4 4/261/6
f 213/262/191 218/239/182 195/263/178
f 193/264/195 192/246/187 185/265/196
f 192/246/187 207/266/176 212/260/53
f 55/267/175 191/227/174 219/15/15
f 224/240/183 228/268/197 203/241/4
f 221/269/198 72/57/47 190/56/52
f 221/270/198 232/47/24 72/49/47
f 219/15/15 191/227/174 220/13/13
f 223/271/199 50/14/14 220/13/13
f 224/240/183 227/272/200 228/268/197
f 228/268/197 225/273/201 226/274/202
f 223/271/199 224/240/183 50/14/14
f 222/8/8 225/273/201 227/272/200
f 29/48/46 225/273/201 3/7/7
f 201/275/203 202/276/204 228/268/197
f 231/277/172 233/25/25 11/278/171
f 233/25/25 232/24/24 11/278/171
f 232/24/24 221/279/198 11/278/171
f 235/280/205 228/268/197 226/274/202
f 229/281/206 228/268/197 235/280/205
f 230/282/207 58/283/170 210/284/208
f 230/282/207 231/277/172 58/283/170
f 235/280/205 226/274/202 234/285/23
f 230/282/207 229/286/206 236/287/209
f 236/287/209 234/23/23 233/25/25
f 196/216/169 149/288/210 199/238/181
f 237/210/164 191/289/174 55/290/175
f 181/225/2 3/7/7 40/9/9
f 72/57/47 65/291/211 71/55/51
f 20/3/3 181/2/2 180/292/212
f 239/1/1 5/293/213 65/291/211
f 61/294/214 28/204/159 5/293/213
f 179/295/215 64/296/216 28/204/159
f 28/204/159 180/292/212 179/295/215
f 73/205/160 64/296/216 179/295/215
f 191/289/174 183/212/166 182/297/217
f 170/178/138 24/177/137 171/179/139
f 193/264/195 54/298/218 184/299/165
f 182/297/217 165/300/219 164/301/152
f 184/211/165 66/302/220 183/212/166
f 46/27/27 177/26/26 178/207/162
f 242/29/21 246/303/221 47/28/28
f 251/304/222 246/303/221 242/29/21
f 247/305/223 251/304/222 242/29/21
f 43/22/22 159/306/224 158/307/225
f 160/192/147 241/308/226 161/193/149
f 162/309/227 240/310/228 7/209/163
f 46/27/27 178/207/162 160/192/147
f 247/305/223 242/29/21 44/311/20
f 247/312/223 249/313/229 137/314/230
f 43/22/22 139/158/122 250/19/19
f 242/21/21 46/189/27 43/22/22
f 62/50/48 45/18/18 70/17/17
f 70/17/17 41/16/16 25/315/231
f 251/304/222 136/316/120 135/317/119
f 136/316/120 251/304/222 247/305/223
f 251/304/222 252/318/232 246/303/221
f 252/318/232 244/319/233 245/320/234
f 253/321/235 243/322/236 244/323/233
f 253/321/235 244/323/233 42/324/145
f 254/325/237 244/323/233 252/326/232
f 41/185/16 156/183/143 255/327/238
f 152/328/140 255/327/238 134/329/239
f 258/330/240 25/331/231 41/185/16
f 259/332/241 260/333/242 172/202/157
f 259/332/241 172/202/157 23/201/156
f 152/328/140 26/334/142 256/335/243
f 123/126/104 134/329/239 156/183/143
f 18/336/244 64/296/216 73/205/160
f 262/337/245 166/338/246 2/339/247
f 162/309/227 161/193/149 241/308/226
f 264/340/248 158/307/225 159/306/224
f 8/341/249 158/307/225 265/342/250
f 157/187/146 265/342/250 13/188/124
f 13/188/124 266/343/251 51/344/252
f 277/345/253 272/346/254 270/347/255
f 261/348/256 167/349/257 144/168/131
f 275/350/258 266/351/251 267/352/259
f 276/165/128 261/348/256 144/168/131
f 143/167/130 51/353/252 276/165/128
f 274/354/260 275/355/258 267/356/259
f 278/357/261 264/340/248 159/306/224
f 280/358/262 279/359/263 278/357/261
f 279/359/263 264/340/248 278/357/261
f 130/360/132 144/168/131 167/349/257
f 162/309/227 7/209/163 40/208/9
f 154/361/116 155/362/264 121/363/265
f 133/145/102 151/364/32 153/181/141
f 287/365/266 142/366/267 143/167/130
f 141/164/127 142/367/267 1/368/268
f 30/369/269 283/370/270 1/368/268
f 284/371/271 283/370/270 288/372/272
f 288/372/272 127/373/273 284/371/271
f 16/131/108 110/374/94 284/371/271
f 1/368/268 283/370/270 126/107/92
f 126/107/92 52/375/274 1/368/268
f 285/108/93 126/107/92 283/370/270
f 283/370/270 284/371/271 285/108/93
f 52/375/274 126/107/92 286/35/34
f 52/375/274 286/35/34 68/37/36
f 284/371/271 78/132/58 16/131/108
f 30/369/269 142/367/267 287/376/266
f 1/368/268 142/367/267 30/369/269
f 288/372/272 283/370/270 30/369/269
f 36/148/118 53/127/105 9/184/144
f 104/103/89 120/102/88 122/146/117
f 95/101/72 119/377/103 120/378/88
f 103/123/87 117/97/84 118/121/33
f 94/45/44 49/44/43 102/117/99
f 19/63/57 12/379/91 75/380/275
f 156/183/143 42/186/145 9/184/144
f 124/62/56 109/129/106 19/63/57
f 282/162/125 141/164/127 1/368/268
f 38/381/74 155/382/264 134/383/239 123/384/104
f 257/385/276 25/331/231 258/330/240
f 71/55/51 175/53/49 63/386/277
f 28/204/159 64/296/216 27/54/50
f 174/203/158 71/224/51 63/387/277
f 5/293/213 28/204/159 65/291/211
f 6/198/153 200/388/278 189/199/154
f 195/235/178 187/234/40 56/389/189
f 10/32/31 48/31/30 146/390/111
f 166/338/246 262/337/245 273/391/279
f 15/46/45 94/45/44 59/392/110
f 173/200/155 71/224/51 174/203/158
f 18/336/244 62/52/48 27/54/50
f 79/65/59 76/96/62 77/66/60
f 76/96/62 17/393/61 77/66/60
f 115/394/71 82/89/81 80/91/63
f 90/395/65 96/396/73 97/83/75
f 86/397/280 38/82/74 89/398/69
f 87/74/68 88/86/78 89/75/69
f 83/399/85 84/73/67 92/88/80
f 92/88/80 82/400/81 83/399/85
f 77/66/60 100/93/82 78/64/58
f 93/401/281 79/65/59 78/64/58
f 79/65/59 128/166/129 101/94/83
f 101/94/83 76/96/62 79/65/59
f 76/68/62 94/45/44 80/69/63
f 115/78/71 81/402/86 82/403/81
f 81/99/86 83/98/85 82/404/81
f 83/399/85 117/405/84 84/73/67
f 95/79/72 120/102/88 96/80/73
f 96/80/73 90/406/65 85/81/64
f 97/83/75 96/396/73 104/407/89
f 97/83/75 38/82/74 86/397/280
f 38/381/74 98/408/38 89/409/69
f 19/410/57 88/86/78 87/74/68
f 88/86/78 19/410/57 75/411/275
f 86/412/280 89/75/69 99/85/77
f 90/395/65 97/83/75 107/413/90
f 90/395/65 107/413/90 39/414/66
f 101/94/83 59/135/110 94/95/44
f 94/45/44 102/117/99 115/78/71
f 257/385/276 255/327/238 152/328/140 256/335/243
f 117/405/84 103/100/87 84/73/67
f 98/415/38 74/61/37 87/416/68
f 88/86/78 75/411/275 106/417/282
f 88/86/78 106/417/282 99/85/77
f 97/105/75 86/412/280 99/85/77
f 99/85/77 108/111/96 107/104/90
f 108/111/96 99/85/77 106/417/282
f 75/411/275 12/418/91 106/417/282
f 19/63/57 125/130/107 286/419/34
f 286/419/34 12/379/91 19/63/57
f 17/113/61 91/77/70 77/112/60
f 127/420/273 93/401/281 78/64/58
f 79/65/59 93/401/281 128/166/129
f 59/392/110 130/169/132 15/46/45
f 15/46/45 146/136/111 49/44/43
f 146/136/111 112/138/113 49/44/43
f 112/138/113 102/117/99 49/44/43
f 112/138/113 113/115/97 102/117/99
f 114/116/98 116/421/101 115/78/71
f 117/422/84 170/178/138 118/34/33
f 105/423/76 155/382/264 38/381/74
f 38/381/74 53/424/105 98/408/38
f 284/371/271 110/374/94 285/108/93
f 60/425/95 39/426/66 107/427/90
f 60/425/95 111/428/79 39/426/66
f 60/425/95 100/133/82 111/428/79
f 60/425/95 16/131/108 100/133/82
f 60/425/95 110/374/94 16/131/108
f 287/365/266 128/166/129 93/401/281
f 276/165/128 101/94/83 128/166/129
f 129/134/109 130/360/132 59/135/110
f 170/178/138 117/422/84 132/118/100
f 154/361/116 120/102/88 119/429/103
f 154/361/116 121/363/265 120/102/88
f 121/363/265 122/146/117 120/102/88
f 122/146/117 155/362/264 105/147/76
f 109/430/106 137/314/230 138/157/35 125/431/107
f 123/126/104 9/184/144 53/127/105
f 135/317/119 35/432/39 36/433/118
f 58/217/170 32/219/11 189/434/154 210/435/208
f 125/436/107 138/36/35 286/35/34
f 139/156/122 68/437/36 138/157/35
f 140/438/126 68/160/36 21/159/123
f 141/164/127 51/439/252 142/367/267
f 101/94/83 144/168/131 129/134/109
f 129/134/109 144/168/131 130/360/132
f 168/171/134 146/136/111 145/170/133
f 197/176/136 131/140/115 114/141/98
f 131/140/115 132/118/100 116/120/101
f 26/334/142 153/440/141 151/441/32
f 154/143/116 152/180/140 134/383/239
f 122/146/117 121/363/265 155/362/264
f 36/442/118 254/443/237 135/317/119
f 136/150/120 37/153/121 74/152/37
f 37/153/121 248/444/283 109/430/106
f 109/430/106 124/154/56 37/153/121
f 138/157/35 249/313/229 250/155/19
f 46/189/27 263/191/148 159/306/224
f 166/445/246 66/302/220 184/211/165
f 166/338/246 54/446/218 2/339/247
f 167/447/257 145/170/133 130/169/132
f 10/32/31 169/214/167 34/30/29
f 147/448/112 48/31/30 34/30/29
f 149/449/210 113/115/97 148/174/135
f 149/449/210 150/139/114 113/115/97
f 197/176/136 24/177/137 131/140/115
f 31/10/10 189/199/154 32/11/11
f 14/221/42 11/220/171 260/333/242
f 11/220/171 172/202/157 260/333/242
f 175/53/49 71/55/51 27/54/50
f 61/294/214 20/3/3 28/204/159
f 7/209/163 240/310/228 180/292/212
f 238/450/173 182/297/217 163/451/151
f 54/298/218 193/264/195 2/452/247
f 193/264/195 145/233/133 2/452/247
f 193/264/195 185/265/196 145/233/133
f 149/288/210 196/216/169 150/175/114
f 197/176/136 171/179/139 24/177/137
f 198/236/179 31/10/10 171/179/139
f 31/10/10 198/236/179 6/198/153
f 188/237/180 200/388/278 6/198/153
f 177/26/26 47/28/28 245/320/234 176/206/161
f 58/217/170 231/453/172 14/218/42
f 223/271/199 238/226/173 222/8/8
f 145/233/133 185/265/196 186/231/177
f 186/454/177 169/214/167 168/213/134
f 186/454/177 208/455/186 169/214/167
f 22/215/168 194/42/41 34/30/29
f 148/174/135 195/235/178 149/449/210
f 199/456/181 149/449/210 195/235/178
f 195/263/178 218/239/182 199/238/181
f 218/239/182 214/457/192 188/237/180
f 203/241/4 228/268/197 202/276/204
f 204/242/184 205/458/185 50/14/14
f 206/59/54 207/229/176 219/243/15
f 207/229/176 206/59/54 212/58/53
f 192/246/187 186/231/177 185/265/196
f 208/455/186 212/459/53 22/215/168
f 22/215/168 169/214/167 208/455/186
f 4/6/6 213/254/191 56/249/189
f 218/460/182 213/461/191 214/256/192
f 200/462/278 210/463/208 189/464/154
f 202/276/204 69/465/194 203/241/4
f 205/244/185 204/466/184 215/253/190
f 212/58/53 211/60/55 22/252/168
f 194/248/41 4/6/6 56/249/189
f 216/257/193 210/463/208 200/462/278
f 216/257/193 201/467/203 210/463/208
f 201/468/203 69/469/194 202/470/204
f 203/4/4 69/471/194 217/5/5
f 215/253/190 4/6/6 194/248/41
f 215/253/190 211/60/55 205/244/185
f 4/6/6 215/253/190 204/466/184
f 217/259/5 214/256/192 213/461/191
f 188/255/180 216/257/193 200/462/278
f 201/467/203 216/257/193 69/258/194
f 188/237/180 196/216/169 199/238/181
f 196/216/169 188/237/180 6/198/153
f 213/262/191 195/263/178 56/472/189
f 55/228/175 219/243/15 207/229/176
f 205/458/185 219/15/15 50/14/14
f 221/473/198 190/223/52 11/220/171
f 232/47/24 226/274/202 29/48/46
f 220/13/13 238/226/173 223/271/199
f 228/268/197 227/272/200 225/273/201
f 224/240/183 204/242/184 50/14/14
f 227/272/200 224/240/183 223/271/199
f 227/272/200 223/271/199 222/8/8
f 222/8/8 3/7/7 225/273/201
f 226/274/202 225/273/201 29/48/46
f 228/268/197 229/281/206 201/275/203
f 201/275/203 229/281/206 230/474/207
f 230/474/207 210/475/208 201/275/203
f 234/285/23 226/274/202 232/47/24
f 230/282/207 233/25/25 231/277/172
f 235/280/205 236/476/209 229/281/206
f 236/287/209 235/477/205 234/23/23
f 230/282/207 236/287/209 233/25/25
f 29/48/46 3/7/7 72/49/47
f 198/236/179 171/179/139 197/176/136
f 34/478/29 187/234/40 147/137/112
f 193/264/195 237/479/164 192/246/187
f 237/479/164 207/266/176 192/246/187
f 71/55/51 65/291/211 28/204/159
f 65/291/211 72/57/47 239/1/1
f 72/57/47 181/2/2 239/1/1
f 61/294/214 5/293/213 239/1/1
f 239/1/1 20/3/3 61/294/214
f 20/3/3 180/292/212 28/204/159
f 179/295/215 180/292/212 240/310/228
f 73/205/160 179/295/215 178/207/162
f 180/292/212 181/2/2 7/209/163
f 222/8/8 163/480/151 40/9/9
f 191/289/174 237/210/164 183/212/166
f 237/479/164 193/264/195 184/299/165
f 182/297/217 238/450/173 191/289/174
f 163/480/151 222/8/8 238/226/173
f 173/200/155 11/220/171 190/223/52
f 11/220/171 173/200/155 172/202/157
f 182/297/217 183/212/166 165/300/219
f 163/451/151 182/297/217 164/301/152
f 184/211/165 54/481/218 166/445/246
f 241/308/226 178/207/162 240/310/228
f 276/165/128 51/353/252 266/351/251 262/337/245
f 176/206/161 18/336/244 73/205/160
f 62/50/48 18/482/244 243/322/236
f 18/482/244 244/323/233 243/322/236
f 176/206/161 245/320/234 244/319/233
f 248/444/283 247/312/223 109/430/106
f 109/430/106 247/312/223 137/314/230
f 249/313/229 138/157/35 137/314/230
f 139/158/122 157/187/146 21/159/123
f 139/158/122 8/341/249 157/187/146
f 43/22/22 46/189/27 159/306/224
f 162/309/227 241/308/226 240/310/228
f 160/192/147 178/207/162 241/308/226
f 246/303/221 245/320/234 47/28/28
f 244/319/233 18/336/244 176/206/161
f 249/313/229 247/312/223 44/483/20
f 8/341/249 43/22/22 158/307/225
f 250/155/19 249/313/229 44/483/20
f 8/341/249 139/158/122 43/22/22
f 246/303/221 252/318/232 245/320/234
f 243/322/236 45/18/18 62/50/48
f 70/17/17 174/203/158 175/51/49
f 9/484/144 254/325/237 36/485/118
f 37/486/121 247/305/223 248/487/283
f 136/316/120 247/305/223 37/486/121
f 243/322/236 253/321/235 45/18/18
f 253/321/235 41/16/16 45/18/18
f 253/321/235 42/324/145 41/16/16
f 244/323/233 254/325/237 42/324/145
f 254/443/237 252/318/232 251/304/222
f 254/443/237 251/304/222 135/317/119
f 42/324/145 254/325/237 9/484/144
f 156/183/143 134/329/239 255/327/238
f 134/383/239 155/382/264 154/143/116
f 257/385/276 256/335/243 25/331/231
f 257/385/276 258/330/240 41/185/16
f 41/185/16 255/327/238 257/385/276
f 25/315/231 23/201/156 70/17/17
f 70/17/17 23/201/156 174/203/158
f 57/488/284 256/335/243 26/334/142
f 256/335/243 260/489/242 259/490/241
f 259/490/241 23/491/156 25/331/231
f 57/488/284 14/492/42 260/489/242
f 260/489/242 256/335/243 57/488/284
f 25/331/231 256/335/243 259/490/241
f 26/334/142 33/493/12 57/488/284
f 33/493/12 26/334/142 151/441/32
f 33/493/12 14/492/42 57/488/284
f 240/310/228 178/207/162 179/295/215
f 64/296/216 18/336/244 27/54/50
f 63/387/277 175/51/49 174/203/158
f 261/348/256 2/339/247 167/349/257
f 66/302/220 165/300/219 183/212/166
f 164/196/152 162/494/227 40/197/9
f 263/191/148 160/190/147 271/495/150
f 264/340/248 265/342/250 158/307/225
f 265/342/250 157/187/146 8/341/249
f 267/356/259 266/343/251 281/496/285
f 268/497/286 267/356/259 281/496/285
f 279/359/263 269/498/287 268/497/286
f 269/498/287 279/359/263 270/499/255
f 271/500/150 277/345/253 270/347/255
f 67/501/288 269/502/287 272/346/254
f 272/503/254 66/302/220 67/504/288
f 273/505/279 67/504/288 66/302/220
f 66/302/220 166/445/246 273/505/279
f 274/506/260 67/504/288 273/505/279
f 274/506/260 269/507/287 67/504/288
f 270/347/255 272/346/254 269/502/287
f 267/356/259 268/497/286 274/354/260
f 13/188/124 140/438/126 21/159/123
f 13/161/124 51/439/252 141/164/127
f 143/167/130 142/366/267 51/353/252
f 261/348/256 262/337/245 2/339/247
f 262/337/245 275/350/258 273/391/279
f 269/498/287 274/354/260 268/497/286
f 261/348/256 276/165/128 262/337/245
f 262/337/245 266/351/251 275/350/258
f 275/508/258 274/506/260 273/505/279
f 66/302/220 272/503/254 165/300/219
f 272/346/254 164/196/152 165/509/219
f 277/345/253 162/494/227 164/196/152
f 162/309/227 271/194/150 161/193/149
f 263/191/148 278/357/261 159/306/224
f 278/357/261 263/191/148 280/358/262
f 280/358/262 263/191/148 271/495/150
f 281/496/285 265/342/250 264/340/248
f 281/496/285 13/188/124 265/342/250
f 13/188/124 281/496/285 266/343/251
f 281/496/285 279/359/263 268/497/286
f 279/359/263 281/496/285 264/340/248
f 271/500/150 270/347/255 280/510/262
f 271/500/150 162/494/227 277/345/253
f 272/346/254 277/345/253 164/196/152
f 280/358/262 270/499/255 279/359/263
f 167/349/257 2/339/247 145/511/133
f 153/181/141 154/143/116 133/145/102
f 171/179/139 118/34/33 170/178/138
f 1/368/268 52/375/274 282/162/125
f 68/37/36 282/162/125 52/375/274
f 284/371/271 127/373/273 78/132/58
f 288/372/272 287/376/266 127/373/273
f 287/376/266 93/512/281 127/373/273
f 287/376/266 288/372/272 30/369/269
f 68/37/36 140/163/126 282/162/125
f 143/167/130 128/166/129 287/365/266
f 87/416/68 74/61/37 19/63/57
f 117/422/84 81/119/86 132/118/100
f 116/421/101 81/402/86 115/78/71
f 103/100/87 119/377/103 95/101/72
f 106/417/282 110/109/94 108/111/96
f 12/106/91 285/108/93 110/374/94
f 110/109/94 106/417/282 12/418/91
