# Blender 4.4.3
# www.blender.org
mtllib lod5.mtl
o Asteroid_2b_LOD5
v 0.204787 0.041159 0.960442
v 0.328969 -0.113407 0.930001
v 0.307053 0.295938 0.797996
v 0.643057 0.160924 0.805472
v -0.690100 -0.063600 0.796338
v 0.553861 0.319767 0.766186
v 0.509854 0.038688 0.751118
v -0.123848 0.372899 0.752371
v 0.210796 0.301103 0.623495
v -0.304860 0.436279 0.712041
v 0.868060 -0.021765 0.587433
v 0.797047 0.278729 0.632458
v 0.421260 0.456538 0.603310
v -0.591952 -0.573219 0.538102
v 0.213646 0.616806 0.427877
v -0.699015 0.498803 0.349444
v -0.948969 0.104874 0.417609
v 1.008777 -0.284032 0.367243
v 0.634268 0.456585 0.254273
v 0.710804 -0.534388 0.305532
v -0.461575 -0.662090 0.319000
v 0.376178 -0.729341 0.135132
v -0.062504 0.724748 0.228089
v 0.232215 -0.751831 0.193631
v -0.751014 0.582175 0.050125
v -0.831487 0.485898 -0.058315
v -0.980484 0.306532 -0.072779
v 1.110675 -0.247592 -0.040292
v -0.543146 0.723281 0.023203
v 0.804666 0.527305 -0.100260
v -0.726492 -0.615826 0.044789
v 0.078311 -0.800105 0.081475
v 0.940265 0.105970 -0.225062
v 0.692917 -0.639547 -0.225333
v -0.383716 0.721549 -0.256138
v 0.527119 0.700640 -0.210406
v -0.717987 -0.471466 -0.304119
v 0.110003 -0.688668 -0.259662
v -0.976348 0.000654 -0.342590
v 0.328744 0.648465 -0.443699
v -0.150538 0.533023 -0.537992
v -0.981892 0.127423 -0.470830
v -0.437672 -0.576584 -0.455445
v -0.697698 0.436438 -0.458706
v -0.961105 -0.128376 -0.485471
v -0.235104 0.261710 -0.536171
v 0.460911 -0.081714 -0.456050
v 0.718221 0.381050 -0.562916
v -0.733636 -0.156017 -0.708369
v -0.474385 -0.190125 -0.685865
v 0.495711 0.049728 -0.851508
v 0.160125 -0.104261 -0.919427
v -0.295208 0.071803 0.915798
v -0.102374 0.010698 0.886062
v 0.099925 -0.015976 0.863096
v -0.231566 0.205839 0.799593
v 0.379385 0.101552 0.882336
v 0.113816 0.354372 0.718614
v 0.470149 -0.167026 0.762060
v 0.387934 -0.124790 0.801327
v 0.326689 -0.612549 0.529621
v 0.488388 -0.351284 0.761571
v -0.712704 -0.291709 0.675991
v 0.234916 0.426293 0.534665
v 0.192962 0.544015 0.573109
v -0.518091 0.304717 0.568090
v 0.353325 0.375205 0.565683
v -0.058633 -0.543926 0.488419
v 0.672656 -0.493106 0.432803
v 0.782900 -0.415951 0.411600
v -0.057256 0.466423 0.392281
v -0.799818 0.383946 0.448509
v -0.905683 0.289692 0.415687
v 0.854169 -0.360061 0.512513
v -0.631967 0.419189 0.454758
v -0.716248 0.371476 0.382581
v -0.858473 0.057516 0.410356
v -0.802643 -0.003378 0.487347
v 0.591992 -0.431948 0.361394
v 0.110090 -0.573713 0.361767
v 0.176381 -0.545400 0.444190
v -0.378301 -0.615228 0.511891
v -0.527898 -0.570587 0.351107
v -0.216778 -0.677329 0.495535
v -0.207530 -0.778368 0.264854
v -0.076880 -0.753576 0.344543
v -0.883953 0.268143 0.314627
v -0.789309 -0.479708 0.332638
v -0.666811 0.632207 0.177355
v -0.987909 -0.323433 0.239513
v -0.950524 -0.459181 0.058347
v 0.539544 -0.466919 0.268769
v 0.403116 -0.611813 0.402195
v -1.044831 0.207272 0.185274
v 0.201374 0.688388 0.282083
v 0.307001 0.572112 0.150741
v -0.854830 0.484193 0.206002
v -0.421294 -0.709471 0.070375
v 0.167550 0.690416 0.042668
v -0.850488 -0.558100 0.237085
v -0.128315 -0.714496 0.073770
v 0.441339 0.541813 0.069550
v 0.601830 0.664205 -0.084642
v 0.805027 0.570351 0.195070
v -0.223278 -0.676009 0.006967
v -0.610583 0.539129 -0.007160
v -1.030241 0.305788 0.028521
v -0.500545 0.667527 -0.306674
v 0.835808 -0.412439 -0.017295
v -0.236069 -0.734905 -0.074207
v -1.072668 0.259371 -0.057657
v 0.930231 -0.297291 -0.043564
v 1.159131 0.004554 -0.094816
v 0.549763 -0.567068 -0.102732
v -0.893783 0.000363 -0.074658
v 0.588176 0.566396 -0.158213
v -0.690010 0.446016 -0.061712
v 0.966288 0.239275 -0.109271
v -0.892881 -0.113392 -0.096654
v -0.555398 0.518897 -0.088209
v 0.286191 -0.735472 -0.088136
v 0.385177 -0.678837 -0.134231
v 0.833741 0.293088 -0.232929
v 0.542926 -0.573445 -0.207504
v -0.211885 0.733503 -0.238742
v -0.587551 0.502320 -0.219483
v -0.291647 0.638860 -0.297597
v -0.606764 -0.566438 -0.217389
v 1.006820 -0.287066 -0.290627
v -0.592320 -0.430407 -0.295224
v -0.520641 -0.541054 -0.316990
v 0.992326 0.057801 -0.389395
v 0.550354 -0.623639 -0.368654
v 0.310582 0.676407 -0.322913
v -0.086675 -0.462957 -0.384273
v -0.457990 0.570409 -0.399198
v -0.731092 0.329863 -0.444110
v -0.847529 0.343000 -0.418704
v -0.668601 -0.397484 -0.507871
v -0.945994 0.024135 -0.470800
v -0.831115 -0.306483 -0.513332
v -0.651856 -0.285015 -0.519835
v 0.223979 0.652977 -0.460630
v 0.153193 0.539250 -0.632548
v 0.904813 0.044728 -0.583930
v -0.864639 0.122428 -0.600275
v -0.791771 0.285602 -0.535934
v 0.292329 0.518191 -0.551404
v 0.314185 0.487981 -0.569837
v 0.431245 0.310505 -0.583813
v -0.153929 0.233173 -0.640039
v -0.680384 0.107099 -0.716515
v 0.223577 -0.490421 -0.687511
v 0.512201 0.269944 -0.765934
v 0.249869 -0.056433 -0.804907
v 0.380316 -0.137634 -0.815478
v 0.268623 -0.119214 -0.802056
v 0.135029 -0.267883 -0.897526
v 0.582285 -0.002579 -0.810540
v -0.233656 -0.079076 -0.857628
v -0.271102 -0.166279 -0.879602
v 0.294346 -0.219720 -0.851028
v -0.273432 -0.022588 -0.892958
v 0.287433 0.024548 -0.907924
v 0.062490 0.028841 -0.986659
v -0.154403 -0.075686 -0.917675
v 0.222971 0.359641 -0.764865
v 0.259252 0.482927 -0.649830
v 0.681779 0.073655 -0.739700
v 0.014415 -0.565852 -0.606312
v 0.111011 -0.630872 -0.343902
v -0.214294 -0.544283 -0.181330
v -0.256296 -0.493290 -0.275034
v 0.014603 -0.545002 -0.255074
v -0.155533 -0.544320 -0.562287
v -0.383468 -0.586255 -0.425596
v -0.332672 -0.519101 -0.364146
v -0.114913 -0.521710 -0.291212
v 0.050597 -0.582052 -0.491617
v -0.018170 -0.478547 -0.388904
v 0.036574 -0.492695 -0.667771
v -0.129380 -0.343227 -0.789709
v -0.251277 -0.567606 -0.585043
v -0.418287 -0.645597 -0.260377
v -0.327094 -0.585379 -0.202454
v -0.245575 -0.704955 -0.112271
v -0.374347 -0.333330 -0.733048
v -0.177564 -0.436197 -0.712696
v 0.174162 0.146872 -0.935989
v -0.363440 0.500665 -0.533200
v -0.520183 0.530530 -0.500135
v -0.548268 0.360066 -0.594611
v -0.625787 0.193284 -0.712144
v -0.489721 0.210216 -0.689487
v -0.395814 0.092175 -0.789552
v -0.235726 0.036503 -0.868456
v -0.232740 0.133304 -0.607412
v -0.136781 0.122154 -0.670685
v -0.205462 0.368766 -0.512865
v -0.408635 0.251973 -0.556494
v 0.046997 0.194777 -0.869294
v -0.003035 0.278022 -0.666746
v 0.063372 0.465712 -0.663239
v 0.085906 0.351044 -0.729217
v -0.455559 -0.214150 -0.842043
v -0.533464 0.001523 -0.852077
v -0.712977 0.333605 -0.556718
v -0.950578 0.220283 -0.347647
v -0.924754 0.407658 -0.125389
v -0.813494 0.457703 -0.205685
v -0.706520 0.500182 -0.301808
v -0.667828 0.440343 -0.191331
v -0.570176 0.624530 -0.251870
v -0.578973 0.619752 -0.343572
v -0.337060 0.647908 -0.418105
v -0.145186 0.668835 -0.386752
v 0.443342 0.729904 -0.168156
v 0.588795 0.630048 -0.369061
v 0.548701 0.617646 -0.287510
v 0.561230 0.625283 -0.482800
v 0.443496 0.600982 -0.527360
v 0.354917 0.415354 -0.742352
v 0.436723 0.352170 -0.776964
v 0.731326 0.023112 -0.666796
v 0.304256 -0.502384 -0.570069
v 0.523140 -0.653411 -0.316657
v 0.220892 -0.717123 0.003352
v -0.082382 -0.789567 0.041922
v -0.243064 -0.653306 0.156284
v -0.303759 -0.655058 0.088077
v -0.153796 -0.653073 0.531655
v 0.167318 -0.361574 0.851692
v 0.400015 -0.223094 0.861063
v 0.371893 0.496971 0.547251
v 0.474775 0.415834 0.466194
v 0.561433 0.402916 0.335012
v 0.655392 0.638383 0.075518
v 0.401909 0.690922 0.033937
v 0.280166 0.719628 0.011198
v 0.355042 0.443205 0.351619
v 0.085438 0.623609 0.517354
v -0.036159 0.488387 0.630966
v 0.275834 0.723429 0.149123
v -0.258144 0.713444 0.188633
v 0.042757 0.622998 0.352146
v -0.140949 0.455235 0.668840
v -0.241133 0.400951 0.480266
v -0.142595 0.508599 0.251478
v -0.430959 0.473498 0.528260
v -0.309250 0.472497 0.309922
v -0.081151 0.747732 0.023612
v 0.137152 0.772076 0.135790
v -0.300536 0.824097 -0.043718
v -0.415513 0.668126 0.270137
v -0.534941 0.292511 0.827316
v -0.537117 0.216191 0.882033
v -0.546216 -0.043482 0.875144
v -0.570821 -0.134003 0.812760
v -0.358502 0.309653 0.818504
v 0.056035 0.204871 0.846476
v 0.162090 -0.117004 0.951578
v -0.140781 0.145826 0.865707
v 0.040547 0.081967 0.891382
v -0.202686 0.023169 0.880669
v -0.679251 -0.542292 -0.098226
v -0.496166 -0.463122 -0.539229
v -0.377565 -0.458452 -0.700796
v -0.981258 0.390864 0.111321
v -0.825967 0.437590 0.371294
v -0.820592 0.317036 0.532335
v -0.610669 0.310089 0.649178
v -0.782253 0.204838 0.656170
v -0.854847 0.176279 0.508470
v -0.789107 0.176024 0.620776
v -0.442018 -0.005950 0.904130
v -0.005241 -0.098913 0.894786
v 0.025635 -0.316614 0.781559
v -0.077284 -0.462946 0.685247
v -0.167367 -0.572288 0.648061
v -0.561657 -0.460762 0.684074
v -0.282919 -0.514944 0.623857
v -0.198868 -0.285795 0.579563
v -0.163779 -0.155907 0.646359
v -0.228574 -0.025599 0.740396
v -0.310798 -0.108114 0.660243
v -0.408148 -0.493995 0.619007
v -0.562062 -0.380816 0.694710
v -0.609102 -0.279282 0.758784
v -0.794341 -0.496423 0.468351
v -1.034788 -0.144528 0.400600
v -1.033870 -0.032017 0.407837
v -0.732324 0.055095 0.729617
v -0.864886 -0.231850 0.514574
v -0.675820 0.022232 0.610495
v -0.767673 -0.219262 0.610684
v -0.828823 -0.150595 0.455726
v -0.701870 0.053985 0.524392
v -0.717974 -0.139748 0.692800
v -0.694834 -0.155300 0.562893
v -1.096509 -0.101130 0.262298
v -0.641897 -0.645263 0.126963
v -0.871004 -0.519637 0.344710
v -0.892359 -0.512894 0.004690
v -0.847776 -0.492311 -0.177420
v -0.612926 -0.480446 -0.437284
v -0.873138 -0.397114 -0.345098
v -0.886342 -0.402443 -0.243163
v -0.892853 0.406376 0.307042
v -0.912475 0.289636 0.254824
v -1.002737 0.332565 0.202082
v -0.982016 0.192899 0.308333
v -1.132765 0.147275 0.128780
v -0.887083 -0.430268 -0.082621
v -1.004784 -0.126860 -0.433973
v -1.058870 0.055851 -0.449263
v -1.088033 0.136164 -0.211311
v -1.080320 -0.014221 0.141138
v -1.001960 -0.241999 0.148739
v -0.929337 -0.418826 0.007374
v -0.897586 -0.265057 -0.405675
v -1.072926 0.197876 -0.235289
v -1.117504 0.113306 0.007277
v -0.959563 -0.053055 0.087628
v -0.831281 -0.352316 -0.218285
v -0.877797 -0.145777 0.036349
v -0.799600 -0.331285 -0.072237
v -0.846453 -0.242704 -0.363262
v -0.925636 -0.146819 -0.371929
v -1.074360 0.038602 -0.377744
v -0.986269 0.104184 -0.094452
v -0.840993 -0.284434 -0.048674
v -0.894092 -0.037453 -0.248019
v -0.755057 -0.270957 -0.644299
v -0.519692 -0.373706 -0.510224
v -0.425269 -0.338743 -0.606914
v -0.486614 -0.216908 -0.797783
v -0.517294 -0.244247 -0.562083
v -0.716541 -0.326639 -0.552923
v -0.627989 -0.170599 -0.718253
v -0.760768 -0.542815 0.212450
v -0.689406 -0.491914 0.460695
v -0.603410 -0.600656 0.176404
v -0.522250 -0.175841 0.694190
v -0.431255 -0.034889 0.783904
v -0.360077 -0.317621 0.562264
v -0.151051 0.765212 -0.148661
v 0.144677 0.687043 -0.127772
v 0.037960 0.737938 -0.242285
v -0.548632 0.675111 -0.095717
v -0.620053 0.647029 0.016532
v -0.458072 0.637733 0.298100
v -0.543346 0.405531 0.507103
v 0.710164 0.485476 -0.196646
v 0.645300 0.509393 -0.296115
v 0.513817 0.318438 -0.715077
v 0.587310 0.370152 -0.578296
v 0.459860 0.421032 -0.501519
v 0.595677 0.521216 -0.538311
v 0.939446 0.423667 -0.081776
v 0.942866 0.363032 -0.129168
v 1.057907 0.238302 -0.086131
v 0.994208 0.128892 -0.150126
v 0.845391 0.460007 -0.335326
v 0.878808 0.200858 -0.546490
v 0.430432 -0.078589 -0.842895
v 0.417747 -0.579984 -0.416390
v 0.864020 -0.568254 0.007361
v 0.868535 -0.503371 0.214805
v 0.613304 -0.659177 -0.009914
v 0.453483 -0.617188 0.258890
v -0.103718 -0.801720 0.203081
v -0.007311 -0.530032 0.645908
v 0.183876 -0.542277 0.638226
v 0.717034 0.407676 0.559164
v 0.754202 0.530700 0.293451
v 0.594830 0.445837 0.512572
v 0.381766 0.323749 0.741208
v 0.748954 0.517021 -0.359251
v 1.154623 0.088390 -0.076391
v 1.087448 0.053349 -0.242157
v 0.871577 0.100970 -0.314201
v 0.837117 0.216104 -0.350133
v 0.868999 0.304049 -0.448813
v 0.859044 0.377362 -0.293276
v 0.863435 -0.041576 -0.536668
v 0.479377 -0.060682 -0.722999
v 0.393612 -0.239572 -0.643397
v 0.384902 -0.294085 -0.521401
v 0.660792 -0.572808 -0.372920
v 0.493258 -0.030186 -0.623011
v 0.799374 -0.460573 -0.315287
v 0.978095 -0.225888 -0.376133
v 0.905960 -0.192442 -0.416775
v 0.776195 -0.093129 -0.379305
v 0.743581 0.010324 -0.486982
v 0.620770 0.036217 -0.581508
v 0.412472 -0.144916 -0.413032
v 0.430814 -0.249377 -0.385596
v 0.372620 -0.178183 -0.476673
v 0.459668 -0.373912 -0.412430
v 0.619863 -0.427011 -0.367259
v 0.617353 0.004829 -0.420646
v 0.534622 -0.232441 -0.335069
v 0.659246 -0.178395 -0.316341
v 0.791743 -0.315398 -0.337754
v 0.968792 -0.314029 -0.229890
v 0.851199 -0.453973 -0.254700
v 0.560405 -0.632957 0.207666
v 0.601741 -0.501560 0.554035
v 0.787199 -0.262336 0.600632
v 0.509458 -0.243853 0.819051
v 0.391499 0.014065 0.794059
v 0.469269 0.124393 0.836463
v 0.647366 0.040699 0.783367
v 0.941944 0.153495 -0.467477
v 1.092919 -0.016812 -0.273764
v 0.849120 -0.330897 -0.170122
v 0.851229 -0.555324 -0.061228
v 0.717200 -0.181704 0.738657
v 0.664521 -0.103958 0.793534
v 0.566493 -0.088994 0.746012
v 0.854532 0.343683 0.456913
v 1.033734 0.357733 0.179425
v 1.058715 -0.259414 0.085450
v 0.966341 -0.466352 0.100857
v 0.932258 -0.472758 0.036839
v 0.802074 -0.416536 -0.109275
v 1.031738 -0.364060 0.024215
v 1.167785 -0.119134 0.092191
v 1.042770 -0.284515 -0.100176
v 0.945242 0.375904 0.300128
v 1.093568 -0.094470 0.257906
v 0.826974 0.115307 0.595289
v 1.112030 0.057057 0.160433
v 0.992675 -0.140511 0.445990
v 1.079426 0.236626 0.163557
v 0.954433 0.230416 0.189906
v 0.995106 0.048026 0.165332
v 0.893861 -0.085473 0.424756
v 0.775221 0.130944 0.474018
v 0.811720 0.233663 0.367302
v 0.915424 -0.044089 0.268750
v 0.831105 -0.002502 0.447234
v 0.854760 0.218287 0.271114
v 0.914303 0.108890 0.222735
v 0.912407 0.113750 0.363551
v 0.452679 -0.481032 0.296900
v 0.474471 -0.546737 0.514884
v 0.477148 -0.415805 0.363979
v 0.553602 -0.505750 0.506264
v 0.258827 -0.660249 0.397580
v 0.095902 -0.728117 0.288585
v 0.094048 -0.500284 0.580390
v -0.022303 -0.631285 0.347712
v -0.336288 -0.728533 0.230823
v -0.095244 -0.615546 -0.152419
v 0.042449 -0.774661 -0.132935
vn 0.5273 -0.1178 0.8415
vn -0.1937 -0.1089 0.9750
vn -0.0506 -0.5697 0.8203
vn -0.1321 0.1136 0.9847
vn -0.0225 0.0495 0.9985
vn -0.3669 -0.2366 0.8997
vn -0.0247 0.6459 0.7631
vn 0.0923 0.4376 0.8944
vn 0.0705 0.5683 0.8198
vn -0.0427 0.5053 0.8619
vn 0.2669 0.6915 0.6713
vn -0.7118 -0.1288 0.6904
vn -0.3215 0.3254 0.8892
vn -0.7786 0.2530 0.5742
vn -0.2449 0.8027 0.5438
vn 0.2332 -0.6143 0.7538
vn 0.4434 -0.1579 0.8823
vn 0.1652 -0.8835 0.4384
vn 0.3828 -0.8392 0.3863
vn -0.2941 -0.2430 0.9244
vn -0.1494 -0.8923 0.4261
vn -0.0873 -0.4532 0.8871
vn -0.4424 -0.8282 0.3440
vn -0.3798 -0.8727 0.3068
vn -0.1497 0.9090 0.3889
vn -0.0675 0.8053 0.5891
vn -0.2382 0.6829 0.6906
vn -0.3458 0.7536 0.5591
vn 0.7891 0.3015 0.5351
vn 0.6119 -0.3702 0.6989
vn 0.5715 -0.5693 0.5910
vn -0.5260 0.8089 0.2625
vn -0.2057 0.8976 0.3900
vn -0.4196 0.7567 0.5014
vn -0.8797 0.3651 0.3046
vn -0.5844 0.0365 0.8107
vn -0.5973 0.5496 0.5841
vn -0.3128 0.6465 0.6958
vn 0.4986 -0.7965 0.3421
vn 0.8101 -0.4163 0.4129
vn -0.1984 -0.8261 0.5275
vn -0.4393 -0.8640 0.2461
vn -0.9463 0.2404 0.2162
vn -0.6622 0.1765 0.7282
vn -0.4390 0.8485 0.2956
vn -0.0268 0.7708 0.6366
vn 0.6512 -0.7379 0.1776
vn 0.1993 -0.9639 0.1764
vn 0.2554 -0.9589 0.1240
vn 0.0538 0.7523 0.6567
vn -0.0504 0.9987 0.0112
vn 0.0113 0.7224 0.6913
vn 0.9418 0.2963 -0.1587
vn 0.6884 0.2679 0.6741
vn 0.9700 -0.1858 0.1570
vn 0.2221 -0.9704 -0.0946
vn 0.5226 -0.8511 0.0494
vn 0.4771 0.8494 -0.2256
vn 0.5441 0.8094 -0.2208
vn 0.4570 0.8585 0.2328
vn -0.8668 -0.1814 -0.4644
vn -0.8343 -0.3458 -0.4295
vn -0.9463 0.1476 -0.2878
vn -0.1289 -0.9726 -0.1932
vn -0.1068 -0.8729 -0.4761
vn -0.3729 -0.9275 -0.0258
vn 0.0041 0.9951 -0.0986
vn 0.3088 0.7880 0.5327
vn 0.1070 0.9895 -0.0974
vn 0.9716 -0.0319 -0.2346
vn 0.8669 -0.4861 -0.1102
vn 0.7551 -0.5536 -0.3511
vn 0.2735 -0.9421 -0.1938
vn 0.6042 -0.7968 -0.0059
vn -0.0957 -0.9953 -0.0135
vn 0.0183 -0.9091 -0.4162
vn -0.8819 -0.4484 -0.1454
vn -0.8502 -0.4726 0.2321
vn -0.9837 -0.1783 -0.0224
vn 0.2416 -0.9604 -0.1390
vn 0.1295 -0.9776 -0.1662
vn -0.0777 0.8645 -0.4966
vn -0.0712 0.8860 -0.4582
vn 0.7210 0.5491 -0.4228
vn 0.5978 0.7956 -0.0979
vn 0.4827 -0.4280 -0.7641
vn 0.8187 -0.5607 -0.1243
vn 0.4278 -0.4275 -0.7963
vn 0.0101 0.9789 -0.2043
vn 0.4748 0.8127 -0.3377
vn -0.3069 -0.9015 -0.3052
vn -0.3840 -0.8377 -0.3884
vn -0.1751 -0.9080 -0.3806
vn -0.0928 0.8616 -0.4990
vn -0.3821 0.8235 -0.4194
vn -0.7414 0.6240 -0.2470
vn -0.3189 0.9349 -0.1557
vn -0.5941 0.6476 -0.4772
vn 0.2573 -0.6347 -0.7287
vn -0.2527 -0.8059 -0.5354
vn -0.7319 -0.5942 -0.3336
vn -0.6186 -0.6116 -0.4931
vn -0.4402 -0.8641 -0.2442
vn -0.2450 0.7011 -0.6696
vn -0.5668 0.6161 -0.5469
vn -0.6153 0.5963 -0.5156
vn 0.6032 -0.7961 0.0497
vn 0.1763 -0.8003 -0.5730
vn 0.5583 -0.7129 -0.4244
vn -0.6426 0.2484 -0.7248
vn -0.7142 -0.2948 -0.6348
vn -0.5873 0.0181 -0.8092
vn -0.2870 0.5134 -0.8087
vn -0.4997 0.6611 -0.5597
vn 0.3523 0.6241 -0.6974
vn 0.5939 0.6879 -0.4173
vn 0.2650 0.7975 -0.5420
vn 0.4798 0.5318 -0.6978
vn 0.7017 0.3830 -0.6007
vn 0.4959 0.4090 -0.7660
vn 0.5832 -0.6079 -0.5388
vn 0.5418 -0.1947 -0.8177
vn 0.4362 -0.4997 -0.7484
vn 0.4020 0.6341 -0.6605
vn 0.3702 0.0568 -0.9272
vn -0.0889 -0.2984 -0.9503
vn -0.1366 -0.1326 -0.9817
vn -0.2523 -0.2533 -0.9339
vn 0.1059 -0.4637 -0.8796
vn 0.4872 -0.1798 -0.8546
vn -0.0378 0.1120 -0.9930
vn 0.0787 0.4009 -0.9127
vn 0.2844 -0.2606 -0.9226
vn 0.2927 0.7887 -0.5407
vn -0.1053 0.6174 -0.7795
vn -0.1163 0.8690 -0.4809
vn 0.1100 0.8770 -0.4678
vn 0.0463 0.7232 -0.6890
vn 0.5998 0.0414 -0.7991
vn 0.3173 0.2415 -0.9171
vn -0.0626 -0.8807 -0.4695
vn -0.0549 -0.6569 -0.7519
vn 0.3341 -0.7475 -0.5741
vn -0.2567 -0.4945 -0.8304
vn -0.4998 -0.6894 -0.5244
vn 0.2855 -0.6193 -0.7314
vn 0.0611 -0.7071 -0.7045
vn 0.2356 -0.9216 -0.3086
vn -0.1260 -0.8838 -0.4506
vn -0.9900 -0.0612 0.1268
vn -0.7031 -0.6713 0.2345
vn -0.0535 -0.9986 0.0013
vn -0.4490 -0.8901 0.0780
vn 0.0507 -0.9937 -0.0997
vn -0.1301 -0.5724 -0.8096
vn 0.5490 -0.8313 0.0862
vn 0.5574 -0.5235 -0.6444
vn 0.0815 -0.9259 -0.3688
vn -0.3534 -0.8727 -0.3370
vn -0.4596 -0.4510 -0.7651
vn -0.5755 -0.3640 -0.7323
vn -0.0502 -0.6423 -0.7648
vn 0.0109 0.2880 -0.9576
vn -0.2264 0.4320 -0.8730
vn 0.3372 0.3940 -0.8551
vn -0.4408 0.6972 -0.5654
vn -0.2490 0.7171 -0.6509
vn -0.1334 0.7032 -0.6983
vn -0.2889 0.3595 -0.8873
vn 0.3513 0.4513 -0.8203
vn -0.2204 0.1456 -0.9645
vn 0.2692 0.6801 -0.6819
vn -0.3586 0.4391 -0.8238
vn -0.3836 0.6601 -0.6459
vn 0.0930 0.7433 -0.6625
vn -0.1759 0.1343 -0.9752
vn -0.3149 0.2097 -0.9256
vn -0.5982 0.4386 -0.6707
vn -0.4852 0.5027 -0.7155
vn -0.5181 -0.2516 -0.8175
vn -0.5409 0.2675 -0.7974
vn -0.7014 0.3465 -0.6229
vn -0.7375 0.6017 -0.3066
vn -0.7409 0.5716 -0.3527
vn -0.3280 0.9074 -0.2630
vn -0.7708 0.6307 0.0897
vn -0.5773 0.8145 0.0576
vn -0.7474 0.5200 0.4136
vn -0.4519 0.8217 -0.3473
vn -0.3050 0.8390 -0.4507
vn 0.0258 0.8849 -0.4650
vn 0.4586 0.8370 0.2985
vn 0.2890 0.9470 0.1400
vn 0.0014 0.4955 -0.8686
vn 0.3226 0.8284 -0.4579
vn 0.5379 -0.4804 -0.6927
vn 0.1969 -0.7572 -0.6228
vn 0.1275 -0.9409 0.3138
vn 0.1700 -0.9848 0.0356
vn 0.0911 -0.7795 0.6197
vn -0.2105 -0.9775 -0.0090
vn -0.6961 -0.7133 0.0818
vn -0.1451 -0.9257 -0.3494
vn -0.2078 -0.8711 0.4449
vn -0.2887 -0.9556 -0.0583
vn -0.1441 -0.8596 0.4902
vn 0.4653 0.0678 0.8825
vn -0.0847 0.1794 0.9801
vn 0.0056 0.7863 0.6178
vn 0.3293 0.5508 0.7669
vn 0.2066 0.8315 0.5157
vn 0.4197 0.8740 0.2450
vn 0.0988 0.9190 0.3816
vn -0.1719 0.9758 0.1355
vn 0.1380 0.6153 0.7761
vn 0.5253 0.8465 0.0863
vn 0.6921 0.5047 0.5161
vn 0.4114 0.7812 0.4696
vn -0.1874 0.8589 0.4766
vn 0.0855 0.9963 -0.0117
vn 0.5819 0.6921 0.4272
vn -0.2333 0.7773 0.5842
vn -0.1946 0.8515 0.4869
vn -0.2933 0.4986 -0.8157
vn 0.0493 0.9987 0.0127
vn -0.2227 0.6029 0.7661
vn 0.3260 0.7371 0.5919
vn 0.1377 0.9884 0.0640
vn -0.0793 0.9192 -0.3857
vn 0.1162 0.0502 0.9920
vn -0.2767 0.8094 0.5180
vn -0.0440 0.3961 0.9172
vn -0.2568 0.0272 0.9661
vn -0.0942 -0.5478 0.8313
vn 0.2064 -0.8168 0.5387
vn -0.6418 -0.7101 -0.2895
vn -0.2059 -0.5208 -0.8285
vn -0.2282 -0.6849 -0.6920
vn -0.7845 0.1824 -0.5927
vn -0.6341 0.7541 0.1712
vn -0.7461 0.6646 0.0391
vn -0.2274 0.8467 0.4811
vn -0.0425 0.8769 0.4788
vn -0.3849 0.7122 0.5871
vn -0.7149 -0.2649 0.6471
vn -0.5486 0.0932 0.8309
vn -0.7912 -0.3069 0.5289
vn -0.3719 -0.1751 0.9116
vn -0.9701 -0.2306 0.0763
vn -0.8314 -0.4626 0.3079
vn 0.0441 -0.4603 0.8867
vn -0.2587 -0.2797 0.9246
vn 0.8330 -0.4806 0.2740
vn 0.5646 -0.4442 0.6956
vn 0.3545 -0.8281 0.4342
vn 0.0596 -0.5062 0.8604
vn -0.1475 -0.7762 0.6130
vn -0.3367 -0.1053 0.9357
vn -0.5920 -0.2888 0.7524
vn -0.4420 -0.4727 0.7623
vn -0.1736 -0.8171 0.5497
vn 0.1157 -0.5919 0.7977
vn -0.6494 -0.3135 0.6928
vn 0.2016 -0.1747 0.9638
vn -0.8084 -0.2125 0.5490
vn -0.3141 0.3987 0.8616
vn -0.9742 -0.2116 -0.0782
vn -0.7721 0.4025 0.4917
vn 0.1190 0.9252 0.3604
vn -0.9902 0.0720 0.1197
vn -0.8401 0.4486 0.3049
vn -0.8958 -0.4110 -0.1690
vn -0.9134 -0.3998 0.0768
vn -0.3764 -0.8745 0.3059
vn -0.4104 -0.8567 0.3124
vn -0.3177 -0.9018 0.2928
vn -0.3839 -0.9064 -0.1763
vn -0.5483 -0.7758 -0.3123
vn -0.3456 -0.8758 -0.3371
vn -0.9443 -0.3050 0.1236
vn -0.8437 0.5363 -0.0243
vn -0.8038 0.4164 0.4247
vn -0.8004 0.4616 0.3824
vn -0.6276 0.2586 0.7343
vn -0.8944 0.4357 0.1014
vn -0.7980 0.3971 0.4533
vn -0.7557 0.6426 -0.1264
vn -0.8106 0.4531 0.3711
vn -0.9953 -0.0756 0.0606
vn -0.8455 0.1405 -0.5152
vn -0.6937 -0.6883 -0.2123
vn -0.9979 0.0420 0.0485
vn -0.7728 0.5518 -0.3134
vn -0.9809 -0.1646 0.1035
vn -0.9433 -0.3318 0.0085
vn -0.8729 -0.3751 -0.3119
vn -0.8509 -0.5250 -0.0183
vn -0.8829 -0.3918 -0.2589
vn -0.9337 0.3254 -0.1491
vn -0.8506 0.4725 0.2308
vn -0.6270 -0.4098 0.6625
vn -0.5875 -0.5546 0.5892
vn -0.5330 -0.8363 -0.1281
vn -0.8830 -0.1328 -0.4503
vn -0.5980 -0.4224 -0.6811
vn -0.8570 -0.0156 0.5151
vn -0.5404 -0.5179 -0.6632
vn -0.8120 -0.1973 -0.5494
vn -0.5076 -0.8489 -0.1473
vn -0.5296 -0.8302 -0.1739
vn -0.3068 -0.5199 -0.7973
vn 0.1428 -0.6655 -0.7326
vn -0.3667 -0.0371 -0.9296
vn -0.3355 -0.6550 -0.6771
vn -0.0446 -0.9803 -0.1926
vn 0.2529 -0.5239 -0.8134
vn 0.0995 -0.9720 0.2127
vn -0.2170 -0.9286 -0.3011
vn -0.6515 -0.7563 0.0599
vn -0.4994 -0.6104 0.6148
vn 0.0616 -0.7422 0.6674
vn 0.1917 -0.0697 0.9790
vn -0.5168 0.7760 -0.3615
vn 0.1121 0.9933 -0.0269
vn 0.1371 0.9722 -0.1899
vn 0.1843 0.9719 -0.1467
vn -0.8717 0.4394 -0.2171
vn -0.4714 0.8817 0.0212
vn -0.2454 0.9475 0.2050
vn -0.5965 0.3966 -0.6977
vn -0.5473 0.3870 -0.7420
vn -0.1143 0.8975 -0.4260
vn -0.8714 0.4404 -0.2162
vn 0.0710 0.9019 -0.4261
vn 0.0554 0.9800 -0.1911
vn 0.4113 0.9083 0.0761
vn 0.0540 0.2859 -0.9567
vn 0.3064 0.8855 -0.3494
vn 0.3309 0.8670 -0.3727
vn -0.1679 0.7152 -0.6784
vn 0.1548 0.3671 -0.9172
vn 0.6573 0.5057 -0.5589
vn 0.2451 0.6320 -0.7352
vn 0.4821 0.1864 -0.8561
vn 0.9281 -0.0657 -0.3664
vn 0.5177 0.6997 -0.4923
vn 0.7367 0.6750 -0.0419
vn 0.7936 0.1710 -0.5839
vn 0.7788 0.5526 -0.2969
vn 0.7562 0.6202 -0.2086
vn 0.6275 -0.7780 -0.0313
vn 0.3444 -0.6415 -0.6855
vn 0.9354 -0.3414 -0.0915
vn 0.0609 -0.9182 -0.3915
vn 0.2814 -0.7907 0.5437
vn 0.3298 -0.8051 0.4931
vn -0.1359 0.9043 0.4047
vn 0.0056 0.9836 0.1801
vn 0.3779 0.7796 0.4994
vn -0.2054 0.8858 0.4161
vn 0.3170 0.8353 0.4492
vn 0.3404 0.1660 0.9255
vn -0.1866 0.7825 0.5941
vn -0.4405 0.5710 0.6928
vn 0.2237 0.6262 0.7469
vn 0.1412 0.9343 -0.3274
vn 0.8294 0.5119 0.2235
vn 0.6847 0.5530 -0.4747
vn 0.8364 0.4682 -0.2850
vn 0.9628 -0.2127 -0.1669
vn 0.6944 -0.1231 -0.7090
vn 0.5817 -0.4064 -0.7046
vn -0.0646 -0.7397 -0.6698
vn -0.3210 -0.8887 -0.3274
vn 0.2755 -0.8744 -0.3995
vn 0.5760 0.0987 -0.8114
vn -0.0924 -0.5532 -0.8279
vn -0.3868 -0.5081 -0.7695
vn 0.1961 -0.9797 0.0410
vn 0.6716 0.1383 -0.7279
vn 0.6178 -0.4731 -0.6281
vn -0.0710 -0.1251 -0.9896
vn 0.0242 -0.2067 -0.9781
vn 0.2536 0.1332 -0.9581
vn 0.9640 -0.0364 -0.2634
vn 0.5219 -0.8340 0.1793
vn 0.1348 -0.8491 0.5107
vn 0.2682 -0.7752 0.5720
vn 0.5901 -0.5535 0.5877
vn 0.6776 -0.2368 0.6962
vn 0.4484 0.1209 0.8856
vn 0.2687 -0.8726 0.4078
vn 0.9036 0.1961 0.3809
vn 0.7364 0.3642 0.5702
vn 0.9074 0.2043 0.3672
vn 0.7889 0.0957 0.6070
vn 0.9601 0.1700 0.2220
vn 0.9148 0.3978 -0.0697
vn 0.8783 -0.0037 -0.4782
vn 0.3942 -0.9014 -0.1791
vn 0.3012 -0.8419 -0.4477
vn 0.6587 -0.7032 0.2677
vn 0.3034 -0.0930 0.9483
vn 0.6276 -0.3217 0.7090
vn 0.2557 0.4358 0.8630
vn 0.7110 0.2232 0.6669
vn 0.0805 -0.3906 0.9170
vn 0.2726 0.0415 0.9612
vn 0.2954 -0.1455 0.9442
vn -0.1897 0.1731 0.9665
vn 0.7458 0.2999 0.5948
vn 0.6882 -0.3996 -0.6056
vn 0.8607 -0.3823 -0.3361
vn 0.9912 -0.1251 -0.0428
vn 0.7246 -0.2221 -0.6524
vn 0.7219 -0.6277 -0.2912
vn 0.7654 -0.6410 0.0575
vn 0.8414 -0.5055 0.1912
vn 0.9077 0.1678 -0.3845
vn 0.9943 0.0641 0.0857
vn 0.7739 0.1998 0.6010
vn 0.9305 -0.0860 0.3560
vn 0.3085 0.2791 0.9094
vn 0.9095 0.3577 0.2118
vn 0.4254 -0.2931 0.8562
vn 0.8649 -0.0077 0.5019
vn 0.8348 0.1525 0.5290
vn 0.6829 0.5112 0.5219
vn 0.6401 0.7653 0.0687
vn 0.8884 0.2220 0.4019
vn 0.7197 -0.4432 0.5345
vn 0.4402 -0.8970 -0.0409
vn 0.1766 -0.9782 0.1097
vn 0.1982 -0.8999 -0.3885
vn -0.3316 -0.9431 0.0264
vn -0.0233 -0.6334 0.7735
vn 0.5051 -0.8233 -0.2589
vn -0.0811 -0.8850 0.4584
vn 0.4520 -0.4884 0.7465
vn 0.5279 -0.8118 0.2495
vn -0.1137 -0.7152 0.6896
vn -0.4557 -0.8364 0.3045
vn -0.0754 -0.9947 -0.0701
vn 0.3888 -0.4041 -0.8280
vn -0.1792 -0.9797 -0.0904
vn 0.2659 -0.9614 0.0715
vn -0.5404 0.5390 -0.6461
vn 0.2784 -0.9589 -0.0546
vn 0.3748 -0.8547 0.3592
vn 0.3411 -0.9148 0.2164
vn -0.4532 0.3619 -0.8146
vn -0.4078 0.8185 0.4047
vn -0.2664 -0.1605 0.9504
vn 0.1852 -0.2804 0.9419
vn 0.9709 -0.1380 -0.1959
vn 0.9693 0.2438 -0.0324
vn 0.3002 -0.0445 -0.9528
vt 0.047259 0.689535
vt 0.046335 0.650297
vt 0.116204 0.644435
vt 0.337063 0.187971
vt 0.371885 0.182749
vt 0.362279 0.191648
vt 0.414646 0.107866
vt 0.389631 0.134143
vt 0.357858 0.105409
vt 0.323953 0.154004
vt 0.298610 0.107505
vt 0.517819 0.151575
vt 0.462242 0.125889
vt 0.516801 0.080209
vt 0.395543 0.072727
vt 0.533680 0.445536
vt 0.530362 0.405439
vt 0.616060 0.486380
vt 0.545577 0.509635
vt 0.146714 0.579528
vt 0.156346 0.633305
vt 0.709399 0.620259
vt 0.643874 0.618685
vt 0.684625 0.593884
vt 0.471921 0.064597
vt 0.449327 0.053240
vt 0.445333 0.029841
vt 0.474152 0.012062
vt 0.435610 0.532873
vt 0.479182 0.506837
vt 0.492207 0.539731
vt 0.557496 0.917648
vt 0.573775 0.956246
vt 0.539708 0.954893
vt 0.594406 0.258985
vt 0.549298 0.251643
vt 0.590188 0.239527
vt 0.672658 0.240963
vt 0.696622 0.243624
vt 0.666707 0.268789
vt 0.495110 0.575431
vt 0.466915 0.566236
vt 0.918209 0.902100
vt 0.918681 0.937612
vt 0.876033 0.926480
vt 0.539869 0.326720
vt 0.520543 0.256737
vt 0.695728 0.313425
vt 0.728094 0.279490
vt 0.198351 0.558969
vt 0.239953 0.519316
vt 0.257009 0.553037
vt 0.060648 0.360784
vt 0.112971 0.374564
vt 0.075537 0.397305
vt 0.779209 0.543915
vt 0.747530 0.584469
vt 0.721473 0.542226
vt 0.292460 0.577286
vt 0.318569 0.549608
vt 0.124468 0.109595
vt 0.119028 0.153780
vt 0.053377 0.105899
vt 0.772776 0.851742
vt 0.806870 0.807139
vt 0.820933 0.801539
vt 0.286516 0.412141
vt 0.308386 0.465250
vt 0.262318 0.442168
vt 0.097271 0.240874
vt 0.087332 0.212307
vt 0.133828 0.204418
vt 0.769040 0.518878
vt 0.712896 0.504499
vt 0.738461 0.446270
vt 0.798803 0.298603
vt 0.841787 0.347662
vt 0.780753 0.339192
vt 0.213537 0.609747
vt 0.249695 0.665160
vt 0.172605 0.653808
vt 0.754907 0.777423
vt 0.772863 0.749983
vt 0.777871 0.782407
vt 0.301857 0.520468
vt 0.360073 0.572790
vt 0.165499 0.351678
vt 0.172296 0.389943
vt 0.140654 0.148032
vt 0.164783 0.168350
vt 0.844450 0.263427
vt 0.859059 0.280775
vt 0.802379 0.256760
vt 0.173843 0.221591
vt 0.142588 0.181948
vt 0.151649 0.023415
vt 0.126256 0.018592
vt 0.158576 0.003407
vt 0.208764 0.378909
vt 0.184637 0.414053
vt 0.352714 0.207726
vt 0.371764 0.197616
vt 0.375800 0.253288
vt 0.397132 0.549626
vt 0.340199 0.477468
vt 0.142450 0.771633
vt 0.106773 0.773643
vt 0.123629 0.715822
vt 0.466769 0.239041
vt 0.410566 0.275782
vt 0.410917 0.247294
vt 0.654667 0.841765
vt 0.694780 0.840279
vt 0.696700 0.853234
vt 0.368466 0.320245
vt 0.305343 0.342598
vt 0.327058 0.320098
vt 0.433077 0.326944
vt 0.391626 0.280254
vt 0.246599 0.224397
vt 0.253403 0.218900
vt 0.262247 0.227788
vt 0.502455 0.735523
vt 0.545653 0.778013
vt 0.458902 0.783100
vt 0.729038 0.017244
vt 0.638711 0.040783
vt 0.628454 0.019721
vt 0.811411 0.622746
vt 0.807180 0.594670
vt 0.847984 0.565861
vt 0.640401 0.173587
vt 0.621077 0.168171
vt 0.614131 0.146665
vt 0.650745 0.075173
vt 0.607044 0.068062
vt 0.588187 0.105241
vt 0.889701 0.634763
vt 0.891619 0.590744
vt 0.900382 0.613800
vt 0.806259 0.648197
vt 0.838110 0.662067
vt 0.203347 0.338737
vt 0.216609 0.251468
vt 0.261315 0.260757
vt 0.495467 0.820901
vt 0.458090 0.836510
vt 0.202156 0.050252
vt 0.184927 0.015566
vt 0.205249 0.034453
vt 0.745323 0.091773
vt 0.718162 0.085452
vt 0.711173 0.045604
vt 0.418320 0.526560
vt 0.394905 0.479570
vt 0.945923 0.073347
vt 0.924171 0.046811
vt 0.960000 0.037824
vt 0.963743 0.100528
vt 0.930375 0.099847
vt 0.913296 0.092046
vt 0.906715 0.072018
vt 0.929140 0.013725
vt 0.777530 0.060121
vt 0.770538 0.077675
vt 0.894027 0.460119
vt 0.881852 0.443025
vt 0.902879 0.413310
vt 0.898634 0.054803
vt 0.898586 0.028682
vt 0.899144 0.005310
vt 0.891399 0.474857
vt 0.935296 0.472109
vt 0.897771 0.505467
vt 0.683172 0.133189
vt 0.919879 0.375716
vt 0.925720 0.414024
vt 0.903263 0.383049
vt 0.883468 0.397853
vt 0.757213 0.152358
vt 0.786992 0.196516
vt 0.729192 0.183232
vt 0.756753 0.216007
vt 0.716526 0.148542
vt 0.810715 0.702181
vt 0.801900 0.683788
vt 0.495753 0.249945
vt 0.500512 0.241295
vt 0.455635 0.285099
vt 0.367183 0.749359
vt 0.374176 0.708102
vt 0.387217 0.762300
vt 0.381821 0.787715
vt 0.418558 0.789415
vt 0.369166 0.814969
vt 0.446127 0.771597
vt 0.447043 0.801261
vt 0.404852 0.836940
vt 0.341164 0.839875
vt 0.302581 0.808979
vt 0.310621 0.725532
vt 0.582715 0.213405
vt 0.611672 0.179772
vt 0.619560 0.230108
vt 0.584057 0.173042
vt 0.333773 0.773495
vt 0.295865 0.773435
vt 0.884142 0.663950
vt 0.847333 0.683611
vt 0.432532 0.384998
vt 0.366949 0.395229
vt 0.410733 0.339690
vt 0.335327 0.296839
vt 0.328838 0.257037
vt 0.332465 0.213124
vt 0.645824 0.368203
vt 0.639116 0.406181
vt 0.610087 0.385414
vt 0.683638 0.758421
vt 0.645327 0.786392
vt 0.658487 0.757090
vt 0.403082 0.208466
vt 0.447626 0.201104
vt 0.482562 0.197771
vt 0.494536 0.219627
vt 0.476606 0.211771
vt 0.209812 0.220802
vt 0.165426 0.135443
vt 0.185660 0.158162
vt 0.224823 0.187920
vt 0.209862 0.163557
vt 0.470167 0.845066
vt 0.788965 0.257079
vt 0.783067 0.273078
vt 0.050196 0.382048
vt 0.070228 0.418224
vt 0.046803 0.400190
vt 0.257589 0.479592
vt 0.209373 0.488826
vt 0.233599 0.445810
vt 0.747564 0.625003
vt 0.720101 0.647511
vt 0.740425 0.608533
vt 0.766179 0.614703
vt 0.766426 0.651133
vt 0.734226 0.647532
vt 0.751871 0.685004
vt 0.844794 0.868974
vt 0.899848 0.862115
vt 0.597645 0.421924
vt 0.627323 0.444677
vt 0.349354 0.593832
vt 0.302301 0.594461
vt 0.327204 0.575532
vt 0.334507 0.654894
vt 0.280987 0.036209
vt 0.261954 0.068169
vt 0.218125 0.080097
vt 0.244864 0.031812
vt 0.076511 0.147179
vt 0.134176 0.865640
vt 0.172598 0.813507
vt 0.172498 0.879754
vt 0.201208 0.831931
vt 0.197833 0.790287
vt 0.235016 0.853066
vt 0.219884 0.893879
vt 0.319199 0.066882
vt 0.069228 0.279362
vt 0.057123 0.250302
vt 0.006284 0.294093
vt 0.029572 0.259854
vt 0.045132 0.315812
vt 0.593809 0.919399
vt 0.419884 0.028318
vt 0.353339 0.066605
vt 0.570121 0.869551
vt 0.600643 0.905933
vt 0.478232 0.880897
vt 0.523545 0.904729
vt 0.500224 0.942671
vt 0.526931 0.868472
vt 0.551587 0.835263
vt 0.097440 0.323662
vt 0.097027 0.267809
vt 0.493326 0.849800
vt 0.516812 0.834751
vt 0.421437 0.165471
vt 0.454172 0.101663
vt 0.372617 0.157752
vt 0.299575 0.638302
vt 0.017629 0.664755
vt 0.025096 0.629812
vt 0.045127 0.614999
vt 0.950738 0.823478
vt 0.940707 0.848871
vt 0.944212 0.819412
vt 0.171848 0.700551
vt 0.151482 0.680726
vt 0.151186 0.664786
vt 0.774454 0.233379
vt 0.790620 0.231154
vt 0.337328 0.405082
vt 0.306952 0.386153
vt 0.306976 0.302286
vt 0.637531 0.309691
vt 0.604974 0.331158
vt 0.296896 0.028138
vt 0.315579 0.021046
vt 0.321250 0.039731
vt 0.520198 0.038222
vt 0.507365 0.020900
vt 0.519426 0.022090
vt 0.550114 0.046377
vt 0.547606 0.056915
vt 0.005752 0.207052
vt 0.023051 0.200245
vt 0.006679 0.225405
vt 0.028563 0.243240
vt 0.015364 0.251781
vt 0.522927 0.121354
vt 0.527223 0.080744
vt 0.711843 0.669564
vt 0.729851 0.712746
vt 0.712432 0.720080
vt 0.089795 0.448228
vt 0.051217 0.462446
vt 0.024664 0.466339
vt 0.076022 0.478884
vt 0.040582 0.500229
vt 0.453742 0.165147
vt 0.002303 0.529149
vt 0.020456 0.552861
vt 0.019487 0.579546
vt 0.110557 0.544385
vt 0.103609 0.606646
vt 0.081211 0.550557
vt 0.048747 0.543715
vt 0.070095 0.522748
vt 0.013282 0.497293
vt 0.681479 0.669129
vt 0.709720 0.647783
vt 0.587353 0.700241
vt 0.980463 0.978508
vt 0.970959 0.937715
vt 0.994876 0.945274
vt 0.951707 0.939281
vt 0.947501 0.968877
vt 0.935528 0.937987
vt 0.042054 0.185418
vt 0.051821 0.220679
vt 0.062820 0.175189
vt 0.667270 0.689563
vt 0.631209 0.689486
vt 0.019421 0.130769
vt 0.045758 0.146530
vt 0.019695 0.152750
vt 0.936134 0.991931
vt 0.922019 0.973339
vt 0.540948 0.654921
vt 0.543801 0.616149
vt 0.564387 0.649679
vt 0.592999 0.593686
vt 0.606992 0.615646
vt 0.261609 0.700617
vt 0.279500 0.670264
vt 0.238761 0.724671
vt 0.178844 0.754195
vt 0.203723 0.718911
vt 0.170722 0.036757
vt 0.139453 0.043842
vt 0.150121 0.732998
vt 0.858162 0.744869
vt 0.835774 0.724274
vt 0.840895 0.706549
vt 0.580045 0.351242
vt 0.588241 0.308265
vt 0.611392 0.285727
vt 0.635316 0.271709
vt 0.590744 0.290874
vt 0.589921 0.276479
vt 0.568948 0.281007
vt 0.562032 0.371387
vt 0.586654 0.376224
vt 0.561764 0.311630
vt 0.494465 0.288898
vt 0.505956 0.257183
vt 0.552501 0.695737
vt 0.538753 0.630149
vt 0.228894 0.769504
vt 0.268912 0.749992
vt 0.242527 0.784796
vt 0.181649 0.772542
vt 0.855345 0.775153
vt 0.861758 0.779611
vt 0.284702 0.368067
vt 0.299770 0.249116
vt 0.296905 0.296000
vt 0.281628 0.254332
vt 0.493989 0.308892
vt 0.476076 0.300934
vt 0.293015 0.338523
vt 0.547357 0.390833
vt 0.526532 0.353644
vt 0.830910 0.833730
vt 0.846570 0.814870
vt 0.842294 0.841747
vt 0.838339 0.775649
vt 0.802424 0.722441
vt 0.764284 0.718275
vt 0.752347 0.706293
vt 0.794828 0.705476
vt 0.704983 0.786510
vt 0.729586 0.766235
vt 0.720691 0.826514
vt 0.775163 0.811215
vt 0.745861 0.815507
vt 0.718809 0.736314
vt 0.825847 0.736931
vt 0.909065 0.355032
vt 0.896714 0.329881
vt 0.932502 0.323822
vt 0.698117 0.191878
vt 0.669635 0.224508
vt 0.662557 0.212924
vt 0.911626 0.257191
vt 0.891885 0.264426
vt 0.881192 0.262970
vt 0.866466 0.307845
vt 0.889239 0.269749
vt 0.887791 0.299895
vt 0.912746 0.305488
vt 0.406224 0.427057
vt 0.387391 0.413328
vt 0.410994 0.418342
vt 0.911188 0.278870
vt 0.954958 0.301766
vt 0.939675 0.266181
vt 0.383424 0.878918
vt 0.383912 0.914804
vt 0.366976 0.902344
vt 0.397796 0.939923
vt 0.426415 0.920317
vt 0.444121 0.931155
vt 0.443477 0.879013
vt 0.408268 0.863434
vt 0.114289 0.456183
vt 0.113896 0.510898
vt 0.298743 0.007380
vt 0.672076 0.345155
vt 0.129458 0.267678
vt 0.138435 0.337977
vt 0.159009 0.300086
vt 0.153393 0.440483
vt 0.120251 0.420286
vt 0.731068 0.346747
vt 0.637700 0.759092
vt 0.679026 0.718355
vt 0.707098 0.352869
vt 0.643771 0.716626
vt 0.627772 0.737671
vt 0.612712 0.709998
vt 0.655574 0.732631
vt 0.186541 0.372026
vt 0.716345 0.238296
vt 0.003880 0.259231
vt 0.147543 0.122761
vt 0.175980 0.119053
vt 0.983583 0.609742
vt 0.993007 0.620424
vt 0.962052 0.640668
vt 0.941647 0.623420
vt 0.794221 0.611468
vt 0.468715 0.756007
vt 0.460465 0.763969
vt 0.227353 0.169550
vt 0.230582 0.146743
vt 0.236782 0.169709
vt 0.918487 0.770138
vt 0.892766 0.749184
vt 0.919233 0.751136
vt 0.930997 0.716004
vt 0.893570 0.728772
vt 0.892233 0.707231
vt 0.947271 0.747343
vt 0.183854 0.093639
vt 0.117045 0.059700
vt 0.131628 0.050287
vt 0.538701 0.711813
vt 0.617728 0.834806
vt 0.634313 0.850903
vt 0.616921 0.856843
vt 0.884785 0.536494
vt 0.897642 0.546305
vt 0.878649 0.549412
vt 0.659410 0.889458
vt 0.626562 0.879309
vt 0.008869 0.396832
vt 0.032214 0.440251
vt 0.036757 0.418982
vt 0.863162 0.844916
vt 0.910336 0.842897
vt 0.482283 0.706551
vt 0.442797 0.698759
vt 0.458958 0.668540
vt 0.027025 0.120034
vt 0.228809 0.923497
vt 0.246523 0.952701
vt 0.203365 0.948838
vt 0.195889 0.976176
vt 0.178864 0.984712
vt 0.175250 0.938909
vt 0.231356 0.988270
vt 0.221135 0.973475
vt 0.372580 0.663088
vt 0.405442 0.646546
vt 0.144621 0.896313
vt 0.146500 0.912213
vt 0.118976 0.896686
vt 0.102752 0.836090
vt 0.800582 0.586442
vt 0.812116 0.563044
vt 0.805323 0.510021
vt 0.866447 0.697052
vt 0.868194 0.743776
vt 0.691034 0.878337
vt 0.395462 0.592992
vt 0.379378 0.580450
vt 0.556504 0.812031
vt 0.604979 0.840623
vt 0.562239 0.831491
vt 0.060386 0.789869
vt 0.070739 0.756414
vt 0.086221 0.792133
vt 0.724790 0.911891
vt 0.773596 0.932860
vt 0.740753 0.945603
vt 0.083081 0.842533
vt 0.054471 0.818248
vt 0.042256 0.758947
vt 0.715723 0.882977
vt 0.702208 0.868252
vt 0.048979 0.871172
vt 0.075036 0.876315
vt 0.019444 0.743469
vt 0.029602 0.790679
vt 0.027258 0.832835
vt 0.770405 0.911594
vt 0.689829 0.904056
vt 0.726208 0.441853
vt 0.719651 0.415662
vt 0.844069 0.400444
vt 0.816225 0.420617
vt 0.777423 0.393258
vt 0.241946 0.591813
vt 0.231719 0.573663
vt 0.069051 0.922741
vt 0.048664 0.916087
vt 0.078901 0.894713
vt 0.414484 0.604542
vt 0.376569 0.600941
vt 0.461484 0.582617
vt 0.464894 0.632574
vt 0.496399 0.654971
vt 0.768769 0.602581
vt 0.911576 0.696293
vt 0.889387 0.670726
vt 0.790817 0.489420
vt 0.764728 0.432106
vt 0.711730 0.476033
vt 0.927040 0.550548
vt 0.956082 0.553119
vt 0.958156 0.575352
vt 0.509863 0.430005
vt 0.473382 0.467750
vt 0.127131 0.925213
vt 0.110008 0.927196
vt 0.095344 0.911565
vt 0.103950 0.895538
vt 0.071981 0.948512
vt 0.463364 0.448788
vt 0.423656 0.476442
vt 0.440106 0.434702
vt 0.120010 0.965803
vt 0.101927 0.951469
vt 0.080099 0.976915
vt 0.691697 0.577604
vt 0.643252 0.565304
vt 0.867385 0.354769
vt 0.843731 0.332489
vt 0.952955 0.498501
vt 0.982143 0.545028
vt 0.956273 0.530494
vt 0.937304 0.522025
vt 0.658226 0.480605
vt 0.677331 0.493409
vt 0.645631 0.503585
vt 0.690636 0.519933
vt 0.920707 0.571220
vt 0.902780 0.535042
vt 0.651209 0.595273
vt 0.630212 0.584570
vt 0.477517 0.617202
vt 0.865007 0.144764
vt 0.903098 0.114519
vt 0.871142 0.171350
vt 0.884603 0.065728
vt 0.876375 0.114158
vt 0.775246 0.097455
vt 0.795577 0.064060
vt 0.812113 0.082914
vt 0.835474 0.144321
vt 0.839251 0.180888
vt 0.852542 0.070378
vt 0.862560 0.096945
vt 0.834216 0.093637
vt 0.806736 0.113535
vt 0.810460 0.149590
vt 0.845148 0.118408
vt 0.931451 0.213256
vt 0.930656 0.195842
vt 0.963202 0.221108
vt 0.908502 0.163678
vt 0.923734 0.155735
vt 0.940790 0.163244
vt 0.913907 0.187831
vt 0.884310 0.201126
vt 0.915839 0.207224
vt 0.896124 0.234369
vt 0.957144 0.177113
vt 0.811614 0.480425
vt 0.108929 0.018333
vt 0.188673 0.536901
vt 0.256739 0.931128
vt 0.271029 0.911910
vt 0.308890 0.938804
vt 0.304546 0.913323
vt 0.274054 0.884535
vt 0.290146 0.866414
vt 0.322122 0.878090
vt 0.330201 0.863582
vt 0.267136 0.846977
vt 0.241941 0.890364
vt 0.339316 0.898021
vt 0.206421 0.019219
vt 0.221304 0.008936
vt 0.231870 0.029299
vt 0.220444 0.037071
vt 0.781911 0.672710
vt 0.751639 0.663979
vt 0.300619 0.409301
vt 0.305319 0.436418
vt 0.396626 0.257977
vt 0.796335 0.181406
vt 0.237462 0.339069
vt 0.789718 0.692392
vt 0.319836 0.669044
vt 0.821815 0.706212
vt 0.493251 0.161663
vt 0.050101 0.947581
vt 0.654277 0.407644
vt 0.654353 0.415948
vt 0.538786 0.548731
vt 0.514936 0.556458
vt 0.633652 0.501910
vt 0.610870 0.518292
vt 0.845332 0.902314
vt 0.029057 0.059549
vt 0.059761 0.042058
vt 0.832728 0.936278
vt 0.764303 0.372141
vt 0.280984 0.511411
vt 0.797333 0.467849
vt 0.101155 0.715910
vt 0.566443 0.782439
vt 0.364024 0.770512
vt 0.785259 0.679146
vt 0.650736 0.016862
vt 0.850131 0.542681
vt 0.266957 0.276978
vt 0.950155 0.587727
vt 0.523147 0.830177
vt 0.369176 0.476653
vt 0.944500 0.411054
vt 0.757401 0.130260
vt 0.882281 0.368582
vt 0.821042 0.190953
vt 0.459975 0.327135
vt 0.471122 0.364580
vt 0.417224 0.735013
vt 0.539471 0.113463
vt 0.553241 0.083871
vt 0.669491 0.786859
vt 0.916016 0.616908
vt 0.690511 0.942954
vt 0.788023 0.630939
vt 0.134416 0.668941
vt 0.081647 0.700592
vt 0.178123 0.912570
vt 0.119408 0.839935
vt 0.131318 0.791095
vt 0.223046 0.808889
vt 0.274887 0.005492
vt 0.389859 0.043823
vt 0.316735 0.182333
vt 0.007248 0.619486
vt 0.939848 0.885457
vt 0.811498 0.219044
vt 0.879836 0.349836
vt 0.323346 0.007853
vt 0.606475 0.244362
vt 0.720357 0.593728
vt 0.141400 0.460762
vt 0.167512 0.500816
vt 0.141878 0.492541
vt 0.157397 0.523792
vt 0.168990 0.549333
vt 0.538901 0.146013
vt 0.687700 0.711208
vt 0.001869 0.127377
vt 0.006207 0.161109
vt 0.597325 0.714875
vt 0.370522 0.876597
vt 0.293450 0.231597
vt 0.577468 0.400221
vt 0.273405 0.364843
vt 0.279211 0.355109
vt 0.208303 0.772280
vt 0.858452 0.808189
vt 0.534195 0.391393
vt 0.090073 0.766026
vt 0.090074 0.748856
vt 0.949786 0.337728
vt 0.404011 0.850924
vt 0.448482 0.863352
vt 0.949736 0.701285
vt 0.923493 0.669260
vt 0.751738 0.279820
vt 0.609250 0.773968
vt 0.176900 0.445348
vt 0.196640 0.433465
vt 0.727328 0.371158
vt 0.597637 0.738436
vt 0.652918 0.696683
vt 0.994368 0.656992
vt 0.928749 0.654022
vt 0.960020 0.667886
vt 0.481590 0.729257
vt 0.491888 0.721724
vt 0.226784 0.121743
vt 0.552102 0.747123
vt 0.407584 0.708640
vt 0.391664 0.696048
vt 0.206558 0.997653
vt 0.013285 0.900229
vt 0.003534 0.837341
vt 0.959517 0.709825
vt 0.562364 0.716054
vt 0.601820 0.794257
vt 0.032944 0.720662
vt 0.047167 0.709737
vt 0.873552 0.255236
vt 0.875187 0.263895
vt 0.644040 0.834890
vt 0.600230 0.850713
vt 0.732957 0.869790
vt 0.040474 0.903587
vt 0.005221 0.792170
vt 0.004490 0.913169
vt 0.582429 0.505630
vt 0.417674 0.576927
vt 0.009158 0.099467
vt 0.511547 0.687256
vt 0.005782 0.071048
vt 0.869792 0.372858
vt 0.853008 0.434538
vt 0.529796 0.573709
vt 0.058747 0.974550
vt 0.917817 0.506194
vt 0.877900 0.428797
vt 0.474723 0.588241
vt 0.058389 0.008252
vt 0.789137 0.156914
vt 0.839986 0.048472
vt 0.562025 0.514685
vt 0.935838 0.240637
vt 0.199664 0.452786
vt 0.199254 0.608912
vt 0.218701 0.433074
vt 0.584966 0.062702
s 1
usemtl Asteroid2b
f 2/1/1 261/2/2 232/3/3
f 263/4/4 54/5/5 276/6/6
f 259/7/7 56/8/8 8/9/9
f 260/10/10 58/11/11 8/9/9
f 5/12/12 256/13/13 272/14/14
f 10/15/15 259/7/7 8/9/9
f 62/16/16 233/17/17 61/18/18
f 409/19/19 62/16/16 61/18/18
f 232/3/3 278/20/20 373/21/21
f 280/22/22 289/23/23 14/24/24
f 271/25/25 66/26/26 352/27/27
f 75/28/28 271/25/25 352/27/27
f 435/29/29 410/30/30 74/31/31
f 71/32/32 241/33/33 245/34/34
f 73/35/35 17/36/36 270/37/37
f 75/38/28 352/39/27 16/40/38
f 74/31/31 368/41/39 18/42/40
f 82/43/41 14/44/24 21/45/42
f 17/36/36 312/46/43 291/47/44
f 89/48/45 16/40/38 351/49/46
f 93/50/47 24/51/48 22/52/49
f 244/53/50 253/54/51 254/55/52
f 379/56/53 434/57/54 429/58/55
f 369/59/56 22/52/49 122/60/57
f 30/61/58 103/62/59 104/63/60
f 318/64/61 331/65/62 326/66/63
f 110/67/64 457/68/65 228/69/66
f 239/70/67 238/71/68 217/72/69
f 113/73/70 28/74/71 129/75/72
f 34/76/73 367/77/74 369/78/56
f 110/79/64 98/80/75 184/81/76
f 115/82/77 332/83/78 119/84/79
f 121/85/80 226/86/81 122/60/57
f 253/54/51 125/87/82 35/88/83
f 116/89/84 219/90/85 103/62/59
f 391/91/86 407/92/87 34/76/73
f 34/76/73 389/93/88 391/91/86
f 134/94/89 36/95/90 219/90/85
f 130/96/91 128/97/92 37/98/93
f 215/99/94 108/100/95 35/88/83
f 209/101/96 210/102/97 138/103/98
f 366/104/99 121/85/80 38/105/100
f 306/106/101 141/107/102 305/108/103
f 191/109/104 207/110/105 44/111/106
f 390/112/107 402/113/108 47/114/109
f 146/115/110 45/116/111 140/117/112
f 193/118/113 147/119/114 207/110/105
f 148/120/115 149/121/116 168/122/117
f 48/123/118 364/124/119 154/125/120
f 225/126/121 162/127/122 156/128/123
f 223/129/124 154/130/120 51/131/125
f 161/132/126 160/133/127 166/134/128
f 158/135/129 52/136/130 162/127/122
f 165/137/131 52/136/130 158/135/129
f 165/137/131 158/135/129 166/134/128
f 189/138/132 164/139/133 165/140/131
f 189/138/132 51/131/125 164/139/133
f 222/141/134 223/129/124 167/142/135
f 216/143/136 143/144/137 144/145/138
f 143/144/137 148/120/115 144/145/138
f 169/146/139 51/147/125 154/125/120
f 162/148/122 52/149/130 157/150/140
f 170/151/141 181/152/142 153/153/143
f 225/154/121 366/104/99 170/155/141
f 456/156/144 174/157/145 38/158/100
f 186/159/146 172/160/147 456/156/144
f 173/161/148 178/162/149 172/160/147
f 174/157/145 171/163/150 38/158/100
f 171/164/150 179/165/151 170/151/141
f 174/157/145 456/156/144 172/160/147
f 135/166/152 178/167/149 173/168/148
f 135/169/152 174/157/145 178/162/149
f 135/169/152 180/170/153 174/157/145
f 179/171/151 171/163/150 180/170/153
f 180/172/153 135/166/152 175/173/154
f 175/173/154 179/174/151 180/172/153
f 181/152/142 170/151/141 182/175/155
f 184/176/76 177/177/156 185/178/157
f 185/178/157 177/177/156 173/168/148
f 173/168/148 172/179/147 185/178/157
f 183/180/158 43/181/159 267/182/160
f 266/183/161 267/182/160 43/181/159
f 188/184/162 183/180/158 267/182/160
f 166/134/128 158/135/129 182/175/155
f 167/142/135 223/129/124 189/138/132
f 167/142/135 144/185/138 168/186/117
f 190/187/163 191/109/104 41/188/164
f 191/109/104 193/118/113 207/110/105
f 193/118/113 191/109/104 192/189/165
f 198/190/166 196/191/167 197/192/168
f 46/193/169 200/194/170 199/195/171
f 200/194/170 194/196/172 192/197/165
f 46/193/169 197/192/168 200/194/170
f 190/198/163 41/199/164 199/195/171
f 199/195/171 41/199/164 203/200/173
f 201/201/174 196/191/167 198/190/166
f 195/202/175 163/203/176 206/204/177
f 195/202/175 196/205/167 163/203/176
f 202/206/178 201/201/174 198/190/166
f 202/206/178 204/207/179 201/201/174
f 165/137/131 163/203/176 196/205/167
f 201/208/174 167/142/135 189/138/132
f 201/208/174 204/209/179 167/142/135
f 206/210/177 49/211/180 152/212/181
f 152/212/181 147/119/114 193/118/113
f 152/212/181 146/115/110 147/119/114
f 42/213/182 208/214/183 138/103/98
f 27/215/184 138/103/98 208/214/183
f 27/215/184 209/101/96 138/103/98
f 26/216/185 210/217/97 209/218/96
f 213/219/186 211/220/187 126/221/188
f 211/222/187 214/223/189 44/111/106
f 108/224/95 215/225/94 136/226/190
f 215/225/94 191/109/104 136/226/190
f 134/94/89 40/227/191 143/144/137
f 134/94/89 217/72/69 36/95/90
f 354/228/192 218/229/193 219/90/85
f 221/230/194 40/227/191 220/231/195
f 159/232/196 51/147/125 169/146/139
f 133/233/197 389/93/88 226/234/81
f 226/235/81 34/236/73 124/237/198
f 121/85/80 366/104/99 226/86/81
f 32/238/199 24/51/48 452/239/200
f 452/239/200 371/240/201 32/238/199
f 457/68/65 32/238/199 228/69/66
f 101/241/202 110/242/64 228/243/66
f 371/244/201 229/245/203 101/241/202
f 105/246/204 101/241/202 229/245/203
f 98/247/75 110/242/64 105/246/204
f 85/248/205 84/249/206 82/43/41
f 61/18/18 232/250/3 373/251/21
f 57/252/207 1/253/208 2/254/1
f 57/252/207 3/255/209 1/253/208
f 241/256/33 58/11/11 65/257/210
f 65/257/210 234/258/211 15/259/212
f 238/71/68 237/260/213 217/72/69
f 236/261/214 102/262/215 240/263/216
f 96/264/217 102/262/215 238/265/68
f 96/264/217 95/266/218 15/267/212
f 58/11/11 242/268/219 8/9/9
f 238/71/68 252/269/220 243/270/221
f 245/271/34 95/272/218 23/273/222
f 71/32/32 242/274/219 241/33/33
f 249/275/223 10/15/15 246/276/224
f 247/277/225 246/278/224 71/32/32
f 244/279/50 248/280/226 23/281/222
f 248/280/226 250/282/227 247/277/225
f 247/277/225 250/282/227 249/283/223
f 248/280/226 244/279/50 250/282/227
f 252/269/220 238/71/68 239/70/67
f 251/284/228 252/269/220 99/285/229
f 250/282/227 244/279/50 254/286/52
f 254/286/52 351/287/46 250/282/227
f 352/27/27 66/26/26 249/275/223
f 56/8/8 259/7/7 53/288/230
f 259/7/7 256/13/13 53/288/230
f 256/13/13 259/7/7 255/289/231
f 262/290/232 260/10/10 8/9/9
f 3/255/209 260/291/10 1/253/208
f 262/290/232 263/4/4 260/10/10
f 261/2/2 1/292/208 55/293/233
f 53/288/230 54/5/5 262/290/232
f 276/294/6 232/3/3 261/2/2
f 278/295/20 279/296/234 372/297/235
f 82/43/41 84/249/206 279/296/234
f 128/298/92 131/299/236 184/81/76
f 131/299/236 43/300/159 184/81/76
f 139/301/237 43/181/159 305/302/103
f 333/303/238 45/116/111 49/211/180
f 333/303/238 141/304/102 45/116/111
f 315/305/239 42/213/182 140/117/112
f 97/306/240 209/218/96 268/307/241
f 16/308/38 76/309/242 75/310/28
f 270/311/37 72/312/243 269/313/244
f 272/14/14 256/13/13 255/289/231
f 255/289/231 66/26/26 271/25/25
f 270/311/37 17/314/36 273/315/245
f 78/316/246 297/317/247 77/318/248
f 297/317/247 273/319/245 77/318/248
f 77/318/248 273/319/245 17/320/36
f 292/321/249 272/14/14 274/322/250
f 272/14/14 292/321/249 5/12/12
f 288/323/251 257/324/252 5/325/12
f 288/326/251 258/327/253 257/328/252
f 258/327/253 343/329/254 344/330/255
f 53/288/230 256/13/13 275/331/256
f 53/332/230 264/333/257 54/334/5
f 282/335/258 277/336/259 283/337/260
f 284/338/261 285/339/262 283/337/260
f 284/338/261 264/333/257 344/330/255
f 264/333/257 53/332/230 275/340/256
f 276/294/6 54/334/5 264/333/257
f 276/294/6 284/338/261 283/337/260
f 63/341/263 280/22/22 287/342/264
f 287/342/264 288/323/251 63/341/263
f 63/341/263 290/343/265 289/23/23
f 291/344/44 77/345/248 17/346/36
f 78/347/246 77/345/248 296/348/266
f 297/349/247 78/347/246 296/348/266
f 294/350/267 274/351/250 297/317/247
f 273/319/245 297/317/247 274/351/250
f 292/352/249 274/351/250 294/350/267
f 295/353/268 293/354/269 63/341/263
f 295/355/268 298/356/270 299/357/271
f 296/348/266 293/358/269 299/359/271
f 318/360/61 91/361/272 90/362/273
f 90/362/273 91/361/272 100/363/274
f 100/363/274 302/364/275 90/362/273
f 301/365/276 98/80/75 21/366/42
f 301/365/276 31/367/277 98/80/75
f 304/368/278 128/298/92 265/369/279
f 130/96/91 37/98/93 305/370/103
f 305/370/103 131/371/236 130/96/91
f 305/108/103 37/372/93 306/106/101
f 306/373/101 320/374/280 141/375/102
f 107/376/281 268/307/241 209/218/96
f 268/307/241 107/376/281 310/377/282
f 308/378/283 269/379/244 97/306/240
f 309/380/284 87/381/285 308/378/283
f 308/378/283 310/377/282 309/380/284
f 311/382/286 309/380/284 310/377/282
f 311/382/286 73/35/35 87/381/285
f 268/307/241 310/377/282 308/378/283
f 111/383/287 107/376/281 27/384/184
f 107/376/281 111/383/287 94/385/288
f 300/386/289 290/387/265 291/47/44
f 318/360/61 90/362/273 300/388/289
f 319/389/290 91/361/272 318/360/61
f 303/390/291 100/391/274 91/392/272
f 307/393/292 304/368/278 303/390/291
f 307/394/292 306/373/101 304/395/278
f 307/394/292 320/374/280 306/373/101
f 45/116/111 141/304/102 320/396/280
f 321/397/293 329/398/294 316/399/295
f 317/400/296 300/386/289 291/47/44
f 317/400/296 318/401/61 300/386/289
f 45/116/111 320/396/280 314/402/297
f 321/403/293 322/404/298 312/46/43
f 319/405/290 313/406/299 91/407/272
f 326/66/63 324/408/300 307/394/292
f 328/409/301 39/410/302 329/411/294
f 329/411/294 314/412/297 328/409/301
f 322/413/298 330/414/303 317/415/296
f 325/416/304 318/64/61 323/417/305
f 313/406/299 319/405/290 326/66/63
f 322/413/298 316/418/295 330/414/303
f 316/418/295 329/411/294 39/410/302
f 115/82/77 323/417/305 330/414/303
f 115/82/77 325/416/304 323/417/305
f 39/410/302 332/83/78 330/414/303
f 332/83/78 115/82/77 330/414/303
f 119/84/79 331/65/62 325/416/304
f 328/409/301 327/419/306 332/83/78
f 332/83/78 39/410/302 328/409/301
f 119/84/79 325/416/304 115/82/77
f 43/181/159 139/301/237 266/183/161
f 187/420/307 335/421/308 50/422/309
f 187/423/307 336/424/310 205/425/311
f 338/426/312 139/427/237 141/428/102
f 266/429/161 139/430/237 334/431/313
f 334/431/313 337/432/314 335/421/308
f 50/422/309 335/421/308 337/432/314
f 336/433/310 339/434/315 205/435/311
f 337/432/314 334/431/313 142/436/316
f 338/426/312 142/436/316 139/430/237
f 339/437/315 337/432/314 142/436/316
f 333/438/238 339/437/315 142/436/316
f 88/439/317 341/440/318 289/441/23
f 14/442/24 83/443/319 21/444/42
f 341/440/318 14/442/24 289/441/23
f 83/443/319 341/440/318 88/439/317
f 342/445/320 83/443/319 340/446/321
f 31/367/277 301/365/276 100/391/274
f 344/330/255 275/340/256 258/327/253
f 282/335/258 283/337/260 285/339/262
f 287/447/264 343/329/254 288/326/251
f 345/448/322 285/339/262 343/329/254
f 287/447/264 345/448/322 343/329/254
f 76/309/242 16/308/38 269/449/244
f 25/450/323 97/306/240 89/48/45
f 99/285/229 347/451/324 251/284/228
f 346/452/325 251/284/228 348/453/326
f 108/100/95 349/454/327 29/455/328
f 25/450/323 89/48/45 29/456/328
f 126/221/188 211/220/187 212/457/329
f 349/458/327 213/219/186 126/221/188
f 350/459/330 25/450/323 29/456/328
f 106/460/331 117/461/332 25/462/323
f 106/460/331 120/463/333 117/461/332
f 106/460/331 349/458/327 120/463/333
f 127/464/334 216/143/136 215/99/94
f 352/39/27 249/465/223 351/49/46
f 351/49/46 16/40/38 352/39/27
f 246/278/224 242/274/219 71/32/32
f 15/466/212 95/272/218 245/271/34
f 354/228/192 116/89/84 353/467/335
f 354/228/192 378/468/336 218/229/193
f 149/469/116 148/470/115 357/471/337
f 357/471/337 150/472/338 149/469/116
f 355/473/339 223/129/124 222/141/134
f 356/474/340 48/123/118 355/475/339
f 221/476/194 358/477/341 357/478/337
f 361/479/342 362/480/343 118/481/344
f 123/482/345 33/483/346 381/484/347
f 360/485/348 118/481/344 123/482/345
f 362/480/343 33/483/346 118/481/344
f 118/481/344 33/483/346 123/482/345
f 360/485/348 361/479/342 118/481/344
f 363/486/349 359/487/350 360/488/348
f 364/124/119 48/123/118 363/489/349
f 159/490/196 386/491/351 365/492/352
f 386/493/351 156/494/123 365/495/352
f 386/491/351 387/496/353 156/497/123
f 124/237/198 122/498/57 226/235/81
f 369/499/56 122/498/57 114/500/354
f 86/501/355 231/502/356 84/249/206
f 375/503/357 376/504/358 374/505/359
f 103/62/59 217/72/69 237/260/213
f 237/260/213 375/506/357 104/63/60
f 3/507/209 377/508/360 9/509/361
f 64/510/362 65/511/210 58/512/11
f 377/508/360 13/513/363 67/514/364
f 377/515/360 3/255/209 6/516/365
f 235/517/366 234/518/211 376/519/358
f 376/519/358 375/520/357 236/261/214
f 378/468/336 220/231/195 218/229/193
f 423/521/367 379/56/53 361/522/342
f 380/523/368 361/522/342 379/56/53
f 132/524/369 381/484/347 380/525/368
f 386/491/351 399/526/370 387/496/353
f 389/527/88 133/528/197 366/104/99
f 145/529/371 392/530/372 385/531/373
f 395/532/374 224/533/375 385/534/373
f 399/526/370 386/491/351 390/112/107
f 400/535/376 389/536/88 366/537/99
f 385/534/373 393/538/377 394/539/378
f 396/540/379 224/533/375 395/532/374
f 398/541/380 399/526/370 397/542/381
f 405/543/382 393/538/377 392/544/372
f 390/545/107 396/540/379 402/546/108
f 393/538/377 405/543/382 394/539/378
f 404/547/383 402/546/108 394/539/378
f 400/535/376 401/548/384 389/536/88
f 399/526/370 47/114/109 397/542/381
f 399/526/370 388/549/385 387/496/353
f 406/550/386 407/551/87 129/75/72
f 367/77/74 368/552/39 369/78/56
f 20/553/387 408/554/388 368/552/39
f 408/555/388 370/556/389 22/52/49
f 62/16/16 409/19/19 410/30/30
f 412/557/390 57/558/207 2/559/1
f 4/560/391 57/252/207 413/561/392
f 4/560/391 11/562/393 12/563/394
f 12/563/394 6/516/365 4/560/391
f 12/563/394 422/564/395 374/505/359
f 436/565/396 379/56/53 423/521/367
f 382/566/397 381/484/347 415/567/398
f 113/73/70 129/75/72 416/568/399
f 129/75/72 392/569/372 416/568/399
f 406/550/386 129/75/72 430/570/400
f 112/571/401 417/572/402 406/573/386
f 409/19/19 74/31/31 410/30/30
f 411/574/403 62/16/16 419/575/404
f 411/576/403 59/577/405 60/578/406
f 60/578/406 233/579/17 411/576/403
f 59/577/405 7/580/407 412/557/390
f 420/581/408 11/582/393 414/583/409
f 419/575/404 11/582/393 420/581/408
f 420/581/408 411/574/403 419/575/404
f 420/584/408 421/585/410 411/576/403
f 421/585/410 414/586/409 7/580/407
f 420/584/408 414/586/409 421/585/410
f 419/575/404 410/30/30 11/582/393
f 436/565/396 434/57/54 379/56/53
f 432/587/411 429/58/55 434/57/54
f 432/587/411 18/588/40 429/58/55
f 426/589/412 367/77/74 418/590/413
f 418/591/413 407/592/87 427/593/414
f 427/593/414 109/594/415 418/591/413
f 426/595/412 428/596/416 425/597/417
f 429/58/55 113/73/70 379/56/53
f 113/73/70 429/58/55 28/74/71
f 428/596/416 28/74/71 424/598/418
f 430/599/400 428/600/416 112/571/401
f 129/75/72 28/74/71 430/570/400
f 435/601/29 74/602/31 18/588/40
f 433/603/419 422/564/395 12/563/394
f 432/587/411 435/601/29 18/588/40
f 440/604/420 422/605/395 433/606/419
f 431/607/421 422/605/395 441/608/422
f 432/609/411 434/610/54 438/611/423
f 443/612/424 440/604/420 11/613/393
f 437/614/425 431/607/421 444/615/426
f 445/616/427 437/614/425 444/615/426
f 442/617/428 443/612/424 439/618/429
f 440/604/420 446/619/430 441/608/422
f 446/619/430 442/617/428 445/616/427
f 446/619/430 444/615/426 441/608/422
f 447/620/431 449/621/432 93/622/47
f 69/623/433 409/624/19 450/625/434
f 79/626/435 20/627/387 69/623/433
f 20/627/387 92/628/436 408/629/388
f 450/625/434 79/626/435 69/623/433
f 448/630/437 449/621/432 450/625/434
f 450/625/434 449/621/432 79/626/435
f 79/626/435 449/621/432 92/628/436
f 449/621/432 447/620/431 92/628/436
f 416/568/399 380/523/368 113/73/70
f 132/631/369 380/523/368 416/568/399
f 123/482/345 381/484/347 382/566/397
f 33/483/346 380/525/368 381/484/347
f 361/632/342 360/488/348 359/487/350
f 376/504/358 6/516/365 374/505/359
f 452/239/200 24/51/48 451/633/438
f 86/634/355 454/635/439 231/636/356
f 68/637/440 231/636/356 454/635/439
f 80/638/441 81/639/442 68/637/440
f 68/637/440 81/639/442 453/640/443
f 373/641/21 453/640/443 81/639/442
f 80/638/441 451/642/438 81/639/442
f 451/642/438 80/638/441 452/643/200
f 81/639/442 451/642/438 373/641/21
f 373/641/21 372/644/235 453/640/443
f 155/645/444 164/646/133 365/647/352 156/648/123
f 154/130/120 223/129/124 355/473/339
f 455/649/445 98/247/75 229/245/203
f 98/247/75 230/650/446 229/245/203
f 186/651/146 456/652/144 110/67/64
f 38/105/100 457/68/65 456/652/144
f 457/68/65 110/67/64 456/652/144
f 134/94/89 220/231/195 40/227/191
f 215/99/94 35/88/83 127/464/334
f 214/223/189 136/226/190 191/109/104
f 44/111/106 207/110/105 137/653/447
f 215/225/94 41/188/164 191/109/104
f 182/175/155 188/184/162 161/132/126
f 188/184/162 187/423/307 161/132/126
f 43/181/159 183/180/158 176/654/448
f 41/655/164 216/143/136 144/145/138
f 155/645/444 156/648/123 157/150/140
f 168/186/117 144/185/138 148/656/115
f 38/105/100 121/85/80 457/68/65
f 260/291/10 3/255/209 58/657/11
f 203/658/173 167/142/135 204/209/179
f 1/292/208 261/2/2 2/1/1
f 56/8/8 53/288/230 262/290/232
f 257/659/252 256/13/13 5/12/12
f 7/580/407 414/586/409 413/660/392
f 9/509/361 58/512/11 3/507/209
f 278/661/20 372/662/235 373/251/21
f 69/663/433 70/664/449 409/19/19
f 61/18/18 451/665/438 93/666/47
f 73/35/35 269/379/244 308/378/283
f 302/364/275 289/23/23 290/343/265
f 17/36/36 73/35/35 311/382/286
f 311/382/286 94/385/288 17/36/36
f 21/45/42 455/667/445 82/43/41
f 85/248/205 86/501/355 84/249/206
f 104/63/60 431/668/421 423/669/367
f 21/45/42 98/670/75 455/667/445
f 369/78/56 408/554/388 22/671/49
f 369/78/56 368/552/39 408/554/388
f 32/238/199 371/240/201 228/69/66
f 326/66/63 319/405/290 318/64/61
f 209/218/96 97/306/240 26/216/185
f 32/238/199 121/85/80 227/672/450
f 253/54/51 108/100/95 29/455/328
f 31/367/277 265/369/279 184/81/76
f 457/68/65 121/85/80 32/238/199
f 116/89/84 103/62/59 30/61/58
f 34/236/73 114/500/354 124/237/198
f 36/95/90 103/62/59 219/90/85
f 178/162/149 174/157/145 172/160/147
f 127/464/334 35/88/83 125/87/82
f 38/105/100 170/155/141 366/104/99
f 392/569/372 132/673/369 416/568/399
f 215/99/94 216/143/136 41/655/164
f 141/107/102 139/674/237 305/108/103
f 44/111/106 214/223/189 191/109/104
f 145/529/371 364/124/119 415/675/398
f 197/192/168 151/676/451 198/190/166
f 168/186/117 149/677/116 222/141/134
f 198/190/166 151/676/451 202/206/178
f 49/211/180 146/115/110 152/212/181
f 156/128/123 387/678/353 225/126/121
f 225/126/121 153/153/143 162/127/122
f 317/400/296 291/47/44 312/46/43 322/404/298
f 161/132/126 187/423/307 205/425/311
f 365/495/352 51/131/125 159/679/196
f 189/138/132 223/129/124 51/131/125
f 144/145/138 203/680/173 41/655/164
f 143/144/137 40/227/191 148/120/115
f 149/469/116 150/472/338 222/681/134
f 164/139/133 51/131/125 365/495/352
f 169/146/139 224/682/375 159/232/196
f 162/148/122 157/150/140 156/648/123
f 52/149/130 155/645/444 157/150/140
f 158/135/129 162/127/122 153/153/143
f 153/153/143 181/152/142 158/135/129
f 153/153/143 225/126/121 170/151/141
f 38/105/100 171/683/150 170/155/141
f 175/173/154 177/177/156 176/684/448
f 179/165/151 175/685/154 170/151/141
f 175/173/154 135/166/152 177/177/156
f 135/166/152 173/168/148 177/177/156
f 180/170/153 171/163/150 174/157/145
f 175/685/154 176/654/448 183/180/158
f 158/135/129 181/152/142 182/175/155
f 182/175/155 170/151/141 188/184/162
f 188/184/162 175/685/154 183/180/158
f 185/178/157 172/179/147 186/686/146
f 186/686/146 184/176/76 185/178/157
f 176/654/448 184/687/76 43/181/159
f 187/423/307 188/184/162 267/182/160
f 182/175/155 161/132/126 166/134/128
f 168/186/117 222/141/134 167/142/135
f 167/142/135 203/658/173 144/185/138
f 190/187/163 192/189/165 191/109/104
f 194/688/172 195/689/175 193/118/113
f 195/690/175 197/192/168 196/191/167
f 199/195/171 202/206/178 151/676/451
f 199/195/171 200/194/170 190/198/163
f 190/198/163 200/194/170 192/197/165
f 192/189/165 194/688/172 193/118/113
f 195/690/175 200/194/170 197/192/168
f 151/676/451 197/192/168 46/193/169
f 199/195/171 151/676/451 46/193/169
f 200/194/170 195/690/175 194/196/172
f 195/689/175 206/210/177 193/118/113
f 206/210/177 152/212/181 193/118/113
f 201/691/174 165/137/131 196/205/167
f 202/206/178 203/200/173 204/207/179
f 203/200/173 202/206/178 199/195/171
f 201/691/174 189/692/132 165/137/131
f 163/203/176 165/137/131 166/134/128
f 163/203/176 160/133/127 161/132/126
f 161/132/126 205/425/311 163/203/176
f 206/204/177 163/203/176 205/425/311
f 49/211/180 45/116/111 146/115/110
f 138/103/98 44/111/106 137/653/447
f 146/115/110 42/213/182 147/119/114
f 42/213/182 315/305/239 208/214/183
f 213/219/186 214/693/189 211/220/187
f 211/222/187 44/111/106 210/102/97
f 210/102/97 44/111/106 138/103/98
f 214/223/189 108/224/95 136/226/190
f 134/94/89 143/144/137 347/451/324
f 36/95/90 217/72/69 103/62/59
f 116/89/84 354/228/192 219/90/85
f 40/227/191 221/230/194 148/120/115
f 355/694/339 222/681/134 150/472/338
f 154/125/120 364/124/119 169/146/139
f 225/695/121 387/496/353 388/549/385
f 226/234/81 389/93/88 34/76/73
f 114/500/354 34/236/73 369/499/56
f 226/86/81 366/104/99 133/528/197
f 227/672/450 24/51/48 32/238/199
f 85/696/205 229/245/203 371/244/201
f 101/241/202 228/243/66 371/244/201
f 101/241/202 105/246/204 110/242/64
f 229/245/203 230/650/446 105/246/204
f 230/650/446 98/247/75 105/246/204
f 85/248/205 82/43/41 455/667/445
f 231/502/356 372/297/235 279/296/234
f 61/697/18 233/698/17 232/3/3
f 235/517/366 240/263/216 234/699/211
f 235/517/366 236/261/214 240/263/216
f 19/700/452 375/520/357 237/701/213
f 19/700/452 237/701/213 102/262/215
f 102/262/215 236/261/214 19/700/452
f 234/699/211 240/263/216 15/267/212
f 15/267/212 240/263/216 96/264/217
f 238/265/68 243/702/221 96/264/217
f 243/702/221 95/266/218 96/264/217
f 15/259/212 245/703/34 241/256/33
f 15/259/212 241/256/33 65/257/210
f 241/256/33 242/268/219 58/11/11
f 252/269/220 95/272/218 243/270/221
f 246/276/224 10/15/15 242/268/219
f 10/15/15 8/9/9 242/268/219
f 23/281/222 248/280/226 245/34/34
f 248/280/226 71/32/32 245/34/34
f 247/277/225 71/32/32 248/280/226
f 247/704/225 249/275/223 246/276/224
f 244/53/50 251/284/228 253/54/51
f 251/284/228 244/53/50 23/273/222
f 251/284/228 23/273/222 252/269/220
f 99/285/229 252/269/220 239/70/67
f 250/282/227 351/287/46 249/283/223
f 249/275/223 66/26/26 10/15/15
f 257/659/252 275/331/256 256/13/13
f 258/327/253 275/340/256 257/328/252
f 8/9/9 56/8/8 262/290/232
f 276/294/6 261/2/2 55/293/233
f 263/4/4 1/705/208 260/10/10
f 55/293/233 1/292/208 263/706/4
f 262/290/232 54/5/5 263/4/4
f 55/293/233 263/706/4 276/294/6
f 276/294/6 277/336/259 232/3/3
f 281/707/453 82/43/41 279/296/234
f 128/298/92 184/81/76 265/369/279
f 43/181/159 131/708/236 305/302/103
f 266/429/161 335/421/308 267/709/160
f 267/709/160 335/421/308 187/420/307
f 206/210/177 205/435/311 49/211/180
f 315/305/239 140/117/112 45/116/111
f 140/117/112 42/213/182 146/115/110
f 97/306/240 268/307/241 308/378/283
f 97/306/240 269/379/244 89/48/45
f 89/48/45 269/379/244 16/40/38
f 76/309/242 269/449/244 72/710/243
f 76/309/242 72/710/243 75/310/28
f 270/311/37 271/25/25 75/28/28
f 270/311/37 75/28/28 72/312/243
f 259/7/7 10/15/15 66/26/26
f 66/26/26 255/289/231 259/7/7
f 270/711/37 269/379/244 73/35/35
f 270/311/37 272/14/14 271/25/25
f 271/25/25 272/14/14 255/289/231
f 272/14/14 270/311/37 273/315/245
f 274/322/250 272/14/14 273/315/245
f 277/336/259 278/20/20 232/3/3
f 14/24/24 82/712/41 280/22/22
f 280/713/22 82/714/41 286/715/454
f 286/715/454 82/714/41 281/716/453
f 278/20/20 282/335/258 281/716/453
f 275/340/256 344/330/255 264/333/257
f 279/717/234 278/20/20 281/716/453
f 278/20/20 277/336/259 282/335/258
f 277/336/259 276/294/6 283/337/260
f 264/333/257 284/338/261 276/294/6
f 281/716/453 282/335/258 345/448/322
f 289/23/23 280/22/22 63/341/263
f 293/354/269 290/343/265 63/341/263
f 291/344/44 293/358/269 296/348/266
f 291/344/44 296/348/266 77/345/248
f 292/321/249 298/718/270 5/12/12
f 298/719/270 63/341/263 5/325/12
f 63/341/263 298/719/270 295/353/268
f 295/355/268 299/357/271 293/720/269
f 297/317/247 296/721/266 299/357/271
f 299/357/271 294/350/267 297/317/247
f 294/350/267 298/356/270 292/352/249
f 298/356/270 294/350/267 299/357/271
f 293/354/269 291/722/44 290/343/265
f 90/362/273 290/343/265 300/388/289
f 302/364/275 290/343/265 90/362/273
f 302/723/275 88/439/317 289/441/23
f 303/390/291 31/367/277 100/391/274
f 304/368/278 265/369/279 31/367/277
f 131/371/236 128/97/92 130/96/91
f 304/368/278 37/372/93 128/298/92
f 304/368/278 306/106/101 37/372/93
f 304/368/278 31/367/277 303/390/291
f 45/116/111 314/402/297 315/305/239
f 329/398/294 321/397/293 208/214/183
f 329/398/294 208/214/183 315/305/239
f 321/397/293 111/724/287 208/214/183
f 209/218/96 27/384/184 107/376/281
f 308/378/283 87/381/285 73/35/35
f 311/382/286 87/381/285 309/380/284
f 311/382/286 310/377/282 94/385/288
f 94/385/288 312/46/43 17/36/36
f 94/385/288 111/383/287 312/46/43
f 310/377/282 107/376/281 94/385/288
f 27/384/184 208/725/183 111/383/287
f 329/398/294 315/305/239 314/402/297
f 111/383/287 321/403/293 312/46/43
f 314/402/297 320/396/280 327/726/306 328/727/301
f 91/392/272 313/728/299 303/390/291
f 313/406/299 307/394/292 303/729/291
f 318/64/61 317/415/296 323/417/305
f 320/374/280 307/394/292 327/419/306
f 322/404/298 321/403/293 316/730/295
f 313/406/299 326/66/63 307/394/292
f 285/339/262 284/338/261 344/330/255 343/329/254
f 330/414/303 323/417/305 317/415/296
f 325/416/304 331/65/62 318/64/61
f 324/408/300 327/419/306 307/394/292
f 324/408/300 326/66/63 327/419/306
f 316/418/295 39/410/302 330/414/303
f 331/65/62 332/83/78 326/66/63
f 119/84/79 332/83/78 331/65/62
f 332/83/78 327/419/306 326/66/63
f 266/429/161 334/431/313 335/421/308
f 333/731/238 338/732/312 141/107/102
f 50/422/309 336/733/310 187/420/307
f 49/211/180 339/434/315 333/303/238
f 139/430/237 142/436/316 334/431/313
f 50/422/309 339/437/315 336/733/310
f 339/434/315 49/211/180 205/435/311
f 333/438/238 142/436/316 338/426/312
f 339/437/315 50/422/309 337/432/314
f 302/723/275 100/734/274 88/439/317
f 340/446/321 88/439/317 100/734/274
f 88/439/317 340/446/321 83/443/319
f 83/443/319 342/445/320 21/444/42
f 21/444/42 342/445/320 301/735/276
f 83/443/319 14/442/24 341/440/318
f 301/735/276 342/445/320 340/446/321
f 301/735/276 340/446/321 100/734/274
f 258/327/253 288/326/251 343/329/254
f 384/736/455 123/482/345 382/566/397 383/737/456
f 285/339/262 345/448/322 282/335/258
f 345/448/322 286/715/454 281/716/453
f 286/715/454 287/447/264 280/713/22
f 345/448/322 287/447/264 286/715/454
f 5/325/12 63/341/263 288/323/251
f 89/48/45 351/49/46 29/456/328
f 351/49/46 254/738/52 29/456/328
f 29/455/328 254/55/52 253/54/51
f 253/54/51 251/284/228 346/452/325
f 251/284/228 347/451/324 348/453/326
f 347/451/324 99/285/229 239/70/67
f 239/70/67 217/72/69 347/451/324
f 346/452/325 125/87/82 253/54/51
f 253/54/51 35/88/83 108/100/95
f 25/450/323 26/216/185 97/306/240
f 210/739/97 212/457/329 211/220/187
f 126/221/188 212/457/329 120/463/333
f 120/463/333 349/458/327 126/221/188
f 213/740/186 108/100/95 214/741/189
f 108/100/95 213/740/186 349/454/327
f 29/456/328 349/742/327 350/459/330
f 26/743/185 117/461/332 210/739/97
f 210/739/97 117/461/332 212/457/329
f 212/457/329 117/461/332 120/463/333
f 25/462/323 117/461/332 26/743/185
f 106/460/331 350/744/330 349/458/327
f 106/460/331 25/462/323 350/744/330
f 346/452/325 348/453/326 125/87/82
f 143/144/137 348/453/326 347/451/324
f 216/143/136 348/453/326 143/144/137
f 125/87/82 348/453/326 216/143/136
f 125/87/82 216/143/136 127/464/334
f 347/451/324 217/72/69 134/94/89
f 238/265/68 102/262/215 237/701/213
f 102/262/215 96/264/217 240/263/216
f 30/61/58 353/467/335 116/89/84
f 221/745/194 357/471/337 148/470/115
f 154/125/120 355/475/339 48/123/118
f 356/746/340 357/471/337 358/747/341
f 356/746/340 355/694/339 150/472/338
f 357/471/337 356/746/340 150/472/338
f 48/123/118 356/748/340 358/749/341
f 220/231/195 48/750/118 358/477/341
f 221/230/194 220/231/195 358/477/341
f 220/231/195 363/486/349 48/750/118
f 123/482/345 384/736/455 360/485/348
f 383/751/456 364/124/119 363/489/349
f 364/124/119 145/529/371 169/146/139
f 169/146/139 145/529/371 224/682/375
f 114/500/354 122/498/57 124/237/198
f 121/85/80 122/60/57 22/52/49
f 22/52/49 227/672/450 121/85/80
f 24/51/48 227/672/450 22/52/49
f 370/556/389 93/50/47 22/52/49
f 93/50/47 451/633/438 24/51/48
f 57/252/207 4/560/391 6/516/365
f 6/516/365 3/255/209 57/252/207
f 237/260/213 104/63/60 103/62/59
f 19/700/452 236/261/214 375/520/357
f 376/504/358 234/752/211 13/753/363
f 9/509/361 64/510/362 58/512/11
f 234/754/211 67/514/364 13/513/363
f 377/515/360 6/516/365 13/753/363
f 67/514/364 9/509/361 377/508/360
f 65/511/210 64/510/362 234/754/211
f 64/510/362 67/514/364 234/754/211
f 64/510/362 9/509/361 67/514/364
f 376/519/358 236/261/214 235/517/366
f 104/63/60 359/487/350 30/61/58
f 30/61/58 359/487/350 363/486/349
f 363/486/349 378/468/336 30/61/58
f 353/467/335 378/468/336 354/228/192
f 378/468/336 363/486/349 220/231/195
f 378/468/336 353/467/335 30/61/58
f 359/487/350 104/63/60 423/669/367
f 361/632/342 359/487/350 423/669/367
f 405/543/382 401/755/384 403/756/457 404/547/383
f 384/736/455 363/757/349 360/485/348
f 363/489/349 384/758/455 383/751/456
f 415/675/398 132/759/369 145/529/371
f 385/531/373 224/682/375 145/529/371
f 224/533/375 396/540/379 386/760/351
f 386/760/351 159/761/196 224/533/375
f 225/695/121 400/535/376 366/537/99
f 391/91/86 392/762/372 129/763/72
f 386/491/351 396/764/379 390/112/107
f 400/535/376 225/695/121 388/549/385
f 393/765/377 385/531/373 392/530/372
f 398/541/380 401/548/384 400/535/376
f 401/548/384 398/541/380 403/766/457
f 401/755/384 405/543/382 391/767/86
f 391/767/86 405/543/382 392/544/372
f 394/539/378 395/532/374 385/534/373
f 395/532/374 394/539/378 402/546/108
f 395/532/374 402/546/108 396/540/379
f 47/114/109 403/766/457 397/542/381
f 397/542/381 403/766/457 398/541/380
f 403/756/457 47/768/109 402/546/108 404/547/383
f 404/547/383 394/539/378 405/543/382
f 399/526/370 398/541/380 400/535/376 388/549/385
f 401/755/384 391/767/86 389/769/88
f 424/598/418 18/588/40 425/597/417 428/596/416
f 399/526/370 390/112/107 47/114/109
f 392/530/372 145/529/371 132/759/369
f 407/592/87 406/573/386 417/572/402
f 418/590/413 34/76/73 407/92/87
f 418/590/413 367/77/74 34/76/73
f 61/18/18 93/666/47 448/770/437
f 61/18/18 448/770/437 409/19/19
f 62/16/16 410/30/30 419/575/404
f 62/16/16 411/574/403 233/17/17
f 233/579/17 60/578/406 2/559/1
f 60/578/406 412/557/390 2/559/1
f 57/558/207 412/557/390 413/660/392
f 414/771/409 11/562/393 4/560/391
f 12/563/394 374/505/359 6/516/365
f 104/63/60 375/506/357 374/772/359
f 374/505/359 422/564/395 104/773/60
f 104/63/60 422/774/395 431/668/421
f 132/524/369 415/567/398 381/484/347
f 382/566/397 415/567/398 383/737/456
f 415/675/398 364/124/119 383/751/456
f 430/599/400 112/571/401 406/573/386
f 407/592/87 417/572/402 427/593/414
f 367/77/74 425/775/417 368/552/39
f 368/552/39 70/776/449 20/553/387
f 368/41/39 74/31/31 70/664/449
f 20/777/387 70/664/449 69/663/433
f 59/577/405 412/557/390 60/578/406
f 412/557/390 7/580/407 413/660/392
f 414/586/409 4/778/391 413/660/392
f 59/577/405 421/585/410 7/580/407
f 411/576/403 421/585/410 59/577/405
f 11/582/393 410/30/30 435/29/29
f 427/593/414 417/572/402 112/571/401 109/594/415
f 425/775/417 367/77/74 426/589/412
f 418/591/413 109/594/415 426/779/412
f 424/598/418 28/74/71 429/58/55
f 429/58/55 18/588/40 424/598/418
f 430/570/400 28/74/71 428/596/416
f 426/779/412 112/571/401 428/600/416
f 112/571/401 426/779/412 109/594/415
f 425/775/417 18/780/40 368/552/39
f 11/781/393 433/603/419 12/563/394
f 423/669/367 431/668/421 436/782/396
f 435/783/29 439/618/429 11/613/393
f 436/784/396 437/614/425 438/611/423
f 436/784/396 438/611/423 434/610/54
f 432/609/411 442/617/428 435/783/29
f 11/613/393 440/604/420 433/606/419
f 422/605/395 440/604/420 441/608/422
f 435/783/29 442/617/428 439/618/429
f 439/618/429 443/612/424 11/613/393
f 431/607/421 441/608/422 444/615/426
f 438/611/423 442/617/428 432/609/411
f 437/614/425 445/616/427 438/611/423
f 438/611/423 445/616/427 442/617/428
f 442/617/428 446/619/430 443/612/424
f 443/612/424 446/619/430 440/604/420
f 444/615/426 446/619/430 445/616/427
f 437/614/425 436/784/396 431/607/421
f 409/19/19 448/770/437 450/785/434
f 408/629/388 92/628/436 447/620/431
f 447/620/431 370/786/389 408/629/388
f 447/620/431 93/622/47 370/786/389
f 449/621/432 448/630/437 93/622/47
f 79/626/435 92/628/436 20/627/387
f 113/73/70 380/523/368 379/56/53
f 380/525/368 33/483/346 362/480/343
f 361/479/342 380/525/368 362/480/343
f 376/504/358 13/753/363 6/516/365
f 233/698/17 2/1/1 232/3/3
f 452/239/200 86/787/355 371/240/201
f 453/640/443 372/644/235 68/637/440
f 373/251/21 451/665/438 61/18/18
f 86/634/355 452/643/200 454/635/439
f 454/635/439 80/638/441 68/637/440
f 80/638/441 454/635/439 452/643/200
f 372/644/235 231/636/356 68/637/440
f 231/502/356 279/296/234 84/249/206
f 455/649/445 229/245/203 85/696/205
f 184/81/76 186/788/146 110/79/64
f 371/240/201 86/787/355 85/789/205
f 220/231/195 134/94/89 219/90/85
f 220/231/195 219/90/85 218/229/193
f 147/119/114 137/653/447 207/110/105
f 137/653/447 147/119/114 138/103/98
f 160/133/127 163/203/176 166/134/128
f 184/176/76 176/684/448 177/177/156
f 175/685/154 188/184/162 170/151/141
f 164/646/133 155/645/444 52/149/130
f 164/790/133 52/136/130 165/137/131
f 42/213/182 138/103/98 147/119/114
f 129/763/72 407/92/87 391/91/86
f 98/80/75 31/367/277 184/81/76
f 252/269/220 23/273/222 95/272/218
f 70/664/449 74/31/31 409/19/19
